G04*
G04 #@! TF.GenerationSoftware,Altium Limited,Altium Designer,24.7.2 (38)*
G04*
G04 Layer_Color=32896*
%FSLAX44Y44*%
%MOMM*%
G71*
G04*
G04 #@! TF.SameCoordinates,5F2224E1-EEEE-49E5-A837-5A6DF9339696*
G04*
G04*
G04 #@! TF.FilePolarity,Positive*
G04*
G01*
G75*
%ADD12C,0.2000*%
G36*
X1217930Y1236978D02*
Y1221738D01*
X1098550D01*
Y1236978D01*
Y1252222D01*
X1217930D01*
Y1236978D01*
D02*
G37*
G36*
X1098550Y1221740D02*
X1013536D01*
Y1252220D01*
X1098550D01*
Y1221740D01*
D02*
G37*
%LPC*%
G36*
X1167579Y1247863D02*
X1167493D01*
X1167427Y1247854D01*
X1167351Y1247844D01*
X1167265Y1247835D01*
X1167161Y1247816D01*
X1167056Y1247787D01*
X1166819Y1247721D01*
X1166705Y1247673D01*
X1166581Y1247616D01*
X1166458Y1247550D01*
X1166344Y1247474D01*
X1166230Y1247388D01*
X1166125Y1247284D01*
X1166116Y1247274D01*
X1166106Y1247265D01*
X1166087Y1247236D01*
X1166049Y1247198D01*
X1165983Y1247103D01*
X1165897Y1246970D01*
X1165812Y1246818D01*
X1165736Y1246638D01*
X1165688Y1246438D01*
X1165679Y1246334D01*
X1165669Y1246220D01*
Y1246210D01*
Y1246182D01*
X1165679Y1246134D01*
Y1246077D01*
X1165698Y1246011D01*
X1165717Y1245925D01*
X1165745Y1245830D01*
X1165783Y1245735D01*
X1165831Y1245631D01*
X1165897Y1245517D01*
X1165964Y1245403D01*
X1166059Y1245298D01*
X1166163Y1245184D01*
X1166287Y1245070D01*
X1166429Y1244966D01*
X1166591Y1244871D01*
X1166581D01*
X1166562Y1244861D01*
X1166534D01*
X1166496Y1244842D01*
X1166401Y1244814D01*
X1166277Y1244766D01*
X1166135Y1244690D01*
X1165992Y1244595D01*
X1165850Y1244481D01*
X1165717Y1244339D01*
X1165698Y1244320D01*
X1165660Y1244263D01*
X1165612Y1244177D01*
X1165546Y1244063D01*
X1165489Y1243921D01*
X1165432Y1243750D01*
X1165394Y1243569D01*
X1165384Y1243360D01*
Y1243275D01*
X1165394Y1243218D01*
X1165403Y1243142D01*
X1165413Y1243066D01*
X1165432Y1242971D01*
X1165460Y1242866D01*
X1165536Y1242638D01*
X1165584Y1242524D01*
X1165641Y1242401D01*
X1165717Y1242277D01*
X1165802Y1242154D01*
X1165897Y1242040D01*
X1166002Y1241926D01*
X1166011Y1241916D01*
X1166030Y1241897D01*
X1166068Y1241869D01*
X1166116Y1241831D01*
X1166173Y1241793D01*
X1166249Y1241736D01*
X1166334Y1241688D01*
X1166429Y1241631D01*
X1166534Y1241574D01*
X1166648Y1241527D01*
X1166771Y1241470D01*
X1166914Y1241432D01*
X1167056Y1241394D01*
X1167208Y1241365D01*
X1167370Y1241346D01*
X1167541Y1241337D01*
X1167626D01*
X1167683Y1241346D01*
X1167759Y1241356D01*
X1167845Y1241365D01*
X1167940Y1241375D01*
X1168044Y1241403D01*
X1168272Y1241460D01*
X1168510Y1241546D01*
X1168633Y1241603D01*
X1168757Y1241669D01*
X1168871Y1241745D01*
X1168985Y1241831D01*
X1168994Y1241840D01*
X1169013Y1241850D01*
X1169042Y1241878D01*
X1169070Y1241926D01*
X1169118Y1241973D01*
X1169165Y1242030D01*
X1169222Y1242106D01*
X1169279Y1242182D01*
X1169393Y1242372D01*
X1169498Y1242591D01*
X1169583Y1242847D01*
X1169621Y1242990D01*
X1169640Y1243132D01*
X1168453Y1243284D01*
Y1243275D01*
Y1243265D01*
X1168443Y1243208D01*
X1168424Y1243132D01*
X1168396Y1243028D01*
X1168358Y1242914D01*
X1168301Y1242800D01*
X1168234Y1242686D01*
X1168149Y1242591D01*
X1168139Y1242581D01*
X1168101Y1242553D01*
X1168054Y1242515D01*
X1167978Y1242477D01*
X1167892Y1242429D01*
X1167788Y1242391D01*
X1167674Y1242363D01*
X1167550Y1242353D01*
X1167531D01*
X1167484Y1242363D01*
X1167417Y1242372D01*
X1167322Y1242391D01*
X1167218Y1242420D01*
X1167113Y1242477D01*
X1167009Y1242543D01*
X1166904Y1242638D01*
X1166895Y1242648D01*
X1166866Y1242695D01*
X1166819Y1242752D01*
X1166771Y1242838D01*
X1166724Y1242952D01*
X1166676Y1243085D01*
X1166648Y1243237D01*
X1166638Y1243408D01*
Y1243417D01*
Y1243427D01*
Y1243484D01*
X1166648Y1243569D01*
X1166667Y1243674D01*
X1166705Y1243788D01*
X1166743Y1243911D01*
X1166809Y1244035D01*
X1166895Y1244139D01*
X1166904Y1244149D01*
X1166942Y1244187D01*
X1166990Y1244225D01*
X1167066Y1244282D01*
X1167151Y1244329D01*
X1167256Y1244377D01*
X1167370Y1244405D01*
X1167503Y1244415D01*
X1167598D01*
X1167664Y1244405D01*
X1167740Y1244396D01*
X1167835Y1244377D01*
X1167949Y1244348D01*
X1168063Y1244320D01*
X1167930Y1245317D01*
X1167845D01*
X1167759Y1245327D01*
X1167645Y1245336D01*
X1167522Y1245365D01*
X1167389Y1245393D01*
X1167265Y1245450D01*
X1167161Y1245526D01*
X1167151Y1245536D01*
X1167123Y1245564D01*
X1167075Y1245621D01*
X1167028Y1245688D01*
X1166980Y1245773D01*
X1166933Y1245878D01*
X1166904Y1246001D01*
X1166895Y1246134D01*
Y1246153D01*
Y1246191D01*
X1166904Y1246248D01*
X1166923Y1246324D01*
X1166942Y1246400D01*
X1166980Y1246486D01*
X1167028Y1246571D01*
X1167094Y1246647D01*
X1167104Y1246657D01*
X1167132Y1246676D01*
X1167170Y1246714D01*
X1167227Y1246752D01*
X1167303Y1246780D01*
X1167389Y1246818D01*
X1167493Y1246837D01*
X1167607Y1246847D01*
X1167655D01*
X1167721Y1246837D01*
X1167788Y1246818D01*
X1167873Y1246790D01*
X1167968Y1246752D01*
X1168063Y1246704D01*
X1168149Y1246628D01*
X1168158Y1246619D01*
X1168187Y1246590D01*
X1168225Y1246533D01*
X1168263Y1246467D01*
X1168310Y1246381D01*
X1168348Y1246267D01*
X1168386Y1246144D01*
X1168415Y1245992D01*
X1169545Y1246182D01*
Y1246191D01*
X1169536Y1246210D01*
Y1246239D01*
X1169526Y1246277D01*
X1169498Y1246381D01*
X1169460Y1246514D01*
X1169412Y1246666D01*
X1169346Y1246818D01*
X1169279Y1246970D01*
X1169194Y1247113D01*
X1169184Y1247132D01*
X1169146Y1247170D01*
X1169099Y1247236D01*
X1169023Y1247312D01*
X1168928Y1247398D01*
X1168814Y1247493D01*
X1168681Y1247588D01*
X1168529Y1247664D01*
X1168519D01*
X1168510Y1247673D01*
X1168453Y1247692D01*
X1168367Y1247730D01*
X1168253Y1247768D01*
X1168111Y1247797D01*
X1167949Y1247835D01*
X1167769Y1247854D01*
X1167579Y1247863D01*
D02*
G37*
G36*
X1156654D02*
X1156569D01*
X1156502Y1247854D01*
X1156426Y1247844D01*
X1156341Y1247835D01*
X1156236Y1247816D01*
X1156132Y1247787D01*
X1155894Y1247721D01*
X1155780Y1247673D01*
X1155657Y1247616D01*
X1155533Y1247550D01*
X1155419Y1247474D01*
X1155305Y1247388D01*
X1155201Y1247284D01*
X1155191Y1247274D01*
X1155182Y1247265D01*
X1155163Y1247236D01*
X1155125Y1247198D01*
X1155058Y1247103D01*
X1154973Y1246970D01*
X1154887Y1246818D01*
X1154811Y1246638D01*
X1154764Y1246438D01*
X1154754Y1246334D01*
X1154745Y1246220D01*
Y1246210D01*
Y1246182D01*
X1154754Y1246134D01*
Y1246077D01*
X1154773Y1246011D01*
X1154792Y1245925D01*
X1154821Y1245830D01*
X1154859Y1245735D01*
X1154906Y1245631D01*
X1154973Y1245517D01*
X1155039Y1245403D01*
X1155134Y1245298D01*
X1155239Y1245184D01*
X1155362Y1245070D01*
X1155505Y1244966D01*
X1155666Y1244871D01*
X1155657D01*
X1155638Y1244861D01*
X1155609D01*
X1155571Y1244842D01*
X1155476Y1244814D01*
X1155353Y1244766D01*
X1155210Y1244690D01*
X1155068Y1244595D01*
X1154925Y1244481D01*
X1154792Y1244339D01*
X1154773Y1244320D01*
X1154735Y1244263D01*
X1154688Y1244177D01*
X1154621Y1244063D01*
X1154564Y1243921D01*
X1154507Y1243750D01*
X1154469Y1243569D01*
X1154460Y1243360D01*
Y1243275D01*
X1154469Y1243218D01*
X1154479Y1243142D01*
X1154488Y1243066D01*
X1154507Y1242971D01*
X1154536Y1242866D01*
X1154612Y1242638D01*
X1154659Y1242524D01*
X1154716Y1242401D01*
X1154792Y1242277D01*
X1154878Y1242154D01*
X1154973Y1242040D01*
X1155077Y1241926D01*
X1155087Y1241916D01*
X1155106Y1241897D01*
X1155144Y1241869D01*
X1155191Y1241831D01*
X1155248Y1241793D01*
X1155324Y1241736D01*
X1155410Y1241688D01*
X1155505Y1241631D01*
X1155609Y1241574D01*
X1155723Y1241527D01*
X1155847Y1241470D01*
X1155989Y1241432D01*
X1156132Y1241394D01*
X1156284Y1241365D01*
X1156445Y1241346D01*
X1156616Y1241337D01*
X1156702D01*
X1156759Y1241346D01*
X1156835Y1241356D01*
X1156920Y1241365D01*
X1157015Y1241375D01*
X1157120Y1241403D01*
X1157348Y1241460D01*
X1157585Y1241546D01*
X1157709Y1241603D01*
X1157832Y1241669D01*
X1157946Y1241745D01*
X1158060Y1241831D01*
X1158070Y1241840D01*
X1158089Y1241850D01*
X1158117Y1241878D01*
X1158146Y1241926D01*
X1158193Y1241973D01*
X1158241Y1242030D01*
X1158298Y1242106D01*
X1158355Y1242182D01*
X1158469Y1242372D01*
X1158573Y1242591D01*
X1158659Y1242847D01*
X1158697Y1242990D01*
X1158716Y1243132D01*
X1157528Y1243284D01*
Y1243275D01*
Y1243265D01*
X1157519Y1243208D01*
X1157500Y1243132D01*
X1157471Y1243028D01*
X1157433Y1242914D01*
X1157376Y1242800D01*
X1157310Y1242686D01*
X1157224Y1242591D01*
X1157215Y1242581D01*
X1157177Y1242553D01*
X1157129Y1242515D01*
X1157053Y1242477D01*
X1156968Y1242429D01*
X1156863Y1242391D01*
X1156749Y1242363D01*
X1156626Y1242353D01*
X1156607D01*
X1156559Y1242363D01*
X1156493Y1242372D01*
X1156398Y1242391D01*
X1156293Y1242420D01*
X1156189Y1242477D01*
X1156084Y1242543D01*
X1155980Y1242638D01*
X1155970Y1242648D01*
X1155942Y1242695D01*
X1155894Y1242752D01*
X1155847Y1242838D01*
X1155799Y1242952D01*
X1155752Y1243085D01*
X1155723Y1243237D01*
X1155714Y1243408D01*
Y1243417D01*
Y1243427D01*
Y1243484D01*
X1155723Y1243569D01*
X1155742Y1243674D01*
X1155780Y1243788D01*
X1155818Y1243911D01*
X1155885Y1244035D01*
X1155970Y1244139D01*
X1155980Y1244149D01*
X1156018Y1244187D01*
X1156065Y1244225D01*
X1156141Y1244282D01*
X1156227Y1244329D01*
X1156331Y1244377D01*
X1156445Y1244405D01*
X1156578Y1244415D01*
X1156673D01*
X1156740Y1244405D01*
X1156816Y1244396D01*
X1156911Y1244377D01*
X1157025Y1244348D01*
X1157139Y1244320D01*
X1157006Y1245317D01*
X1156920D01*
X1156835Y1245327D01*
X1156721Y1245336D01*
X1156597Y1245365D01*
X1156464Y1245393D01*
X1156341Y1245450D01*
X1156236Y1245526D01*
X1156227Y1245536D01*
X1156198Y1245564D01*
X1156151Y1245621D01*
X1156103Y1245688D01*
X1156056Y1245773D01*
X1156008Y1245878D01*
X1155980Y1246001D01*
X1155970Y1246134D01*
Y1246153D01*
Y1246191D01*
X1155980Y1246248D01*
X1155999Y1246324D01*
X1156018Y1246400D01*
X1156056Y1246486D01*
X1156103Y1246571D01*
X1156170Y1246647D01*
X1156179Y1246657D01*
X1156208Y1246676D01*
X1156246Y1246714D01*
X1156303Y1246752D01*
X1156379Y1246780D01*
X1156464Y1246818D01*
X1156569Y1246837D01*
X1156683Y1246847D01*
X1156730D01*
X1156797Y1246837D01*
X1156863Y1246818D01*
X1156949Y1246790D01*
X1157044Y1246752D01*
X1157139Y1246704D01*
X1157224Y1246628D01*
X1157234Y1246619D01*
X1157262Y1246590D01*
X1157300Y1246533D01*
X1157338Y1246467D01*
X1157386Y1246381D01*
X1157424Y1246267D01*
X1157462Y1246144D01*
X1157490Y1245992D01*
X1158621Y1246182D01*
Y1246191D01*
X1158611Y1246210D01*
Y1246239D01*
X1158602Y1246277D01*
X1158573Y1246381D01*
X1158535Y1246514D01*
X1158488Y1246666D01*
X1158421Y1246818D01*
X1158355Y1246970D01*
X1158269Y1247113D01*
X1158260Y1247132D01*
X1158222Y1247170D01*
X1158174Y1247236D01*
X1158098Y1247312D01*
X1158003Y1247398D01*
X1157889Y1247493D01*
X1157756Y1247588D01*
X1157604Y1247664D01*
X1157595D01*
X1157585Y1247673D01*
X1157528Y1247692D01*
X1157443Y1247730D01*
X1157329Y1247768D01*
X1157186Y1247797D01*
X1157025Y1247835D01*
X1156844Y1247854D01*
X1156654Y1247863D01*
D02*
G37*
G36*
X1202463Y1247797D02*
X1201209D01*
X1198578Y1243512D01*
Y1247797D01*
X1197381D01*
Y1241403D01*
X1198682D01*
X1201266Y1245602D01*
Y1241403D01*
X1202463D01*
Y1247797D01*
D02*
G37*
G36*
X1165004Y1247835D02*
X1163608D01*
X1161993Y1243104D01*
X1160435Y1247835D01*
X1159058D01*
X1161328Y1241441D01*
X1162725D01*
X1165004Y1247835D01*
D02*
G37*
G36*
X1206472Y1247901D02*
X1206358D01*
X1206273Y1247892D01*
X1206178Y1247882D01*
X1206054Y1247873D01*
X1205930Y1247863D01*
X1205788Y1247835D01*
X1205493Y1247778D01*
X1205180Y1247692D01*
X1205028Y1247635D01*
X1204876Y1247569D01*
X1204743Y1247483D01*
X1204610Y1247398D01*
X1204601Y1247388D01*
X1204582Y1247379D01*
X1204544Y1247350D01*
X1204506Y1247303D01*
X1204449Y1247255D01*
X1204392Y1247189D01*
X1204325Y1247122D01*
X1204249Y1247037D01*
X1204183Y1246942D01*
X1204107Y1246837D01*
X1204031Y1246723D01*
X1203964Y1246609D01*
X1203841Y1246334D01*
X1203784Y1246182D01*
X1203746Y1246020D01*
X1205028Y1245783D01*
Y1245792D01*
X1205038Y1245802D01*
X1205057Y1245859D01*
X1205095Y1245944D01*
X1205142Y1246049D01*
X1205218Y1246172D01*
X1205303Y1246296D01*
X1205408Y1246410D01*
X1205541Y1246524D01*
X1205560Y1246533D01*
X1205608Y1246571D01*
X1205684Y1246609D01*
X1205798Y1246666D01*
X1205930Y1246714D01*
X1206092Y1246761D01*
X1206273Y1246790D01*
X1206472Y1246799D01*
X1206557D01*
X1206615Y1246790D01*
X1206681Y1246780D01*
X1206767Y1246771D01*
X1206956Y1246733D01*
X1207175Y1246666D01*
X1207279Y1246628D01*
X1207393Y1246571D01*
X1207507Y1246505D01*
X1207612Y1246438D01*
X1207716Y1246353D01*
X1207811Y1246258D01*
X1207821Y1246248D01*
X1207830Y1246229D01*
X1207859Y1246201D01*
X1207887Y1246163D01*
X1207925Y1246106D01*
X1207963Y1246030D01*
X1208011Y1245954D01*
X1208058Y1245859D01*
X1208106Y1245754D01*
X1208153Y1245640D01*
X1208191Y1245507D01*
X1208229Y1245365D01*
X1208258Y1245213D01*
X1208286Y1245042D01*
X1208296Y1244861D01*
X1208305Y1244671D01*
Y1244662D01*
Y1244624D01*
Y1244567D01*
X1208296Y1244481D01*
X1208286Y1244386D01*
X1208277Y1244282D01*
X1208267Y1244158D01*
X1208239Y1244035D01*
X1208182Y1243750D01*
X1208096Y1243465D01*
X1208039Y1243332D01*
X1207963Y1243199D01*
X1207887Y1243075D01*
X1207802Y1242961D01*
X1207792Y1242952D01*
X1207783Y1242933D01*
X1207754Y1242914D01*
X1207707Y1242876D01*
X1207659Y1242828D01*
X1207602Y1242781D01*
X1207526Y1242733D01*
X1207450Y1242686D01*
X1207355Y1242629D01*
X1207261Y1242581D01*
X1207032Y1242486D01*
X1206909Y1242448D01*
X1206776Y1242429D01*
X1206634Y1242410D01*
X1206481Y1242401D01*
X1206415D01*
X1206329Y1242410D01*
X1206225Y1242420D01*
X1206102Y1242439D01*
X1205968Y1242467D01*
X1205816Y1242505D01*
X1205665Y1242553D01*
X1205655D01*
X1205646Y1242562D01*
X1205598Y1242581D01*
X1205522Y1242619D01*
X1205427Y1242667D01*
X1205313Y1242724D01*
X1205199Y1242790D01*
X1205076Y1242857D01*
X1204961Y1242942D01*
Y1243750D01*
X1206443D01*
Y1244833D01*
X1203660D01*
Y1242287D01*
X1203679Y1242268D01*
X1203736Y1242220D01*
X1203831Y1242144D01*
X1203964Y1242049D01*
X1204126Y1241945D01*
X1204325Y1241831D01*
X1204563Y1241707D01*
X1204838Y1241593D01*
X1204848D01*
X1204876Y1241584D01*
X1204914Y1241565D01*
X1204971Y1241546D01*
X1205038Y1241527D01*
X1205123Y1241498D01*
X1205218Y1241470D01*
X1205322Y1241451D01*
X1205560Y1241394D01*
X1205816Y1241346D01*
X1206102Y1241308D01*
X1206396Y1241299D01*
X1206491D01*
X1206567Y1241308D01*
X1206653D01*
X1206757Y1241318D01*
X1206871Y1241337D01*
X1206994Y1241356D01*
X1207270Y1241403D01*
X1207564Y1241479D01*
X1207859Y1241584D01*
X1208011Y1241641D01*
X1208153Y1241717D01*
X1208163Y1241726D01*
X1208182Y1241736D01*
X1208220Y1241764D01*
X1208277Y1241793D01*
X1208334Y1241840D01*
X1208410Y1241888D01*
X1208571Y1242021D01*
X1208752Y1242192D01*
X1208932Y1242401D01*
X1209113Y1242638D01*
X1209265Y1242914D01*
Y1242923D01*
X1209284Y1242952D01*
X1209303Y1242990D01*
X1209322Y1243056D01*
X1209350Y1243123D01*
X1209379Y1243208D01*
X1209417Y1243313D01*
X1209445Y1243427D01*
X1209483Y1243541D01*
X1209521Y1243674D01*
X1209578Y1243968D01*
X1209616Y1244282D01*
X1209635Y1244614D01*
Y1244709D01*
X1209626Y1244785D01*
Y1244871D01*
X1209616Y1244975D01*
X1209597Y1245089D01*
X1209578Y1245213D01*
X1209531Y1245488D01*
X1209455Y1245783D01*
X1209350Y1246087D01*
X1209293Y1246239D01*
X1209217Y1246381D01*
X1209208Y1246391D01*
X1209198Y1246419D01*
X1209170Y1246457D01*
X1209141Y1246514D01*
X1209094Y1246571D01*
X1209046Y1246647D01*
X1208904Y1246828D01*
X1208733Y1247018D01*
X1208524Y1247217D01*
X1208286Y1247407D01*
X1208001Y1247578D01*
X1207992D01*
X1207973Y1247588D01*
X1207935Y1247607D01*
X1207887Y1247626D01*
X1207830Y1247654D01*
X1207754Y1247683D01*
X1207669Y1247711D01*
X1207574Y1247740D01*
X1207469Y1247768D01*
X1207355Y1247797D01*
X1207232Y1247825D01*
X1207099Y1247854D01*
X1206795Y1247892D01*
X1206472Y1247901D01*
D02*
G37*
G36*
X1134608Y1247806D02*
X1131730D01*
X1131644Y1247797D01*
X1131549D01*
X1131444Y1247787D01*
X1131330D01*
X1131084Y1247759D01*
X1130836Y1247730D01*
X1130609Y1247683D01*
X1130504Y1247654D01*
X1130409Y1247626D01*
X1130400D01*
X1130390Y1247616D01*
X1130333Y1247597D01*
X1130248Y1247550D01*
X1130143Y1247483D01*
X1130020Y1247398D01*
X1129896Y1247293D01*
X1129782Y1247170D01*
X1129668Y1247018D01*
X1129659Y1246999D01*
X1129621Y1246942D01*
X1129573Y1246847D01*
X1129526Y1246733D01*
X1129469Y1246581D01*
X1129431Y1246410D01*
X1129393Y1246220D01*
X1129383Y1246011D01*
Y1246001D01*
Y1245982D01*
Y1245944D01*
X1129393Y1245887D01*
Y1245830D01*
X1129402Y1245754D01*
X1129440Y1245593D01*
X1129488Y1245403D01*
X1129564Y1245203D01*
X1129668Y1245004D01*
X1129735Y1244909D01*
X1129811Y1244814D01*
Y1244804D01*
X1129830Y1244795D01*
X1129858Y1244766D01*
X1129887Y1244738D01*
X1129934Y1244700D01*
X1129991Y1244662D01*
X1130048Y1244614D01*
X1130124Y1244567D01*
X1130210Y1244519D01*
X1130305Y1244472D01*
X1130400Y1244415D01*
X1130514Y1244377D01*
X1130637Y1244329D01*
X1130770Y1244291D01*
X1130912Y1244263D01*
X1131065Y1244234D01*
X1131055D01*
X1131046Y1244225D01*
X1130998Y1244187D01*
X1130922Y1244139D01*
X1130818Y1244073D01*
X1130713Y1243997D01*
X1130599Y1243902D01*
X1130485Y1243797D01*
X1130381Y1243693D01*
X1130371Y1243683D01*
X1130333Y1243636D01*
X1130267Y1243560D01*
X1130181Y1243455D01*
X1130077Y1243313D01*
X1130020Y1243227D01*
X1129953Y1243132D01*
X1129887Y1243028D01*
X1129811Y1242914D01*
X1129735Y1242790D01*
X1129649Y1242657D01*
X1128861Y1241413D01*
X1130409D01*
X1131340Y1242800D01*
X1131349Y1242809D01*
X1131359Y1242828D01*
X1131387Y1242866D01*
X1131416Y1242923D01*
X1131463Y1242980D01*
X1131501Y1243047D01*
X1131606Y1243199D01*
X1131720Y1243360D01*
X1131834Y1243512D01*
X1131938Y1243645D01*
X1131986Y1243702D01*
X1132024Y1243740D01*
X1132033Y1243750D01*
X1132053Y1243769D01*
X1132091Y1243807D01*
X1132138Y1243845D01*
X1132195Y1243892D01*
X1132262Y1243930D01*
X1132337Y1243978D01*
X1132413Y1244006D01*
X1132423D01*
X1132451Y1244016D01*
X1132499Y1244035D01*
X1132566Y1244044D01*
X1132661Y1244063D01*
X1132775Y1244073D01*
X1132907Y1244082D01*
X1133316D01*
Y1241413D01*
X1134608D01*
Y1247806D01*
D02*
G37*
G36*
X1128158D02*
X1123427D01*
Y1246723D01*
X1126866D01*
Y1245308D01*
X1123664D01*
Y1244225D01*
X1126866D01*
Y1242496D01*
X1123303D01*
Y1241413D01*
X1128158D01*
Y1247806D01*
D02*
G37*
G36*
X1116245D02*
X1111514D01*
Y1246723D01*
X1114953D01*
Y1245308D01*
X1111752D01*
Y1244225D01*
X1114953D01*
Y1242496D01*
X1111391D01*
Y1241413D01*
X1116245D01*
Y1247806D01*
D02*
G37*
G36*
X1110745D02*
X1105672D01*
Y1246723D01*
X1107553D01*
Y1241413D01*
X1108845D01*
Y1246723D01*
X1110745D01*
Y1247806D01*
D02*
G37*
G36*
X1196013Y1247797D02*
X1193467D01*
X1193391Y1247787D01*
X1193211Y1247778D01*
X1193021Y1247768D01*
X1192821Y1247749D01*
X1192622Y1247711D01*
X1192451Y1247673D01*
X1192441D01*
X1192422Y1247664D01*
X1192394Y1247654D01*
X1192356Y1247645D01*
X1192251Y1247597D01*
X1192118Y1247531D01*
X1191966Y1247455D01*
X1191805Y1247350D01*
X1191643Y1247227D01*
X1191491Y1247075D01*
X1191482D01*
X1191472Y1247056D01*
X1191425Y1246999D01*
X1191349Y1246913D01*
X1191263Y1246790D01*
X1191159Y1246638D01*
X1191054Y1246457D01*
X1190959Y1246258D01*
X1190874Y1246039D01*
Y1246030D01*
X1190864Y1246011D01*
X1190855Y1245982D01*
X1190845Y1245935D01*
X1190826Y1245868D01*
X1190807Y1245802D01*
X1190788Y1245716D01*
X1190769Y1245621D01*
X1190750Y1245517D01*
X1190731Y1245403D01*
X1190712Y1245279D01*
X1190693Y1245146D01*
X1190674Y1244861D01*
X1190665Y1244538D01*
Y1244405D01*
X1190674Y1244339D01*
Y1244253D01*
X1190684Y1244168D01*
X1190693Y1244073D01*
X1190712Y1243854D01*
X1190750Y1243626D01*
X1190798Y1243389D01*
X1190864Y1243170D01*
Y1243161D01*
X1190874Y1243142D01*
X1190893Y1243104D01*
X1190912Y1243056D01*
X1190931Y1242999D01*
X1190959Y1242933D01*
X1191035Y1242771D01*
X1191140Y1242591D01*
X1191254Y1242401D01*
X1191387Y1242211D01*
X1191548Y1242040D01*
X1191567Y1242030D01*
X1191605Y1241983D01*
X1191681Y1241926D01*
X1191786Y1241859D01*
X1191919Y1241774D01*
X1192071Y1241688D01*
X1192251Y1241612D01*
X1192451Y1241536D01*
X1192470Y1241527D01*
X1192498D01*
X1192527Y1241517D01*
X1192622Y1241498D01*
X1192755Y1241470D01*
X1192916Y1241441D01*
X1193115Y1241422D01*
X1193334Y1241413D01*
X1193590Y1241403D01*
X1196013D01*
Y1247797D01*
D02*
G37*
G36*
X1119978Y1247911D02*
X1119865D01*
X1119779Y1247901D01*
X1119684Y1247892D01*
X1119570Y1247882D01*
X1119437Y1247863D01*
X1119304Y1247844D01*
X1119009Y1247778D01*
X1118715Y1247683D01*
X1118563Y1247626D01*
X1118430Y1247559D01*
X1118297Y1247474D01*
X1118174Y1247379D01*
X1118164Y1247369D01*
X1118145Y1247350D01*
X1118117Y1247322D01*
X1118079Y1247284D01*
X1118031Y1247227D01*
X1117984Y1247160D01*
X1117927Y1247094D01*
X1117860Y1247008D01*
X1117803Y1246904D01*
X1117746Y1246799D01*
X1117699Y1246685D01*
X1117642Y1246562D01*
X1117604Y1246429D01*
X1117566Y1246286D01*
X1117537Y1246134D01*
X1117528Y1245973D01*
X1118820Y1245925D01*
Y1245935D01*
Y1245944D01*
X1118839Y1246001D01*
X1118858Y1246087D01*
X1118896Y1246191D01*
X1118943Y1246315D01*
X1119009Y1246429D01*
X1119085Y1246533D01*
X1119181Y1246628D01*
X1119190Y1246638D01*
X1119228Y1246666D01*
X1119295Y1246695D01*
X1119380Y1246742D01*
X1119494Y1246780D01*
X1119637Y1246809D01*
X1119808Y1246837D01*
X1119997Y1246847D01*
X1120092D01*
X1120188Y1246837D01*
X1120321Y1246818D01*
X1120453Y1246790D01*
X1120605Y1246742D01*
X1120748Y1246685D01*
X1120872Y1246609D01*
X1120881Y1246600D01*
X1120900Y1246581D01*
X1120938Y1246552D01*
X1120966Y1246505D01*
X1121004Y1246448D01*
X1121042Y1246381D01*
X1121061Y1246305D01*
X1121071Y1246210D01*
Y1246201D01*
Y1246172D01*
X1121061Y1246134D01*
X1121042Y1246077D01*
X1121023Y1246020D01*
X1120995Y1245954D01*
X1120947Y1245897D01*
X1120881Y1245830D01*
X1120872Y1245821D01*
X1120834Y1245792D01*
X1120796Y1245773D01*
X1120758Y1245754D01*
X1120710Y1245726D01*
X1120643Y1245697D01*
X1120577Y1245669D01*
X1120491Y1245631D01*
X1120396Y1245593D01*
X1120283Y1245555D01*
X1120159Y1245517D01*
X1120026Y1245479D01*
X1119874Y1245441D01*
X1119703Y1245393D01*
X1119694D01*
X1119665Y1245384D01*
X1119617Y1245374D01*
X1119551Y1245355D01*
X1119475Y1245336D01*
X1119380Y1245308D01*
X1119181Y1245251D01*
X1118953Y1245184D01*
X1118725Y1245108D01*
X1118506Y1245023D01*
X1118402Y1244985D01*
X1118316Y1244937D01*
X1118307D01*
X1118297Y1244928D01*
X1118240Y1244890D01*
X1118155Y1244842D01*
X1118060Y1244766D01*
X1117946Y1244671D01*
X1117822Y1244557D01*
X1117708Y1244434D01*
X1117604Y1244282D01*
X1117594Y1244263D01*
X1117566Y1244206D01*
X1117518Y1244120D01*
X1117471Y1244006D01*
X1117433Y1243854D01*
X1117385Y1243683D01*
X1117357Y1243484D01*
X1117347Y1243265D01*
Y1243170D01*
X1117366Y1243066D01*
X1117385Y1242933D01*
X1117423Y1242771D01*
X1117480Y1242600D01*
X1117556Y1242410D01*
X1117661Y1242230D01*
Y1242220D01*
X1117670Y1242211D01*
X1117718Y1242154D01*
X1117784Y1242068D01*
X1117879Y1241964D01*
X1118003Y1241850D01*
X1118155Y1241726D01*
X1118326Y1241612D01*
X1118525Y1241517D01*
X1118535D01*
X1118554Y1241508D01*
X1118582Y1241498D01*
X1118620Y1241479D01*
X1118677Y1241460D01*
X1118744Y1241441D01*
X1118820Y1241422D01*
X1118905Y1241403D01*
X1119000Y1241384D01*
X1119105Y1241365D01*
X1119342Y1241327D01*
X1119608Y1241299D01*
X1119912Y1241289D01*
X1120026D01*
X1120111Y1241299D01*
X1120216Y1241308D01*
X1120330Y1241318D01*
X1120453Y1241337D01*
X1120596Y1241356D01*
X1120900Y1241422D01*
X1121052Y1241470D01*
X1121204Y1241527D01*
X1121356Y1241593D01*
X1121508Y1241669D01*
X1121641Y1241755D01*
X1121774Y1241850D01*
X1121783Y1241859D01*
X1121802Y1241878D01*
X1121831Y1241907D01*
X1121878Y1241954D01*
X1121926Y1242011D01*
X1121983Y1242087D01*
X1122049Y1242163D01*
X1122116Y1242268D01*
X1122182Y1242372D01*
X1122249Y1242496D01*
X1122306Y1242629D01*
X1122372Y1242771D01*
X1122429Y1242933D01*
X1122477Y1243104D01*
X1122515Y1243284D01*
X1122543Y1243484D01*
X1121290Y1243607D01*
Y1243598D01*
X1121280Y1243579D01*
Y1243550D01*
X1121271Y1243503D01*
X1121242Y1243389D01*
X1121195Y1243256D01*
X1121137Y1243104D01*
X1121052Y1242942D01*
X1120957Y1242800D01*
X1120843Y1242676D01*
X1120824Y1242667D01*
X1120777Y1242629D01*
X1120701Y1242581D01*
X1120596Y1242534D01*
X1120463Y1242477D01*
X1120302Y1242429D01*
X1120111Y1242391D01*
X1119902Y1242382D01*
X1119798D01*
X1119684Y1242391D01*
X1119551Y1242410D01*
X1119399Y1242448D01*
X1119238Y1242486D01*
X1119095Y1242553D01*
X1118962Y1242638D01*
X1118953Y1242648D01*
X1118915Y1242686D01*
X1118858Y1242743D01*
X1118801Y1242819D01*
X1118744Y1242904D01*
X1118687Y1243009D01*
X1118649Y1243132D01*
X1118639Y1243256D01*
Y1243265D01*
Y1243294D01*
X1118649Y1243341D01*
X1118658Y1243389D01*
X1118696Y1243512D01*
X1118725Y1243579D01*
X1118772Y1243645D01*
X1118782Y1243655D01*
X1118801Y1243674D01*
X1118829Y1243702D01*
X1118877Y1243740D01*
X1118943Y1243788D01*
X1119028Y1243826D01*
X1119124Y1243873D01*
X1119238Y1243921D01*
X1119247D01*
X1119285Y1243940D01*
X1119352Y1243959D01*
X1119456Y1243987D01*
X1119513Y1244006D01*
X1119589Y1244025D01*
X1119675Y1244044D01*
X1119770Y1244073D01*
X1119874Y1244101D01*
X1119997Y1244130D01*
X1120130Y1244168D01*
X1120273Y1244206D01*
X1120283D01*
X1120321Y1244215D01*
X1120368Y1244234D01*
X1120444Y1244253D01*
X1120529Y1244272D01*
X1120624Y1244310D01*
X1120729Y1244339D01*
X1120843Y1244377D01*
X1121080Y1244472D01*
X1121318Y1244576D01*
X1121441Y1244633D01*
X1121546Y1244700D01*
X1121641Y1244766D01*
X1121726Y1244833D01*
X1121736Y1244842D01*
X1121755Y1244861D01*
X1121783Y1244890D01*
X1121812Y1244928D01*
X1121859Y1244975D01*
X1121907Y1245042D01*
X1121964Y1245118D01*
X1122011Y1245194D01*
X1122125Y1245384D01*
X1122211Y1245602D01*
X1122249Y1245726D01*
X1122277Y1245849D01*
X1122296Y1245982D01*
X1122306Y1246125D01*
Y1246134D01*
Y1246144D01*
Y1246172D01*
Y1246210D01*
X1122287Y1246305D01*
X1122268Y1246419D01*
X1122239Y1246562D01*
X1122192Y1246714D01*
X1122125Y1246875D01*
X1122030Y1247037D01*
Y1247046D01*
X1122021Y1247056D01*
X1121983Y1247103D01*
X1121916Y1247179D01*
X1121831Y1247274D01*
X1121717Y1247379D01*
X1121584Y1247493D01*
X1121422Y1247597D01*
X1121242Y1247683D01*
X1121233D01*
X1121214Y1247692D01*
X1121185Y1247702D01*
X1121147Y1247721D01*
X1121099Y1247740D01*
X1121033Y1247759D01*
X1120966Y1247778D01*
X1120891Y1247797D01*
X1120701Y1247835D01*
X1120491Y1247873D01*
X1120245Y1247901D01*
X1119978Y1247911D01*
D02*
G37*
G36*
X1172341Y1232566D02*
X1171049D01*
Y1229726D01*
X1168427Y1232566D01*
X1166689D01*
X1169111Y1230068D01*
X1166565Y1226173D01*
X1168237D01*
X1170013Y1229165D01*
X1171049Y1228101D01*
Y1226173D01*
X1172341D01*
Y1232566D01*
D02*
G37*
G36*
X1199747D02*
X1198427D01*
X1197467Y1228168D01*
X1196299Y1232566D01*
X1194769D01*
X1193639Y1228092D01*
X1192660Y1232566D01*
X1191359D01*
X1192907Y1226173D01*
X1194285D01*
X1195558Y1230951D01*
X1196831Y1226173D01*
X1198246D01*
X1199747Y1232566D01*
D02*
G37*
G36*
X1135610D02*
X1134289D01*
X1133330Y1228168D01*
X1132161Y1232566D01*
X1130632D01*
X1129501Y1228092D01*
X1128523Y1232566D01*
X1127222D01*
X1128770Y1226173D01*
X1130147D01*
X1131420Y1230951D01*
X1132693Y1226173D01*
X1134109D01*
X1135610Y1232566D01*
D02*
G37*
G36*
X1181489Y1232671D02*
X1181375D01*
X1181289Y1232661D01*
X1181194Y1232652D01*
X1181080Y1232633D01*
X1180947Y1232614D01*
X1180805Y1232585D01*
X1180662Y1232547D01*
X1180501Y1232500D01*
X1180349Y1232443D01*
X1180187Y1232376D01*
X1180026Y1232291D01*
X1179874Y1232196D01*
X1179722Y1232091D01*
X1179579Y1231968D01*
X1179570D01*
X1179560Y1231949D01*
X1179503Y1231892D01*
X1179427Y1231797D01*
X1179332Y1231673D01*
X1179228Y1231502D01*
X1179114Y1231303D01*
X1179019Y1231065D01*
X1178924Y1230799D01*
X1180197Y1230495D01*
Y1230505D01*
X1180206Y1230514D01*
Y1230543D01*
X1180216Y1230581D01*
X1180254Y1230666D01*
X1180301Y1230780D01*
X1180358Y1230904D01*
X1180444Y1231037D01*
X1180548Y1231160D01*
X1180672Y1231274D01*
X1180691Y1231284D01*
X1180738Y1231322D01*
X1180814Y1231369D01*
X1180919Y1231426D01*
X1181042Y1231474D01*
X1181194Y1231521D01*
X1181365Y1231559D01*
X1181546Y1231569D01*
X1181612D01*
X1181660Y1231559D01*
X1181726Y1231550D01*
X1181793Y1231540D01*
X1181954Y1231502D01*
X1182144Y1231445D01*
X1182334Y1231350D01*
X1182429Y1231293D01*
X1182524Y1231227D01*
X1182619Y1231151D01*
X1182705Y1231056D01*
Y1231046D01*
X1182724Y1231027D01*
X1182743Y1230999D01*
X1182771Y1230961D01*
X1182809Y1230904D01*
X1182847Y1230837D01*
X1182885Y1230752D01*
X1182923Y1230657D01*
X1182961Y1230552D01*
X1182999Y1230429D01*
X1183037Y1230296D01*
X1183075Y1230144D01*
X1183104Y1229982D01*
X1183123Y1229802D01*
X1183132Y1229612D01*
X1183142Y1229403D01*
Y1229393D01*
Y1229346D01*
Y1229289D01*
X1183132Y1229203D01*
Y1229108D01*
X1183123Y1228994D01*
X1183104Y1228871D01*
X1183085Y1228738D01*
X1183037Y1228453D01*
X1182961Y1228168D01*
X1182914Y1228035D01*
X1182857Y1227902D01*
X1182790Y1227788D01*
X1182714Y1227683D01*
X1182705Y1227674D01*
X1182695Y1227664D01*
X1182667Y1227636D01*
X1182638Y1227607D01*
X1182543Y1227522D01*
X1182410Y1227427D01*
X1182239Y1227332D01*
X1182049Y1227246D01*
X1181821Y1227189D01*
X1181707Y1227180D01*
X1181574Y1227170D01*
X1181527D01*
X1181489Y1227180D01*
X1181394Y1227189D01*
X1181270Y1227208D01*
X1181137Y1227246D01*
X1180985Y1227303D01*
X1180833Y1227389D01*
X1180691Y1227493D01*
X1180672Y1227512D01*
X1180634Y1227560D01*
X1180567Y1227636D01*
X1180482Y1227740D01*
X1180396Y1227892D01*
X1180311Y1228063D01*
X1180225Y1228282D01*
X1180159Y1228529D01*
X1178905Y1228139D01*
Y1228130D01*
X1178914Y1228092D01*
X1178933Y1228035D01*
X1178962Y1227968D01*
X1178990Y1227883D01*
X1179038Y1227778D01*
X1179085Y1227664D01*
X1179133Y1227550D01*
X1179266Y1227294D01*
X1179437Y1227037D01*
X1179636Y1226790D01*
X1179750Y1226676D01*
X1179874Y1226572D01*
X1179883Y1226562D01*
X1179902Y1226553D01*
X1179940Y1226524D01*
X1179997Y1226496D01*
X1180054Y1226458D01*
X1180140Y1226410D01*
X1180225Y1226363D01*
X1180330Y1226325D01*
X1180453Y1226277D01*
X1180577Y1226230D01*
X1180719Y1226182D01*
X1180871Y1226144D01*
X1181023Y1226116D01*
X1181194Y1226087D01*
X1181375Y1226078D01*
X1181565Y1226068D01*
X1181622D01*
X1181688Y1226078D01*
X1181774D01*
X1181888Y1226097D01*
X1182011Y1226116D01*
X1182154Y1226144D01*
X1182306Y1226173D01*
X1182467Y1226220D01*
X1182638Y1226277D01*
X1182809Y1226353D01*
X1182980Y1226429D01*
X1183161Y1226534D01*
X1183332Y1226648D01*
X1183493Y1226781D01*
X1183655Y1226933D01*
X1183664Y1226942D01*
X1183693Y1226971D01*
X1183731Y1227018D01*
X1183778Y1227094D01*
X1183845Y1227180D01*
X1183911Y1227284D01*
X1183987Y1227408D01*
X1184063Y1227550D01*
X1184139Y1227712D01*
X1184215Y1227892D01*
X1184282Y1228092D01*
X1184348Y1228301D01*
X1184396Y1228529D01*
X1184434Y1228776D01*
X1184462Y1229032D01*
X1184472Y1229308D01*
Y1229374D01*
X1184462Y1229460D01*
Y1229574D01*
X1184443Y1229707D01*
X1184424Y1229859D01*
X1184405Y1230030D01*
X1184367Y1230220D01*
X1184329Y1230410D01*
X1184272Y1230619D01*
X1184206Y1230818D01*
X1184130Y1231027D01*
X1184035Y1231227D01*
X1183921Y1231426D01*
X1183797Y1231616D01*
X1183655Y1231787D01*
X1183645Y1231797D01*
X1183617Y1231825D01*
X1183569Y1231873D01*
X1183503Y1231930D01*
X1183417Y1231996D01*
X1183322Y1232063D01*
X1183208Y1232148D01*
X1183075Y1232234D01*
X1182923Y1232310D01*
X1182762Y1232395D01*
X1182581Y1232462D01*
X1182391Y1232538D01*
X1182182Y1232585D01*
X1181964Y1232633D01*
X1181736Y1232661D01*
X1181489Y1232671D01*
D02*
G37*
G36*
X1190694Y1232566D02*
X1188148D01*
X1188072Y1232557D01*
X1187892Y1232547D01*
X1187702Y1232538D01*
X1187502Y1232519D01*
X1187303Y1232481D01*
X1187132Y1232443D01*
X1187122D01*
X1187103Y1232433D01*
X1187075Y1232424D01*
X1187037Y1232414D01*
X1186932Y1232367D01*
X1186799Y1232300D01*
X1186647Y1232224D01*
X1186486Y1232120D01*
X1186324Y1231996D01*
X1186172Y1231844D01*
X1186163D01*
X1186153Y1231825D01*
X1186106Y1231768D01*
X1186030Y1231683D01*
X1185944Y1231559D01*
X1185840Y1231407D01*
X1185735Y1231227D01*
X1185640Y1231027D01*
X1185555Y1230809D01*
Y1230799D01*
X1185545Y1230780D01*
X1185536Y1230752D01*
X1185526Y1230704D01*
X1185507Y1230638D01*
X1185488Y1230571D01*
X1185469Y1230486D01*
X1185450Y1230391D01*
X1185431Y1230286D01*
X1185412Y1230172D01*
X1185393Y1230049D01*
X1185374Y1229916D01*
X1185355Y1229631D01*
X1185346Y1229308D01*
Y1229175D01*
X1185355Y1229108D01*
Y1229023D01*
X1185365Y1228937D01*
X1185374Y1228842D01*
X1185393Y1228624D01*
X1185431Y1228396D01*
X1185479Y1228158D01*
X1185545Y1227940D01*
Y1227930D01*
X1185555Y1227911D01*
X1185574Y1227873D01*
X1185593Y1227826D01*
X1185612Y1227769D01*
X1185640Y1227702D01*
X1185716Y1227541D01*
X1185821Y1227360D01*
X1185935Y1227170D01*
X1186068Y1226980D01*
X1186229Y1226809D01*
X1186248Y1226800D01*
X1186286Y1226752D01*
X1186362Y1226695D01*
X1186467Y1226629D01*
X1186600Y1226543D01*
X1186752Y1226458D01*
X1186932Y1226382D01*
X1187132Y1226306D01*
X1187151Y1226296D01*
X1187179D01*
X1187208Y1226287D01*
X1187303Y1226268D01*
X1187436Y1226239D01*
X1187597Y1226211D01*
X1187797Y1226192D01*
X1188015Y1226182D01*
X1188272Y1226173D01*
X1190694D01*
Y1232566D01*
D02*
G37*
G36*
X1177765Y1232509D02*
X1176473D01*
Y1227256D01*
X1173262D01*
Y1226173D01*
X1177765D01*
Y1232509D01*
D02*
G37*
G36*
X1126556Y1232566D02*
X1124011D01*
X1123935Y1232557D01*
X1123754Y1232547D01*
X1123564Y1232538D01*
X1123365Y1232519D01*
X1123165Y1232481D01*
X1122994Y1232443D01*
X1122985D01*
X1122966Y1232433D01*
X1122937Y1232424D01*
X1122899Y1232414D01*
X1122795Y1232367D01*
X1122662Y1232300D01*
X1122510Y1232224D01*
X1122348Y1232120D01*
X1122187Y1231996D01*
X1122035Y1231844D01*
X1122025D01*
X1122016Y1231825D01*
X1121968Y1231768D01*
X1121892Y1231683D01*
X1121807Y1231559D01*
X1121702Y1231407D01*
X1121598Y1231227D01*
X1121503Y1231027D01*
X1121417Y1230809D01*
Y1230799D01*
X1121408Y1230780D01*
X1121398Y1230752D01*
X1121389Y1230704D01*
X1121370Y1230638D01*
X1121351Y1230571D01*
X1121332Y1230486D01*
X1121313Y1230391D01*
X1121294Y1230286D01*
X1121275Y1230172D01*
X1121256Y1230049D01*
X1121237Y1229916D01*
X1121218Y1229631D01*
X1121208Y1229308D01*
Y1229175D01*
X1121218Y1229108D01*
Y1229023D01*
X1121227Y1228937D01*
X1121237Y1228842D01*
X1121256Y1228624D01*
X1121294Y1228396D01*
X1121341Y1228158D01*
X1121408Y1227940D01*
Y1227930D01*
X1121417Y1227911D01*
X1121436Y1227873D01*
X1121455Y1227826D01*
X1121474Y1227769D01*
X1121503Y1227702D01*
X1121579Y1227541D01*
X1121683Y1227360D01*
X1121797Y1227170D01*
X1121930Y1226980D01*
X1122092Y1226809D01*
X1122111Y1226800D01*
X1122149Y1226752D01*
X1122225Y1226695D01*
X1122329Y1226629D01*
X1122462Y1226543D01*
X1122614Y1226458D01*
X1122795Y1226382D01*
X1122994Y1226306D01*
X1123013Y1226296D01*
X1123042D01*
X1123070Y1226287D01*
X1123165Y1226268D01*
X1123298Y1226239D01*
X1123460Y1226211D01*
X1123659Y1226192D01*
X1123878Y1226182D01*
X1124134Y1226173D01*
X1126556D01*
Y1232566D01*
D02*
G37*
G36*
X1120154D02*
X1118862D01*
Y1226173D01*
X1120154D01*
Y1232566D01*
D02*
G37*
G36*
X1114806Y1232671D02*
X1114739D01*
X1114672Y1232661D01*
X1114568D01*
X1114454Y1232642D01*
X1114312Y1232623D01*
X1114159Y1232595D01*
X1113998Y1232557D01*
X1113818Y1232509D01*
X1113637Y1232452D01*
X1113447Y1232386D01*
X1113267Y1232300D01*
X1113077Y1232196D01*
X1112896Y1232082D01*
X1112716Y1231939D01*
X1112554Y1231787D01*
X1112545Y1231778D01*
X1112516Y1231749D01*
X1112478Y1231692D01*
X1112421Y1231626D01*
X1112355Y1231540D01*
X1112279Y1231426D01*
X1112203Y1231303D01*
X1112127Y1231160D01*
X1112051Y1230989D01*
X1111965Y1230809D01*
X1111899Y1230609D01*
X1111832Y1230391D01*
X1111775Y1230163D01*
X1111737Y1229906D01*
X1111709Y1229640D01*
X1111699Y1229355D01*
Y1229289D01*
X1111709Y1229203D01*
Y1229099D01*
X1111728Y1228966D01*
X1111747Y1228823D01*
X1111766Y1228652D01*
X1111804Y1228472D01*
X1111851Y1228282D01*
X1111908Y1228082D01*
X1111975Y1227883D01*
X1112060Y1227683D01*
X1112155Y1227484D01*
X1112269Y1227284D01*
X1112393Y1227104D01*
X1112545Y1226933D01*
X1112554Y1226923D01*
X1112583Y1226895D01*
X1112630Y1226857D01*
X1112697Y1226800D01*
X1112782Y1226733D01*
X1112887Y1226657D01*
X1113001Y1226581D01*
X1113143Y1226505D01*
X1113295Y1226420D01*
X1113466Y1226344D01*
X1113646Y1226268D01*
X1113846Y1226201D01*
X1114064Y1226144D01*
X1114293Y1226106D01*
X1114539Y1226078D01*
X1114796Y1226068D01*
X1114863D01*
X1114929Y1226078D01*
X1115033D01*
X1115147Y1226097D01*
X1115290Y1226116D01*
X1115442Y1226144D01*
X1115613Y1226173D01*
X1115794Y1226220D01*
X1115974Y1226277D01*
X1116164Y1226353D01*
X1116354Y1226429D01*
X1116534Y1226534D01*
X1116715Y1226648D01*
X1116895Y1226781D01*
X1117057Y1226933D01*
X1117066Y1226942D01*
X1117095Y1226971D01*
X1117133Y1227018D01*
X1117190Y1227094D01*
X1117247Y1227180D01*
X1117323Y1227284D01*
X1117399Y1227417D01*
X1117475Y1227560D01*
X1117551Y1227721D01*
X1117627Y1227902D01*
X1117703Y1228092D01*
X1117760Y1228310D01*
X1117817Y1228538D01*
X1117855Y1228785D01*
X1117883Y1229051D01*
X1117893Y1229327D01*
Y1229422D01*
X1117883Y1229488D01*
Y1229574D01*
X1117874Y1229669D01*
X1117864Y1229783D01*
X1117855Y1229897D01*
X1117826Y1230153D01*
X1117769Y1230429D01*
X1117703Y1230704D01*
X1117608Y1230961D01*
Y1230970D01*
X1117598Y1230980D01*
X1117589Y1231008D01*
X1117570Y1231046D01*
X1117522Y1231141D01*
X1117456Y1231255D01*
X1117370Y1231388D01*
X1117266Y1231540D01*
X1117152Y1231692D01*
X1117019Y1231835D01*
X1117000Y1231854D01*
X1116952Y1231901D01*
X1116876Y1231968D01*
X1116772Y1232053D01*
X1116648Y1232148D01*
X1116506Y1232243D01*
X1116354Y1232338D01*
X1116183Y1232414D01*
X1116173D01*
X1116154Y1232424D01*
X1116126Y1232443D01*
X1116078Y1232452D01*
X1116021Y1232471D01*
X1115955Y1232500D01*
X1115869Y1232519D01*
X1115784Y1232547D01*
X1115584Y1232585D01*
X1115347Y1232633D01*
X1115090Y1232661D01*
X1114806Y1232671D01*
D02*
G37*
G36*
X1202853D02*
X1202739D01*
X1202654Y1232661D01*
X1202559Y1232652D01*
X1202445Y1232642D01*
X1202312Y1232623D01*
X1202179Y1232604D01*
X1201885Y1232538D01*
X1201590Y1232443D01*
X1201438Y1232386D01*
X1201305Y1232319D01*
X1201172Y1232234D01*
X1201049Y1232139D01*
X1201039Y1232129D01*
X1201020Y1232110D01*
X1200992Y1232082D01*
X1200954Y1232044D01*
X1200906Y1231987D01*
X1200859Y1231920D01*
X1200801Y1231854D01*
X1200735Y1231768D01*
X1200678Y1231664D01*
X1200621Y1231559D01*
X1200574Y1231445D01*
X1200517Y1231322D01*
X1200479Y1231189D01*
X1200441Y1231046D01*
X1200412Y1230894D01*
X1200403Y1230733D01*
X1201694Y1230685D01*
Y1230695D01*
Y1230704D01*
X1201713Y1230761D01*
X1201732Y1230847D01*
X1201770Y1230951D01*
X1201818Y1231075D01*
X1201885Y1231189D01*
X1201961Y1231293D01*
X1202056Y1231388D01*
X1202065Y1231398D01*
X1202103Y1231426D01*
X1202169Y1231455D01*
X1202255Y1231502D01*
X1202369Y1231540D01*
X1202512Y1231569D01*
X1202682Y1231597D01*
X1202872Y1231607D01*
X1202967D01*
X1203062Y1231597D01*
X1203195Y1231578D01*
X1203328Y1231550D01*
X1203480Y1231502D01*
X1203623Y1231445D01*
X1203746Y1231369D01*
X1203756Y1231360D01*
X1203775Y1231341D01*
X1203813Y1231312D01*
X1203841Y1231265D01*
X1203879Y1231208D01*
X1203917Y1231141D01*
X1203936Y1231065D01*
X1203946Y1230970D01*
Y1230961D01*
Y1230932D01*
X1203936Y1230894D01*
X1203917Y1230837D01*
X1203898Y1230780D01*
X1203870Y1230714D01*
X1203822Y1230657D01*
X1203756Y1230590D01*
X1203746Y1230581D01*
X1203708Y1230552D01*
X1203670Y1230533D01*
X1203632Y1230514D01*
X1203585Y1230486D01*
X1203518Y1230457D01*
X1203452Y1230429D01*
X1203366Y1230391D01*
X1203271Y1230353D01*
X1203157Y1230315D01*
X1203034Y1230277D01*
X1202901Y1230239D01*
X1202749Y1230201D01*
X1202578Y1230153D01*
X1202569D01*
X1202540Y1230144D01*
X1202493Y1230134D01*
X1202426Y1230115D01*
X1202350Y1230096D01*
X1202255Y1230068D01*
X1202056Y1230011D01*
X1201827Y1229944D01*
X1201600Y1229868D01*
X1201381Y1229783D01*
X1201276Y1229745D01*
X1201191Y1229697D01*
X1201181D01*
X1201172Y1229688D01*
X1201115Y1229650D01*
X1201030Y1229602D01*
X1200935Y1229526D01*
X1200820Y1229431D01*
X1200697Y1229317D01*
X1200583Y1229194D01*
X1200479Y1229042D01*
X1200469Y1229023D01*
X1200441Y1228966D01*
X1200393Y1228880D01*
X1200346Y1228766D01*
X1200308Y1228614D01*
X1200260Y1228443D01*
X1200232Y1228244D01*
X1200222Y1228025D01*
Y1227930D01*
X1200241Y1227826D01*
X1200260Y1227693D01*
X1200298Y1227531D01*
X1200355Y1227360D01*
X1200431Y1227170D01*
X1200536Y1226990D01*
Y1226980D01*
X1200545Y1226971D01*
X1200592Y1226914D01*
X1200659Y1226828D01*
X1200754Y1226724D01*
X1200878Y1226610D01*
X1201030Y1226486D01*
X1201200Y1226372D01*
X1201400Y1226277D01*
X1201410D01*
X1201429Y1226268D01*
X1201457Y1226258D01*
X1201495Y1226239D01*
X1201552Y1226220D01*
X1201618Y1226201D01*
X1201694Y1226182D01*
X1201780Y1226163D01*
X1201875Y1226144D01*
X1201980Y1226125D01*
X1202217Y1226087D01*
X1202483Y1226059D01*
X1202787Y1226049D01*
X1202901D01*
X1202986Y1226059D01*
X1203091Y1226068D01*
X1203205Y1226078D01*
X1203328Y1226097D01*
X1203471Y1226116D01*
X1203775Y1226182D01*
X1203927Y1226230D01*
X1204079Y1226287D01*
X1204231Y1226353D01*
X1204383Y1226429D01*
X1204516Y1226515D01*
X1204649Y1226610D01*
X1204658Y1226619D01*
X1204677Y1226638D01*
X1204706Y1226667D01*
X1204753Y1226714D01*
X1204801Y1226771D01*
X1204858Y1226847D01*
X1204924Y1226923D01*
X1204991Y1227028D01*
X1205057Y1227132D01*
X1205124Y1227256D01*
X1205181Y1227389D01*
X1205247Y1227531D01*
X1205304Y1227693D01*
X1205352Y1227864D01*
X1205390Y1228044D01*
X1205418Y1228244D01*
X1204164Y1228367D01*
Y1228358D01*
X1204155Y1228339D01*
Y1228310D01*
X1204145Y1228263D01*
X1204117Y1228149D01*
X1204069Y1228016D01*
X1204012Y1227864D01*
X1203927Y1227702D01*
X1203832Y1227560D01*
X1203718Y1227436D01*
X1203699Y1227427D01*
X1203651Y1227389D01*
X1203575Y1227341D01*
X1203471Y1227294D01*
X1203338Y1227237D01*
X1203176Y1227189D01*
X1202986Y1227151D01*
X1202777Y1227142D01*
X1202673D01*
X1202559Y1227151D01*
X1202426Y1227170D01*
X1202274Y1227208D01*
X1202113Y1227246D01*
X1201970Y1227313D01*
X1201837Y1227398D01*
X1201827Y1227408D01*
X1201789Y1227446D01*
X1201732Y1227503D01*
X1201675Y1227579D01*
X1201618Y1227664D01*
X1201562Y1227769D01*
X1201524Y1227892D01*
X1201514Y1228016D01*
Y1228025D01*
Y1228054D01*
X1201524Y1228101D01*
X1201533Y1228149D01*
X1201571Y1228272D01*
X1201600Y1228339D01*
X1201647Y1228405D01*
X1201656Y1228415D01*
X1201675Y1228434D01*
X1201704Y1228462D01*
X1201751Y1228500D01*
X1201818Y1228548D01*
X1201904Y1228586D01*
X1201999Y1228633D01*
X1202113Y1228681D01*
X1202122D01*
X1202160Y1228700D01*
X1202226Y1228719D01*
X1202331Y1228747D01*
X1202388Y1228766D01*
X1202464Y1228785D01*
X1202550Y1228804D01*
X1202645Y1228833D01*
X1202749Y1228861D01*
X1202872Y1228890D01*
X1203005Y1228928D01*
X1203148Y1228966D01*
X1203157D01*
X1203195Y1228975D01*
X1203243Y1228994D01*
X1203319Y1229013D01*
X1203404Y1229032D01*
X1203499Y1229070D01*
X1203604Y1229099D01*
X1203718Y1229137D01*
X1203955Y1229232D01*
X1204193Y1229336D01*
X1204316Y1229393D01*
X1204421Y1229460D01*
X1204516Y1229526D01*
X1204601Y1229593D01*
X1204611Y1229602D01*
X1204630Y1229621D01*
X1204658Y1229650D01*
X1204687Y1229688D01*
X1204734Y1229735D01*
X1204782Y1229802D01*
X1204839Y1229878D01*
X1204886Y1229954D01*
X1205000Y1230144D01*
X1205086Y1230362D01*
X1205124Y1230486D01*
X1205152Y1230609D01*
X1205171Y1230742D01*
X1205181Y1230885D01*
Y1230894D01*
Y1230904D01*
Y1230932D01*
Y1230970D01*
X1205162Y1231065D01*
X1205143Y1231179D01*
X1205114Y1231322D01*
X1205067Y1231474D01*
X1205000Y1231635D01*
X1204905Y1231797D01*
Y1231806D01*
X1204896Y1231816D01*
X1204858Y1231863D01*
X1204791Y1231939D01*
X1204706Y1232034D01*
X1204592Y1232139D01*
X1204459Y1232253D01*
X1204297Y1232357D01*
X1204117Y1232443D01*
X1204107D01*
X1204088Y1232452D01*
X1204060Y1232462D01*
X1204022Y1232481D01*
X1203974Y1232500D01*
X1203908Y1232519D01*
X1203841Y1232538D01*
X1203765Y1232557D01*
X1203575Y1232595D01*
X1203366Y1232633D01*
X1203119Y1232661D01*
X1202853Y1232671D01*
D02*
G37*
G36*
X1138716D02*
X1138602D01*
X1138516Y1232661D01*
X1138421Y1232652D01*
X1138307Y1232642D01*
X1138175Y1232623D01*
X1138042Y1232604D01*
X1137747Y1232538D01*
X1137452Y1232443D01*
X1137300Y1232386D01*
X1137168Y1232319D01*
X1137035Y1232234D01*
X1136911Y1232139D01*
X1136902Y1232129D01*
X1136883Y1232110D01*
X1136854Y1232082D01*
X1136816Y1232044D01*
X1136769Y1231987D01*
X1136721Y1231920D01*
X1136664Y1231854D01*
X1136598Y1231768D01*
X1136541Y1231664D01*
X1136484Y1231559D01*
X1136436Y1231445D01*
X1136379Y1231322D01*
X1136341Y1231189D01*
X1136303Y1231046D01*
X1136275Y1230894D01*
X1136265Y1230733D01*
X1137557Y1230685D01*
Y1230695D01*
Y1230704D01*
X1137576Y1230761D01*
X1137595Y1230847D01*
X1137633Y1230951D01*
X1137681Y1231075D01*
X1137747Y1231189D01*
X1137823Y1231293D01*
X1137918Y1231388D01*
X1137927Y1231398D01*
X1137965Y1231426D01*
X1138032Y1231455D01*
X1138118Y1231502D01*
X1138232Y1231540D01*
X1138374Y1231569D01*
X1138545Y1231597D01*
X1138735Y1231607D01*
X1138830D01*
X1138925Y1231597D01*
X1139058Y1231578D01*
X1139191Y1231550D01*
X1139343Y1231502D01*
X1139485Y1231445D01*
X1139609Y1231369D01*
X1139618Y1231360D01*
X1139637Y1231341D01*
X1139675Y1231312D01*
X1139704Y1231265D01*
X1139742Y1231208D01*
X1139780Y1231141D01*
X1139799Y1231065D01*
X1139808Y1230970D01*
Y1230961D01*
Y1230932D01*
X1139799Y1230894D01*
X1139780Y1230837D01*
X1139761Y1230780D01*
X1139732Y1230714D01*
X1139685Y1230657D01*
X1139618Y1230590D01*
X1139609Y1230581D01*
X1139571Y1230552D01*
X1139533Y1230533D01*
X1139495Y1230514D01*
X1139447Y1230486D01*
X1139381Y1230457D01*
X1139314Y1230429D01*
X1139229Y1230391D01*
X1139134Y1230353D01*
X1139020Y1230315D01*
X1138896Y1230277D01*
X1138764Y1230239D01*
X1138612Y1230201D01*
X1138440Y1230153D01*
X1138431D01*
X1138402Y1230144D01*
X1138355Y1230134D01*
X1138288Y1230115D01*
X1138213Y1230096D01*
X1138118Y1230068D01*
X1137918Y1230011D01*
X1137690Y1229944D01*
X1137462Y1229868D01*
X1137243Y1229783D01*
X1137139Y1229745D01*
X1137054Y1229697D01*
X1137044D01*
X1137035Y1229688D01*
X1136978Y1229650D01*
X1136892Y1229602D01*
X1136797Y1229526D01*
X1136683Y1229431D01*
X1136560Y1229317D01*
X1136446Y1229194D01*
X1136341Y1229042D01*
X1136332Y1229023D01*
X1136303Y1228966D01*
X1136256Y1228880D01*
X1136208Y1228766D01*
X1136170Y1228614D01*
X1136123Y1228443D01*
X1136094Y1228244D01*
X1136085Y1228025D01*
Y1227930D01*
X1136104Y1227826D01*
X1136123Y1227693D01*
X1136161Y1227531D01*
X1136218Y1227360D01*
X1136294Y1227170D01*
X1136398Y1226990D01*
Y1226980D01*
X1136408Y1226971D01*
X1136455Y1226914D01*
X1136522Y1226828D01*
X1136617Y1226724D01*
X1136740Y1226610D01*
X1136892Y1226486D01*
X1137063Y1226372D01*
X1137262Y1226277D01*
X1137272D01*
X1137291Y1226268D01*
X1137319Y1226258D01*
X1137357Y1226239D01*
X1137414Y1226220D01*
X1137481Y1226201D01*
X1137557Y1226182D01*
X1137643Y1226163D01*
X1137738Y1226144D01*
X1137842Y1226125D01*
X1138080Y1226087D01*
X1138345Y1226059D01*
X1138650Y1226049D01*
X1138764D01*
X1138849Y1226059D01*
X1138953Y1226068D01*
X1139068Y1226078D01*
X1139191Y1226097D01*
X1139333Y1226116D01*
X1139637Y1226182D01*
X1139789Y1226230D01*
X1139941Y1226287D01*
X1140093Y1226353D01*
X1140245Y1226429D01*
X1140378Y1226515D01*
X1140511Y1226610D01*
X1140521Y1226619D01*
X1140540Y1226638D01*
X1140568Y1226667D01*
X1140616Y1226714D01*
X1140663Y1226771D01*
X1140720Y1226847D01*
X1140787Y1226923D01*
X1140853Y1227028D01*
X1140920Y1227132D01*
X1140986Y1227256D01*
X1141043Y1227389D01*
X1141110Y1227531D01*
X1141167Y1227693D01*
X1141214Y1227864D01*
X1141252Y1228044D01*
X1141281Y1228244D01*
X1140027Y1228367D01*
Y1228358D01*
X1140017Y1228339D01*
Y1228310D01*
X1140008Y1228263D01*
X1139979Y1228149D01*
X1139932Y1228016D01*
X1139875Y1227864D01*
X1139789Y1227702D01*
X1139694Y1227560D01*
X1139580Y1227436D01*
X1139561Y1227427D01*
X1139514Y1227389D01*
X1139438Y1227341D01*
X1139333Y1227294D01*
X1139201Y1227237D01*
X1139039Y1227189D01*
X1138849Y1227151D01*
X1138640Y1227142D01*
X1138536D01*
X1138421Y1227151D01*
X1138288Y1227170D01*
X1138137Y1227208D01*
X1137975Y1227246D01*
X1137832Y1227313D01*
X1137700Y1227398D01*
X1137690Y1227408D01*
X1137652Y1227446D01*
X1137595Y1227503D01*
X1137538Y1227579D01*
X1137481Y1227664D01*
X1137424Y1227769D01*
X1137386Y1227892D01*
X1137376Y1228016D01*
Y1228025D01*
Y1228054D01*
X1137386Y1228101D01*
X1137395Y1228149D01*
X1137433Y1228272D01*
X1137462Y1228339D01*
X1137510Y1228405D01*
X1137519Y1228415D01*
X1137538Y1228434D01*
X1137567Y1228462D01*
X1137614Y1228500D01*
X1137681Y1228548D01*
X1137766Y1228586D01*
X1137861Y1228633D01*
X1137975Y1228681D01*
X1137984D01*
X1138023Y1228700D01*
X1138089Y1228719D01*
X1138194Y1228747D01*
X1138251Y1228766D01*
X1138326Y1228785D01*
X1138412Y1228804D01*
X1138507Y1228833D01*
X1138612Y1228861D01*
X1138735Y1228890D01*
X1138868Y1228928D01*
X1139010Y1228966D01*
X1139020D01*
X1139058Y1228975D01*
X1139106Y1228994D01*
X1139182Y1229013D01*
X1139267Y1229032D01*
X1139362Y1229070D01*
X1139466Y1229099D01*
X1139580Y1229137D01*
X1139818Y1229232D01*
X1140055Y1229336D01*
X1140179Y1229393D01*
X1140283Y1229460D01*
X1140378Y1229526D01*
X1140464Y1229593D01*
X1140473Y1229602D01*
X1140492Y1229621D01*
X1140521Y1229650D01*
X1140549Y1229688D01*
X1140597Y1229735D01*
X1140644Y1229802D01*
X1140701Y1229878D01*
X1140749Y1229954D01*
X1140863Y1230144D01*
X1140948Y1230362D01*
X1140986Y1230486D01*
X1141015Y1230609D01*
X1141034Y1230742D01*
X1141043Y1230885D01*
Y1230894D01*
Y1230904D01*
Y1230932D01*
Y1230970D01*
X1141024Y1231065D01*
X1141005Y1231179D01*
X1140977Y1231322D01*
X1140929Y1231474D01*
X1140863Y1231635D01*
X1140768Y1231797D01*
Y1231806D01*
X1140758Y1231816D01*
X1140720Y1231863D01*
X1140654Y1231939D01*
X1140568Y1232034D01*
X1140454Y1232139D01*
X1140321Y1232253D01*
X1140160Y1232357D01*
X1139979Y1232443D01*
X1139970D01*
X1139951Y1232452D01*
X1139922Y1232462D01*
X1139884Y1232481D01*
X1139837Y1232500D01*
X1139770Y1232519D01*
X1139704Y1232538D01*
X1139628Y1232557D01*
X1139438Y1232595D01*
X1139229Y1232633D01*
X1138982Y1232661D01*
X1138716Y1232671D01*
D02*
G37*
%LPD*%
G36*
X1133316Y1245099D02*
X1132062D01*
X1131872Y1245108D01*
X1131682Y1245118D01*
X1131492Y1245127D01*
X1131406Y1245137D01*
X1131330Y1245146D01*
X1131264Y1245165D01*
X1131217Y1245175D01*
X1131207D01*
X1131179Y1245194D01*
X1131131Y1245213D01*
X1131084Y1245241D01*
X1131017Y1245270D01*
X1130960Y1245317D01*
X1130903Y1245374D01*
X1130846Y1245441D01*
X1130836Y1245450D01*
X1130827Y1245479D01*
X1130808Y1245517D01*
X1130780Y1245574D01*
X1130751Y1245650D01*
X1130732Y1245726D01*
X1130723Y1245821D01*
X1130713Y1245925D01*
Y1245944D01*
Y1245982D01*
X1130723Y1246039D01*
X1130732Y1246115D01*
X1130761Y1246191D01*
X1130789Y1246286D01*
X1130836Y1246372D01*
X1130893Y1246448D01*
X1130903Y1246457D01*
X1130922Y1246476D01*
X1130960Y1246514D01*
X1131017Y1246552D01*
X1131084Y1246600D01*
X1131169Y1246638D01*
X1131264Y1246666D01*
X1131378Y1246695D01*
X1131387D01*
X1131416Y1246704D01*
X1131463D01*
X1131549Y1246714D01*
X1131749D01*
X1131834Y1246723D01*
X1133316D01*
Y1245099D01*
D02*
G37*
G36*
X1194721Y1242486D02*
X1193581D01*
X1193467Y1242496D01*
X1193334D01*
X1193211Y1242515D01*
X1193087Y1242524D01*
X1192983Y1242543D01*
X1192973D01*
X1192926Y1242562D01*
X1192869Y1242581D01*
X1192802Y1242610D01*
X1192717Y1242638D01*
X1192631Y1242686D01*
X1192546Y1242743D01*
X1192470Y1242809D01*
X1192460Y1242819D01*
X1192432Y1242847D01*
X1192394Y1242895D01*
X1192346Y1242961D01*
X1192299Y1243047D01*
X1192232Y1243151D01*
X1192185Y1243275D01*
X1192128Y1243427D01*
Y1243436D01*
X1192118Y1243446D01*
Y1243474D01*
X1192109Y1243503D01*
X1192090Y1243598D01*
X1192061Y1243731D01*
X1192033Y1243902D01*
X1192014Y1244101D01*
X1192004Y1244329D01*
X1191995Y1244595D01*
Y1244605D01*
Y1244624D01*
Y1244662D01*
Y1244719D01*
Y1244776D01*
X1192004Y1244852D01*
X1192014Y1245013D01*
X1192023Y1245194D01*
X1192052Y1245384D01*
X1192080Y1245564D01*
X1192128Y1245726D01*
X1192137Y1245745D01*
X1192156Y1245792D01*
X1192185Y1245868D01*
X1192223Y1245954D01*
X1192280Y1246049D01*
X1192337Y1246153D01*
X1192413Y1246258D01*
X1192498Y1246343D01*
X1192508Y1246353D01*
X1192536Y1246381D01*
X1192593Y1246419D01*
X1192660Y1246467D01*
X1192745Y1246514D01*
X1192840Y1246571D01*
X1192954Y1246609D01*
X1193087Y1246647D01*
X1193096D01*
X1193144Y1246657D01*
X1193220Y1246666D01*
X1193325Y1246685D01*
X1193391D01*
X1193467Y1246695D01*
X1193552D01*
X1193648Y1246704D01*
X1193762D01*
X1193876Y1246714D01*
X1194721D01*
Y1242486D01*
D02*
G37*
G36*
X1189402Y1227256D02*
X1188262D01*
X1188148Y1227265D01*
X1188015D01*
X1187892Y1227284D01*
X1187768Y1227294D01*
X1187664Y1227313D01*
X1187654D01*
X1187607Y1227332D01*
X1187550Y1227351D01*
X1187483Y1227379D01*
X1187398Y1227408D01*
X1187312Y1227455D01*
X1187227Y1227512D01*
X1187151Y1227579D01*
X1187141Y1227588D01*
X1187113Y1227617D01*
X1187075Y1227664D01*
X1187027Y1227731D01*
X1186980Y1227816D01*
X1186913Y1227921D01*
X1186866Y1228044D01*
X1186809Y1228196D01*
Y1228206D01*
X1186799Y1228215D01*
Y1228244D01*
X1186790Y1228272D01*
X1186771Y1228367D01*
X1186742Y1228500D01*
X1186714Y1228671D01*
X1186695Y1228871D01*
X1186685Y1229099D01*
X1186676Y1229365D01*
Y1229374D01*
Y1229393D01*
Y1229431D01*
Y1229488D01*
Y1229545D01*
X1186685Y1229621D01*
X1186695Y1229783D01*
X1186704Y1229963D01*
X1186733Y1230153D01*
X1186761Y1230334D01*
X1186809Y1230495D01*
X1186818Y1230514D01*
X1186837Y1230562D01*
X1186866Y1230638D01*
X1186904Y1230723D01*
X1186961Y1230818D01*
X1187018Y1230923D01*
X1187094Y1231027D01*
X1187179Y1231113D01*
X1187189Y1231122D01*
X1187217Y1231151D01*
X1187274Y1231189D01*
X1187341Y1231236D01*
X1187426Y1231284D01*
X1187521Y1231341D01*
X1187635Y1231379D01*
X1187768Y1231417D01*
X1187778D01*
X1187825Y1231426D01*
X1187901Y1231436D01*
X1188006Y1231455D01*
X1188072D01*
X1188148Y1231464D01*
X1188234D01*
X1188329Y1231474D01*
X1188443D01*
X1188557Y1231483D01*
X1189402D01*
Y1227256D01*
D02*
G37*
G36*
X1125265D02*
X1124125D01*
X1124011Y1227265D01*
X1123878D01*
X1123754Y1227284D01*
X1123631Y1227294D01*
X1123526Y1227313D01*
X1123517D01*
X1123469Y1227332D01*
X1123412Y1227351D01*
X1123346Y1227379D01*
X1123260Y1227408D01*
X1123175Y1227455D01*
X1123089Y1227512D01*
X1123013Y1227579D01*
X1123004Y1227588D01*
X1122975Y1227617D01*
X1122937Y1227664D01*
X1122890Y1227731D01*
X1122842Y1227816D01*
X1122776Y1227921D01*
X1122728Y1228044D01*
X1122671Y1228196D01*
Y1228206D01*
X1122662Y1228215D01*
Y1228244D01*
X1122652Y1228272D01*
X1122633Y1228367D01*
X1122605Y1228500D01*
X1122576Y1228671D01*
X1122557Y1228871D01*
X1122548Y1229099D01*
X1122538Y1229365D01*
Y1229374D01*
Y1229393D01*
Y1229431D01*
Y1229488D01*
Y1229545D01*
X1122548Y1229621D01*
X1122557Y1229783D01*
X1122567Y1229963D01*
X1122595Y1230153D01*
X1122624Y1230334D01*
X1122671Y1230495D01*
X1122681Y1230514D01*
X1122700Y1230562D01*
X1122728Y1230638D01*
X1122766Y1230723D01*
X1122823Y1230818D01*
X1122880Y1230923D01*
X1122956Y1231027D01*
X1123042Y1231113D01*
X1123051Y1231122D01*
X1123080Y1231151D01*
X1123137Y1231189D01*
X1123203Y1231236D01*
X1123289Y1231284D01*
X1123384Y1231341D01*
X1123498Y1231379D01*
X1123631Y1231417D01*
X1123640D01*
X1123688Y1231426D01*
X1123764Y1231436D01*
X1123868Y1231455D01*
X1123935D01*
X1124011Y1231464D01*
X1124096D01*
X1124191Y1231474D01*
X1124305D01*
X1124419Y1231483D01*
X1125265D01*
Y1227256D01*
D02*
G37*
G36*
X1114929Y1231559D02*
X1114995Y1231550D01*
X1115071Y1231540D01*
X1115252Y1231502D01*
X1115461Y1231436D01*
X1115565Y1231388D01*
X1115670Y1231341D01*
X1115784Y1231274D01*
X1115888Y1231198D01*
X1115983Y1231113D01*
X1116078Y1231018D01*
X1116088Y1231008D01*
X1116097Y1230989D01*
X1116126Y1230961D01*
X1116154Y1230913D01*
X1116192Y1230856D01*
X1116230Y1230790D01*
X1116278Y1230704D01*
X1116316Y1230609D01*
X1116363Y1230495D01*
X1116411Y1230372D01*
X1116449Y1230239D01*
X1116487Y1230087D01*
X1116515Y1229925D01*
X1116544Y1229754D01*
X1116553Y1229564D01*
X1116563Y1229365D01*
Y1229355D01*
Y1229317D01*
Y1229260D01*
X1116553Y1229184D01*
X1116544Y1229099D01*
X1116534Y1228994D01*
X1116525Y1228880D01*
X1116496Y1228757D01*
X1116439Y1228491D01*
X1116354Y1228215D01*
X1116297Y1228082D01*
X1116230Y1227949D01*
X1116154Y1227835D01*
X1116069Y1227721D01*
X1116059Y1227712D01*
X1116050Y1227702D01*
X1116021Y1227674D01*
X1115974Y1227636D01*
X1115926Y1227598D01*
X1115869Y1227550D01*
X1115803Y1227493D01*
X1115717Y1227446D01*
X1115537Y1227341D01*
X1115319Y1227256D01*
X1115195Y1227218D01*
X1115071Y1227199D01*
X1114939Y1227180D01*
X1114796Y1227170D01*
X1114720D01*
X1114663Y1227180D01*
X1114606Y1227189D01*
X1114530Y1227199D01*
X1114350Y1227237D01*
X1114150Y1227303D01*
X1114045Y1227351D01*
X1113941Y1227408D01*
X1113837Y1227465D01*
X1113732Y1227541D01*
X1113627Y1227626D01*
X1113532Y1227721D01*
X1113523Y1227731D01*
X1113513Y1227750D01*
X1113485Y1227778D01*
X1113456Y1227826D01*
X1113419Y1227883D01*
X1113371Y1227959D01*
X1113324Y1228035D01*
X1113276Y1228139D01*
X1113238Y1228244D01*
X1113191Y1228367D01*
X1113143Y1228510D01*
X1113105Y1228652D01*
X1113077Y1228814D01*
X1113048Y1228994D01*
X1113039Y1229184D01*
X1113029Y1229384D01*
Y1229393D01*
Y1229431D01*
Y1229488D01*
X1113039Y1229564D01*
X1113048Y1229659D01*
X1113058Y1229764D01*
X1113067Y1229878D01*
X1113086Y1230001D01*
X1113143Y1230267D01*
X1113229Y1230543D01*
X1113286Y1230676D01*
X1113352Y1230799D01*
X1113428Y1230923D01*
X1113513Y1231027D01*
X1113523Y1231037D01*
X1113532Y1231046D01*
X1113561Y1231075D01*
X1113599Y1231113D01*
X1113646Y1231151D01*
X1113713Y1231198D01*
X1113780Y1231246D01*
X1113856Y1231303D01*
X1114036Y1231398D01*
X1114255Y1231483D01*
X1114378Y1231521D01*
X1114511Y1231550D01*
X1114653Y1231559D01*
X1114796Y1231569D01*
X1114872D01*
X1114929Y1231559D01*
D02*
G37*
%LPC*%
G36*
X1057399Y1241841D02*
X1057013D01*
X1056928Y1241826D01*
X1056799Y1241812D01*
X1056671Y1241798D01*
X1056514Y1241784D01*
X1056343Y1241741D01*
X1055986Y1241655D01*
X1055615Y1241512D01*
X1055443Y1241427D01*
X1055258Y1241327D01*
X1055086Y1241212D01*
X1054929Y1241070D01*
X1054915Y1241056D01*
X1054887Y1241041D01*
X1054858Y1240998D01*
X1054801Y1240927D01*
X1054744Y1240856D01*
X1054672Y1240770D01*
X1054587Y1240656D01*
X1054515Y1240542D01*
X1054358Y1240270D01*
X1054230Y1239942D01*
X1054173Y1239756D01*
X1054130Y1239571D01*
X1054116Y1239371D01*
X1054101Y1239157D01*
Y1239043D01*
X1054116Y1238929D01*
X1054130Y1238757D01*
X1054159Y1238572D01*
X1054201Y1238372D01*
X1054258Y1238143D01*
X1054344Y1237929D01*
X1054358Y1237901D01*
X1054387Y1237829D01*
X1054444Y1237715D01*
X1054515Y1237558D01*
X1054630Y1237373D01*
X1054758Y1237158D01*
X1054901Y1236944D01*
X1055086Y1236702D01*
X1055101Y1236687D01*
X1055158Y1236616D01*
X1055244Y1236530D01*
X1055358Y1236388D01*
X1055529Y1236216D01*
X1055743Y1236002D01*
X1056000Y1235760D01*
X1056300Y1235474D01*
X1056314Y1235460D01*
X1056343Y1235445D01*
X1056385Y1235403D01*
X1056442Y1235346D01*
X1056585Y1235203D01*
X1056771Y1235046D01*
X1056956Y1234860D01*
X1057142Y1234689D01*
X1057299Y1234532D01*
X1057356Y1234461D01*
X1057413Y1234403D01*
X1057428Y1234389D01*
X1057456Y1234361D01*
X1057499Y1234304D01*
X1057542Y1234246D01*
X1057670Y1234089D01*
X1057784Y1233904D01*
X1054101D01*
Y1232191D01*
X1060568D01*
Y1232234D01*
X1060554Y1232291D01*
X1060539Y1232348D01*
X1060525Y1232433D01*
X1060511Y1232533D01*
X1060454Y1232776D01*
X1060368Y1233062D01*
X1060254Y1233361D01*
X1060111Y1233690D01*
X1059940Y1234018D01*
Y1234032D01*
X1059911Y1234061D01*
X1059883Y1234104D01*
X1059826Y1234175D01*
X1059769Y1234261D01*
X1059697Y1234375D01*
X1059597Y1234489D01*
X1059483Y1234632D01*
X1059355Y1234789D01*
X1059198Y1234960D01*
X1059026Y1235160D01*
X1058841Y1235360D01*
X1058627Y1235588D01*
X1058398Y1235817D01*
X1058141Y1236074D01*
X1057870Y1236330D01*
X1057856Y1236345D01*
X1057813Y1236388D01*
X1057756Y1236445D01*
X1057670Y1236516D01*
X1057570Y1236616D01*
X1057456Y1236716D01*
X1057199Y1236959D01*
X1056942Y1237215D01*
X1056685Y1237487D01*
X1056571Y1237601D01*
X1056471Y1237715D01*
X1056385Y1237815D01*
X1056328Y1237901D01*
X1056314Y1237929D01*
X1056271Y1238001D01*
X1056200Y1238115D01*
X1056128Y1238258D01*
X1056071Y1238429D01*
X1056000Y1238615D01*
X1055957Y1238814D01*
X1055943Y1239028D01*
Y1239043D01*
Y1239057D01*
Y1239128D01*
X1055957Y1239243D01*
X1055986Y1239371D01*
X1056029Y1239528D01*
X1056086Y1239685D01*
X1056171Y1239842D01*
X1056285Y1239971D01*
X1056300Y1239985D01*
X1056343Y1240028D01*
X1056414Y1240085D01*
X1056528Y1240142D01*
X1056657Y1240199D01*
X1056814Y1240256D01*
X1056985Y1240299D01*
X1057199Y1240313D01*
X1057299D01*
X1057399Y1240299D01*
X1057527Y1240270D01*
X1057684Y1240228D01*
X1057841Y1240156D01*
X1057984Y1240070D01*
X1058127Y1239956D01*
X1058141Y1239942D01*
X1058184Y1239885D01*
X1058241Y1239799D01*
X1058298Y1239685D01*
X1058370Y1239528D01*
X1058427Y1239328D01*
X1058484Y1239100D01*
X1058512Y1238814D01*
X1060354Y1238986D01*
Y1239000D01*
X1060340Y1239057D01*
Y1239128D01*
X1060311Y1239228D01*
X1060297Y1239357D01*
X1060254Y1239500D01*
X1060211Y1239657D01*
X1060168Y1239828D01*
X1060040Y1240185D01*
X1059854Y1240556D01*
X1059754Y1240727D01*
X1059626Y1240884D01*
X1059497Y1241041D01*
X1059340Y1241170D01*
X1059326Y1241184D01*
X1059297Y1241198D01*
X1059255Y1241227D01*
X1059183Y1241270D01*
X1059098Y1241327D01*
X1058998Y1241384D01*
X1058869Y1241441D01*
X1058741Y1241512D01*
X1058584Y1241569D01*
X1058427Y1241626D01*
X1058056Y1241741D01*
X1057627Y1241812D01*
X1057399Y1241841D01*
D02*
G37*
G36*
X1042467D02*
X1042082D01*
X1041996Y1241826D01*
X1041868Y1241812D01*
X1041740Y1241798D01*
X1041582Y1241784D01*
X1041411Y1241741D01*
X1041054Y1241655D01*
X1040683Y1241512D01*
X1040512Y1241427D01*
X1040326Y1241327D01*
X1040155Y1241212D01*
X1039998Y1241070D01*
X1039984Y1241056D01*
X1039955Y1241041D01*
X1039927Y1240998D01*
X1039870Y1240927D01*
X1039812Y1240856D01*
X1039741Y1240770D01*
X1039655Y1240656D01*
X1039584Y1240542D01*
X1039427Y1240270D01*
X1039298Y1239942D01*
X1039241Y1239756D01*
X1039199Y1239571D01*
X1039184Y1239371D01*
X1039170Y1239157D01*
Y1239043D01*
X1039184Y1238929D01*
X1039199Y1238757D01*
X1039227Y1238572D01*
X1039270Y1238372D01*
X1039327Y1238143D01*
X1039413Y1237929D01*
X1039427Y1237901D01*
X1039455Y1237829D01*
X1039513Y1237715D01*
X1039584Y1237558D01*
X1039698Y1237373D01*
X1039827Y1237158D01*
X1039969Y1236944D01*
X1040155Y1236702D01*
X1040169Y1236687D01*
X1040226Y1236616D01*
X1040312Y1236530D01*
X1040426Y1236388D01*
X1040598Y1236216D01*
X1040812Y1236002D01*
X1041069Y1235760D01*
X1041368Y1235474D01*
X1041383Y1235460D01*
X1041411Y1235445D01*
X1041454Y1235403D01*
X1041511Y1235346D01*
X1041654Y1235203D01*
X1041839Y1235046D01*
X1042025Y1234860D01*
X1042211Y1234689D01*
X1042368Y1234532D01*
X1042425Y1234461D01*
X1042482Y1234403D01*
X1042496Y1234389D01*
X1042525Y1234361D01*
X1042567Y1234304D01*
X1042610Y1234246D01*
X1042739Y1234089D01*
X1042853Y1233904D01*
X1039170D01*
Y1232191D01*
X1045637D01*
Y1232234D01*
X1045622Y1232291D01*
X1045608Y1232348D01*
X1045594Y1232433D01*
X1045579Y1232533D01*
X1045522Y1232776D01*
X1045437Y1233062D01*
X1045322Y1233361D01*
X1045180Y1233690D01*
X1045008Y1234018D01*
Y1234032D01*
X1044980Y1234061D01*
X1044951Y1234104D01*
X1044894Y1234175D01*
X1044837Y1234261D01*
X1044766Y1234375D01*
X1044666Y1234489D01*
X1044552Y1234632D01*
X1044423Y1234789D01*
X1044266Y1234960D01*
X1044095Y1235160D01*
X1043909Y1235360D01*
X1043695Y1235588D01*
X1043467Y1235817D01*
X1043210Y1236074D01*
X1042939Y1236330D01*
X1042924Y1236345D01*
X1042881Y1236388D01*
X1042824Y1236445D01*
X1042739Y1236516D01*
X1042639Y1236616D01*
X1042525Y1236716D01*
X1042268Y1236959D01*
X1042011Y1237215D01*
X1041754Y1237487D01*
X1041640Y1237601D01*
X1041540Y1237715D01*
X1041454Y1237815D01*
X1041397Y1237901D01*
X1041383Y1237929D01*
X1041340Y1238001D01*
X1041268Y1238115D01*
X1041197Y1238258D01*
X1041140Y1238429D01*
X1041069Y1238615D01*
X1041026Y1238814D01*
X1041012Y1239028D01*
Y1239043D01*
Y1239057D01*
Y1239128D01*
X1041026Y1239243D01*
X1041054Y1239371D01*
X1041097Y1239528D01*
X1041154Y1239685D01*
X1041240Y1239842D01*
X1041354Y1239971D01*
X1041368Y1239985D01*
X1041411Y1240028D01*
X1041482Y1240085D01*
X1041597Y1240142D01*
X1041725Y1240199D01*
X1041882Y1240256D01*
X1042054Y1240299D01*
X1042268Y1240313D01*
X1042368D01*
X1042467Y1240299D01*
X1042596Y1240270D01*
X1042753Y1240228D01*
X1042910Y1240156D01*
X1043053Y1240070D01*
X1043195Y1239956D01*
X1043210Y1239942D01*
X1043253Y1239885D01*
X1043310Y1239799D01*
X1043367Y1239685D01*
X1043438Y1239528D01*
X1043495Y1239328D01*
X1043552Y1239100D01*
X1043581Y1238814D01*
X1045422Y1238986D01*
Y1239000D01*
X1045408Y1239057D01*
Y1239128D01*
X1045380Y1239228D01*
X1045365Y1239357D01*
X1045322Y1239500D01*
X1045280Y1239657D01*
X1045237Y1239828D01*
X1045108Y1240185D01*
X1044923Y1240556D01*
X1044823Y1240727D01*
X1044694Y1240884D01*
X1044566Y1241041D01*
X1044409Y1241170D01*
X1044395Y1241184D01*
X1044366Y1241198D01*
X1044323Y1241227D01*
X1044252Y1241270D01*
X1044166Y1241327D01*
X1044066Y1241384D01*
X1043938Y1241441D01*
X1043809Y1241512D01*
X1043652Y1241569D01*
X1043495Y1241626D01*
X1043124Y1241741D01*
X1042696Y1241812D01*
X1042467Y1241841D01*
D02*
G37*
G36*
X1080738Y1241712D02*
X1078797D01*
Y1233818D01*
X1073972D01*
Y1232191D01*
X1080738D01*
Y1241712D01*
D02*
G37*
G36*
X1034102Y1241841D02*
X1032546D01*
Y1235731D01*
X1031347D01*
Y1234118D01*
X1032546D01*
Y1232191D01*
X1034331D01*
Y1234118D01*
X1038256D01*
Y1235717D01*
X1034102Y1241841D01*
D02*
G37*
G36*
X1049748D02*
X1049619D01*
X1049519Y1241826D01*
X1049405Y1241812D01*
X1049262Y1241784D01*
X1049120Y1241755D01*
X1048948Y1241712D01*
X1048777Y1241669D01*
X1048606Y1241598D01*
X1048420Y1241512D01*
X1048234Y1241427D01*
X1048063Y1241298D01*
X1047878Y1241170D01*
X1047721Y1241013D01*
X1047564Y1240841D01*
X1047549Y1240827D01*
X1047521Y1240784D01*
X1047478Y1240713D01*
X1047421Y1240613D01*
X1047349Y1240484D01*
X1047264Y1240327D01*
X1047178Y1240128D01*
X1047093Y1239913D01*
X1047007Y1239657D01*
X1046921Y1239371D01*
X1046836Y1239043D01*
X1046764Y1238686D01*
X1046707Y1238300D01*
X1046664Y1237886D01*
X1046636Y1237430D01*
X1046621Y1236930D01*
Y1236673D01*
X1046636Y1236488D01*
X1046650Y1236259D01*
X1046679Y1236002D01*
X1046707Y1235717D01*
X1046736Y1235417D01*
X1046850Y1234774D01*
X1046936Y1234446D01*
X1047021Y1234118D01*
X1047135Y1233818D01*
X1047264Y1233518D01*
X1047407Y1233247D01*
X1047578Y1233005D01*
X1047592Y1232990D01*
X1047606Y1232962D01*
X1047663Y1232919D01*
X1047721Y1232847D01*
X1047792Y1232776D01*
X1047892Y1232705D01*
X1048006Y1232605D01*
X1048135Y1232519D01*
X1048277Y1232433D01*
X1048449Y1232348D01*
X1048620Y1232262D01*
X1048820Y1232191D01*
X1049034Y1232119D01*
X1049248Y1232077D01*
X1049491Y1232048D01*
X1049748Y1232034D01*
X1049805D01*
X1049890Y1232048D01*
X1049976D01*
X1050105Y1232062D01*
X1050233Y1232091D01*
X1050390Y1232119D01*
X1050561Y1232162D01*
X1050733Y1232219D01*
X1050918Y1232291D01*
X1051118Y1232376D01*
X1051304Y1232491D01*
X1051489Y1232605D01*
X1051675Y1232747D01*
X1051846Y1232919D01*
X1052017Y1233104D01*
X1052032Y1233119D01*
X1052060Y1233161D01*
X1052103Y1233219D01*
X1052146Y1233318D01*
X1052217Y1233433D01*
X1052289Y1233590D01*
X1052360Y1233775D01*
X1052446Y1233989D01*
X1052531Y1234232D01*
X1052603Y1234518D01*
X1052674Y1234832D01*
X1052745Y1235174D01*
X1052788Y1235560D01*
X1052831Y1235988D01*
X1052860Y1236445D01*
X1052874Y1236944D01*
Y1237201D01*
X1052860Y1237387D01*
X1052845Y1237615D01*
X1052817Y1237872D01*
X1052788Y1238143D01*
X1052760Y1238457D01*
X1052645Y1239085D01*
X1052574Y1239414D01*
X1052474Y1239742D01*
X1052374Y1240056D01*
X1052246Y1240342D01*
X1052103Y1240613D01*
X1051932Y1240856D01*
X1051917Y1240870D01*
X1051889Y1240898D01*
X1051846Y1240941D01*
X1051789Y1241013D01*
X1051703Y1241084D01*
X1051603Y1241170D01*
X1051489Y1241255D01*
X1051361Y1241355D01*
X1051218Y1241441D01*
X1051047Y1241526D01*
X1050875Y1241612D01*
X1050676Y1241684D01*
X1050461Y1241755D01*
X1050247Y1241798D01*
X1050005Y1241826D01*
X1049748Y1241841D01*
D02*
G37*
G36*
X1069247Y1241955D02*
X1069076D01*
X1068947Y1241941D01*
X1068804Y1241926D01*
X1068633Y1241912D01*
X1068433Y1241883D01*
X1068233Y1241855D01*
X1067791Y1241755D01*
X1067348Y1241612D01*
X1067120Y1241526D01*
X1066920Y1241427D01*
X1066720Y1241298D01*
X1066535Y1241155D01*
X1066520Y1241141D01*
X1066492Y1241113D01*
X1066449Y1241070D01*
X1066392Y1241013D01*
X1066321Y1240927D01*
X1066249Y1240827D01*
X1066164Y1240727D01*
X1066064Y1240599D01*
X1065978Y1240442D01*
X1065892Y1240285D01*
X1065821Y1240113D01*
X1065735Y1239928D01*
X1065678Y1239728D01*
X1065621Y1239514D01*
X1065578Y1239285D01*
X1065564Y1239043D01*
X1067505Y1238971D01*
Y1238986D01*
Y1239000D01*
X1067534Y1239085D01*
X1067563Y1239214D01*
X1067620Y1239371D01*
X1067691Y1239557D01*
X1067791Y1239728D01*
X1067905Y1239885D01*
X1068048Y1240028D01*
X1068062Y1240042D01*
X1068119Y1240085D01*
X1068219Y1240128D01*
X1068348Y1240199D01*
X1068519Y1240256D01*
X1068733Y1240299D01*
X1068990Y1240342D01*
X1069276Y1240356D01*
X1069418D01*
X1069561Y1240342D01*
X1069761Y1240313D01*
X1069961Y1240270D01*
X1070189Y1240199D01*
X1070403Y1240113D01*
X1070589Y1239999D01*
X1070603Y1239985D01*
X1070632Y1239956D01*
X1070689Y1239913D01*
X1070732Y1239842D01*
X1070789Y1239756D01*
X1070846Y1239657D01*
X1070874Y1239542D01*
X1070889Y1239400D01*
Y1239385D01*
Y1239342D01*
X1070874Y1239285D01*
X1070846Y1239200D01*
X1070817Y1239114D01*
X1070774Y1239014D01*
X1070703Y1238929D01*
X1070603Y1238829D01*
X1070589Y1238814D01*
X1070532Y1238772D01*
X1070475Y1238743D01*
X1070418Y1238714D01*
X1070346Y1238672D01*
X1070246Y1238629D01*
X1070146Y1238586D01*
X1070018Y1238529D01*
X1069875Y1238472D01*
X1069704Y1238415D01*
X1069518Y1238357D01*
X1069318Y1238300D01*
X1069090Y1238243D01*
X1068833Y1238172D01*
X1068819D01*
X1068776Y1238158D01*
X1068705Y1238143D01*
X1068605Y1238115D01*
X1068491Y1238086D01*
X1068348Y1238044D01*
X1068048Y1237958D01*
X1067705Y1237858D01*
X1067363Y1237744D01*
X1067034Y1237615D01*
X1066877Y1237558D01*
X1066749Y1237487D01*
X1066735D01*
X1066720Y1237473D01*
X1066635Y1237415D01*
X1066506Y1237344D01*
X1066364Y1237230D01*
X1066192Y1237087D01*
X1066007Y1236916D01*
X1065835Y1236730D01*
X1065678Y1236502D01*
X1065664Y1236473D01*
X1065621Y1236388D01*
X1065550Y1236259D01*
X1065479Y1236088D01*
X1065421Y1235859D01*
X1065350Y1235602D01*
X1065307Y1235303D01*
X1065293Y1234974D01*
Y1234832D01*
X1065322Y1234675D01*
X1065350Y1234475D01*
X1065407Y1234232D01*
X1065493Y1233975D01*
X1065607Y1233690D01*
X1065764Y1233418D01*
Y1233404D01*
X1065778Y1233390D01*
X1065850Y1233304D01*
X1065950Y1233176D01*
X1066092Y1233019D01*
X1066278Y1232847D01*
X1066506Y1232662D01*
X1066763Y1232491D01*
X1067063Y1232348D01*
X1067077D01*
X1067106Y1232334D01*
X1067149Y1232319D01*
X1067206Y1232291D01*
X1067291Y1232262D01*
X1067391Y1232234D01*
X1067505Y1232205D01*
X1067634Y1232177D01*
X1067777Y1232148D01*
X1067934Y1232119D01*
X1068291Y1232062D01*
X1068690Y1232020D01*
X1069147Y1232005D01*
X1069318D01*
X1069447Y1232020D01*
X1069604Y1232034D01*
X1069775Y1232048D01*
X1069961Y1232077D01*
X1070175Y1232105D01*
X1070632Y1232205D01*
X1070860Y1232277D01*
X1071088Y1232362D01*
X1071317Y1232462D01*
X1071545Y1232576D01*
X1071745Y1232705D01*
X1071945Y1232847D01*
X1071959Y1232862D01*
X1071988Y1232890D01*
X1072031Y1232933D01*
X1072102Y1233005D01*
X1072173Y1233090D01*
X1072259Y1233204D01*
X1072359Y1233318D01*
X1072459Y1233475D01*
X1072559Y1233633D01*
X1072659Y1233818D01*
X1072744Y1234018D01*
X1072844Y1234232D01*
X1072930Y1234475D01*
X1073001Y1234732D01*
X1073058Y1235003D01*
X1073101Y1235303D01*
X1071217Y1235488D01*
Y1235474D01*
X1071203Y1235445D01*
Y1235403D01*
X1071188Y1235331D01*
X1071146Y1235160D01*
X1071074Y1234960D01*
X1070989Y1234732D01*
X1070860Y1234489D01*
X1070717Y1234275D01*
X1070546Y1234089D01*
X1070518Y1234075D01*
X1070446Y1234018D01*
X1070332Y1233947D01*
X1070175Y1233875D01*
X1069975Y1233790D01*
X1069732Y1233718D01*
X1069447Y1233661D01*
X1069133Y1233647D01*
X1068976D01*
X1068804Y1233661D01*
X1068605Y1233690D01*
X1068376Y1233747D01*
X1068134Y1233804D01*
X1067919Y1233904D01*
X1067720Y1234032D01*
X1067705Y1234046D01*
X1067648Y1234104D01*
X1067563Y1234189D01*
X1067477Y1234304D01*
X1067391Y1234432D01*
X1067306Y1234589D01*
X1067249Y1234774D01*
X1067234Y1234960D01*
Y1234974D01*
Y1235017D01*
X1067249Y1235089D01*
X1067263Y1235160D01*
X1067320Y1235346D01*
X1067363Y1235445D01*
X1067434Y1235545D01*
X1067448Y1235560D01*
X1067477Y1235588D01*
X1067520Y1235631D01*
X1067591Y1235688D01*
X1067691Y1235760D01*
X1067820Y1235817D01*
X1067962Y1235888D01*
X1068134Y1235959D01*
X1068148D01*
X1068205Y1235988D01*
X1068305Y1236016D01*
X1068462Y1236059D01*
X1068548Y1236088D01*
X1068662Y1236116D01*
X1068790Y1236145D01*
X1068933Y1236188D01*
X1069090Y1236231D01*
X1069276Y1236273D01*
X1069475Y1236330D01*
X1069690Y1236388D01*
X1069704D01*
X1069761Y1236402D01*
X1069832Y1236430D01*
X1069947Y1236459D01*
X1070075Y1236488D01*
X1070218Y1236545D01*
X1070375Y1236587D01*
X1070546Y1236645D01*
X1070903Y1236787D01*
X1071260Y1236944D01*
X1071445Y1237030D01*
X1071602Y1237130D01*
X1071745Y1237230D01*
X1071874Y1237330D01*
X1071888Y1237344D01*
X1071916Y1237373D01*
X1071959Y1237415D01*
X1072002Y1237473D01*
X1072073Y1237544D01*
X1072145Y1237644D01*
X1072231Y1237758D01*
X1072302Y1237872D01*
X1072473Y1238158D01*
X1072602Y1238486D01*
X1072659Y1238672D01*
X1072701Y1238857D01*
X1072730Y1239057D01*
X1072744Y1239271D01*
Y1239285D01*
Y1239300D01*
Y1239342D01*
Y1239400D01*
X1072716Y1239542D01*
X1072687Y1239714D01*
X1072644Y1239928D01*
X1072573Y1240156D01*
X1072473Y1240399D01*
X1072330Y1240641D01*
Y1240656D01*
X1072316Y1240670D01*
X1072259Y1240741D01*
X1072159Y1240856D01*
X1072031Y1240998D01*
X1071859Y1241155D01*
X1071659Y1241327D01*
X1071417Y1241484D01*
X1071146Y1241612D01*
X1071131D01*
X1071103Y1241626D01*
X1071060Y1241641D01*
X1071003Y1241669D01*
X1070931Y1241698D01*
X1070832Y1241726D01*
X1070732Y1241755D01*
X1070617Y1241784D01*
X1070332Y1241841D01*
X1070018Y1241898D01*
X1069647Y1241941D01*
X1069247Y1241955D01*
D02*
G37*
%LPD*%
G36*
X1036529Y1235731D02*
X1034331D01*
Y1239000D01*
X1036529Y1235731D01*
D02*
G37*
G36*
X1049876Y1240299D02*
X1049948Y1240285D01*
X1050047Y1240256D01*
X1050147Y1240228D01*
X1050247Y1240170D01*
X1050347Y1240099D01*
X1050361Y1240085D01*
X1050390Y1240056D01*
X1050433Y1239999D01*
X1050490Y1239928D01*
X1050561Y1239814D01*
X1050618Y1239685D01*
X1050690Y1239528D01*
X1050747Y1239328D01*
Y1239314D01*
X1050761Y1239300D01*
Y1239257D01*
X1050775Y1239185D01*
X1050790Y1239114D01*
X1050804Y1239014D01*
X1050818Y1238900D01*
X1050833Y1238757D01*
X1050861Y1238600D01*
X1050875Y1238429D01*
X1050890Y1238229D01*
X1050904Y1238015D01*
X1050918Y1237772D01*
Y1237515D01*
X1050932Y1237230D01*
Y1236930D01*
Y1236916D01*
Y1236859D01*
Y1236773D01*
Y1236659D01*
Y1236516D01*
X1050918Y1236359D01*
Y1236188D01*
Y1236002D01*
X1050890Y1235617D01*
X1050861Y1235231D01*
X1050847Y1235046D01*
X1050833Y1234889D01*
X1050804Y1234732D01*
X1050775Y1234603D01*
X1050761Y1234575D01*
X1050747Y1234503D01*
X1050704Y1234389D01*
X1050661Y1234261D01*
X1050590Y1234118D01*
X1050518Y1233989D01*
X1050433Y1233861D01*
X1050347Y1233761D01*
X1050333Y1233747D01*
X1050304Y1233733D01*
X1050247Y1233704D01*
X1050176Y1233661D01*
X1050090Y1233618D01*
X1049990Y1233590D01*
X1049876Y1233576D01*
X1049748Y1233561D01*
X1049691D01*
X1049633Y1233576D01*
X1049548Y1233590D01*
X1049362Y1233647D01*
X1049262Y1233690D01*
X1049162Y1233761D01*
X1049148Y1233775D01*
X1049120Y1233804D01*
X1049077Y1233861D01*
X1049020Y1233932D01*
X1048948Y1234046D01*
X1048891Y1234175D01*
X1048820Y1234346D01*
X1048763Y1234532D01*
Y1234546D01*
X1048748Y1234560D01*
Y1234603D01*
X1048734Y1234675D01*
X1048720Y1234746D01*
X1048706Y1234846D01*
X1048677Y1234960D01*
X1048663Y1235089D01*
X1048649Y1235246D01*
X1048620Y1235431D01*
X1048606Y1235617D01*
X1048591Y1235845D01*
X1048577Y1236074D01*
Y1236345D01*
X1048563Y1236630D01*
Y1236930D01*
Y1236944D01*
Y1237001D01*
Y1237087D01*
Y1237201D01*
Y1237344D01*
X1048577Y1237501D01*
Y1237672D01*
Y1237858D01*
X1048606Y1238229D01*
X1048634Y1238615D01*
X1048649Y1238800D01*
X1048677Y1238957D01*
X1048706Y1239114D01*
X1048734Y1239243D01*
Y1239257D01*
X1048748Y1239271D01*
X1048763Y1239342D01*
X1048805Y1239457D01*
X1048848Y1239585D01*
X1048920Y1239728D01*
X1048991Y1239871D01*
X1049077Y1239999D01*
X1049162Y1240099D01*
X1049177Y1240113D01*
X1049205Y1240128D01*
X1049262Y1240170D01*
X1049334Y1240213D01*
X1049419Y1240242D01*
X1049519Y1240285D01*
X1049633Y1240299D01*
X1049748Y1240313D01*
X1049805D01*
X1049876Y1240299D01*
D02*
G37*
D12*
X1628800Y1134000D02*
Y1233000D01*
X1583800D02*
X1628800D01*
X1583800Y1134000D02*
Y1233000D01*
Y1134000D02*
X1628800D01*
X1661100Y1134000D02*
Y1233000D01*
Y1134000D02*
X1706100D01*
Y1233000D01*
X1661100D02*
X1706100D01*
X1700786Y1250057D02*
X1703452D01*
X1702119D01*
Y1243393D01*
X1703452Y1242060D01*
X1704785D01*
X1706118Y1243393D01*
X1698121Y1242060D02*
X1695455D01*
X1696788D01*
Y1250057D01*
X1698121Y1248725D01*
X1691456D02*
X1690123Y1250057D01*
X1687457D01*
X1686124Y1248725D01*
Y1243393D01*
X1687457Y1242060D01*
X1690123D01*
X1691456Y1243393D01*
Y1248725D01*
X1678127Y1242060D02*
X1683459D01*
X1678127Y1247392D01*
Y1248725D01*
X1679460Y1250057D01*
X1682126D01*
X1683459Y1248725D01*
X1623570Y1250057D02*
X1626236D01*
X1624903D01*
Y1243393D01*
X1626236Y1242060D01*
X1627569D01*
X1628902Y1243393D01*
X1620905Y1242060D02*
X1618239D01*
X1619572D01*
Y1250057D01*
X1620905Y1248725D01*
X1614240D02*
X1612907Y1250057D01*
X1610241D01*
X1608908Y1248725D01*
Y1243393D01*
X1610241Y1242060D01*
X1612907D01*
X1614240Y1243393D01*
Y1248725D01*
X1606243Y1242060D02*
X1603577D01*
X1604910D01*
Y1250057D01*
X1606243Y1248725D01*
M02*
