M48
;Layer_Color=9474304
;FILE_FORMAT=4:4
METRIC,LZ
;TYPE=PLATED
T01F00S00C0.3000
T02F00S00C0.7000
T03F00S00C1.3300
T04F00S00C3.0000
%
T01
X0107823Y0100711
X01078243Y01014844
Y01022464
Y01030084
Y01037704
Y01045324
Y01052944
Y01060564
Y01068184
Y01075804
Y01083424
Y01091044
Y01098664
Y01106284
X01085863
X01085825Y01126566
X01078205
Y01134186
X0107823Y0114173
Y0114935
Y0115697
Y0116459
Y0117221
Y0117983
Y0118745
X010922Y011811
X011049
Y011684
Y011557
Y01143
X011176
Y011303
X011303
Y011176
X01143
Y011049
X011557
Y010922
X01143
X011303
Y011049
Y010668
X01143
X011557
X0116205Y0104902
X0116206Y0103251
X011684Y01016
Y010033
X011557
X01143
X011303
X011176
Y01016
X011049
Y010287
Y010414
Y010541
Y010668
X011176
X0112649Y0102616
X011049Y010033
X010922
X01064273Y01047788
X011049Y011303
X010922Y01143
Y011557
Y011684
X011557Y011811
X011684
X011811Y01143
X011684Y011303
X011557
Y01143
X01143
X0117856Y0112014
X0117094Y0110998
X0118872
X011938Y011303
Y01143
X0120015Y0109093
X0120777Y0109601
X0122048Y0107822
Y0106722
Y0105622
Y0104522
X0123148
X0124248
X0125348
Y0105622
X0124248
X0123148
Y0106722
X0124248
X0125348
Y0107822
X0124248
X0123148
X0124206Y0110109
X0128524Y0110173
X01275Y0105572
X0127254Y0102489
X0128124Y0101473
X01213485
X0133731Y0103632
X0134493
X0135255
Y0107442
X0134493
X0133731
X0133858Y0111252
X0133223Y0112014
X0135636Y0113792
X0136652
X0136906Y0115697
X0136017Y0116332
X0136906Y0118999
X0137668
X013843
X0139446Y0112649
X0140716Y0113284
X01413505Y0111308
X0137922Y0111252
X0138938Y0109855
X0125857Y0113665
X015748Y011557
Y011684
Y011811
X015621Y011684
X015875Y011557
X015748Y011938
Y012065
X015621Y011938
X015494
Y012065
X015367Y011938
X013843Y0119761
Y0120523
Y0121285
X0137668Y0120523
Y0119761
X0136906
X0129921Y0122936
X012954Y0123444
X0129921Y0123952
X012954Y012446
X0127381
X0127762Y0123952
X0127381Y0123444
X0127762Y0122936
X0120523Y0123571
X011938Y012446
X011811
Y012319
X011684
Y012446
X011557
Y012319
X01143
Y012446
X011303
Y012319
X011176
Y012446
X011049
Y012319
Y012192
X010922
Y012319
Y012446
X0107823Y0124841
Y0124079
Y0123317
Y0122555
Y0121793
Y0121031
Y0120269
Y0119507
X010922Y011938
Y012065
X01143Y012192
Y011938
X011811
Y012065
T02
X016008Y011535
Y011735
X016891Y011735
Y011535
Y011935
Y012135
X016008Y012135
Y011935
T03
X012363Y011766
X015217Y010814
Y010306
X012363Y012274
T04
X017242Y01056
X010338Y01202
M30
