G04*
G04 #@! TF.GenerationSoftware,Altium Limited,Altium Designer,24.7.2 (38)*
G04*
G04 Layer_Color=2752767*
%FSLAX44Y44*%
%MOMM*%
G71*
G04*
G04 #@! TF.SameCoordinates,5F2224E1-EEEE-49E5-A837-5A6DF9339696*
G04*
G04*
G04 #@! TF.FilePolarity,Positive*
G04*
G01*
G75*
%ADD78C,0.1693*%
%ADD79C,0.1270*%
D78*
X1526780Y1081400D02*
G03*
X1526780Y1081400I-5080J0D01*
G01*
Y1030600D02*
G03*
X1526780Y1030600I-5080J0D01*
G01*
X1241380Y1176600D02*
G03*
X1241380Y1176600I-5080J0D01*
G01*
Y1227400D02*
G03*
X1241380Y1227400I-5080J0D01*
G01*
D79*
X1724200Y1050920D02*
X1726740Y1053460D01*
X1729280D01*
X1726740Y1056000D01*
X1729280Y1058540D01*
X1726740D01*
X1724200Y1061080D01*
X1721660Y1058540D01*
X1719120D01*
X1721660Y1056000D01*
X1719120Y1053460D01*
X1721660D01*
X1724200Y1050920D01*
X1033800Y1196920D02*
X1036340Y1199460D01*
X1038880D01*
X1036340Y1202000D01*
X1038880Y1204540D01*
X1036340D01*
X1033800Y1207080D01*
X1031260Y1204540D01*
X1028720D01*
X1031260Y1202000D01*
X1028720Y1199460D01*
X1031260D01*
X1033800Y1196920D01*
X1595720Y1208420D02*
Y1218580D01*
X1605880D01*
Y1208420D01*
X1595720D01*
Y1188420D02*
Y1198580D01*
X1605880D01*
Y1188420D01*
X1595720D01*
Y1168420D02*
Y1178580D01*
X1605880D01*
Y1168420D01*
X1595720D01*
Y1148420D02*
Y1158580D01*
X1605880D01*
Y1148420D01*
X1595720D01*
X1684020Y1148420D02*
Y1158580D01*
X1694180D01*
Y1148420D01*
X1684020D01*
Y1168420D02*
Y1178580D01*
X1694180D01*
Y1168420D01*
X1684020D01*
Y1188420D02*
Y1198580D01*
X1694180D01*
Y1188420D01*
X1684020D01*
Y1208420D02*
Y1218580D01*
X1694180D01*
Y1208420D01*
X1684020D01*
X1384300Y1184910D02*
X1379220Y1195070D01*
X1389380D01*
X1384300Y1184910D01*
X1376680D02*
X1371600Y1195070D01*
X1381760D01*
X1376680Y1184910D01*
X1369060D02*
X1363980Y1195070D01*
X1374140D01*
X1369060Y1184910D01*
X1407160Y1127760D02*
X1402080Y1137920D01*
X1412240D01*
X1407160Y1127760D01*
X1413505Y1108000D02*
X1408425Y1118160D01*
X1418585D01*
X1413505Y1108000D01*
X1389380Y1093470D02*
X1384300Y1103630D01*
X1394460D01*
X1389380Y1093470D01*
X1332230Y1115060D02*
X1327150Y1125220D01*
X1337310D01*
X1332230Y1115060D01*
X1369060Y1151890D02*
X1363980Y1162050D01*
X1374140D01*
X1369060Y1151890D01*
X1394460Y1121410D02*
X1389380Y1131570D01*
X1399540D01*
X1394460Y1121410D01*
X1379220Y1107440D02*
X1374140Y1117600D01*
X1384300D01*
X1379220Y1107440D01*
X1366520Y1132840D02*
X1361440Y1143000D01*
X1371600D01*
X1366520Y1132840D01*
X1356360D02*
X1351280Y1143000D01*
X1361440D01*
X1356360Y1132840D01*
X1337310Y1031240D02*
X1332230Y1041400D01*
X1342390D01*
X1337310Y1031240D01*
X1344930D02*
X1339850Y1041400D01*
X1350010D01*
X1344930Y1031240D01*
X1352550D02*
X1347470Y1041400D01*
X1357630D01*
X1352550Y1031240D01*
Y1069340D02*
X1347470Y1079500D01*
X1357630D01*
X1352550Y1069340D01*
X1344930D02*
X1339850Y1079500D01*
X1350010D01*
X1344930Y1069340D01*
X1337310D02*
X1332230Y1079500D01*
X1342390D01*
X1337310Y1069340D01*
X1587500Y1150620D02*
X1582420Y1160780D01*
X1592580D01*
X1587500Y1150620D01*
X1574800Y1201420D02*
X1569720Y1211580D01*
X1579880D01*
X1574800Y1201420D01*
Y1188720D02*
X1569720Y1198880D01*
X1579880D01*
X1574800Y1188720D01*
Y1176020D02*
X1569720Y1186180D01*
X1579880D01*
X1574800Y1176020D01*
Y1163320D02*
X1569720Y1173480D01*
X1579880D01*
X1574800Y1163320D01*
Y1150620D02*
X1569720Y1160780D01*
X1579880D01*
X1574800Y1150620D01*
X1562100Y1188720D02*
X1557020Y1198880D01*
X1567180D01*
X1562100Y1188720D01*
Y1163320D02*
X1557020Y1173480D01*
X1567180D01*
X1562100Y1163320D01*
X1549400Y1201420D02*
X1544320Y1211580D01*
X1554480D01*
X1549400Y1201420D01*
Y1188720D02*
X1544320Y1198880D01*
X1554480D01*
X1549400Y1188720D01*
X1536700D02*
X1531620Y1198880D01*
X1541780D01*
X1536700Y1188720D01*
X1193800Y1239520D02*
X1188720Y1249680D01*
X1198880D01*
X1193800Y1239520D01*
Y1137920D02*
X1188720Y1148080D01*
X1198880D01*
X1193800Y1137920D01*
Y1125220D02*
X1188720Y1135380D01*
X1198880D01*
X1193800Y1125220D01*
X1181100Y1239520D02*
X1176020Y1249680D01*
X1186180D01*
X1181100Y1239520D01*
Y1226820D02*
X1176020Y1236980D01*
X1186180D01*
X1181100Y1226820D01*
Y1201420D02*
X1176020Y1211580D01*
X1186180D01*
X1181100Y1201420D01*
Y1188720D02*
X1176020Y1198880D01*
X1186180D01*
X1181100Y1188720D01*
Y1137920D02*
X1176020Y1148080D01*
X1186180D01*
X1181100Y1137920D01*
X1168400Y1239520D02*
X1163320Y1249680D01*
X1173480D01*
X1168400Y1239520D01*
Y1226820D02*
X1163320Y1236980D01*
X1173480D01*
X1168400Y1226820D01*
Y1176020D02*
X1163320Y1186180D01*
X1173480D01*
X1168400Y1176020D01*
Y1125220D02*
X1163320Y1135380D01*
X1173480D01*
X1168400Y1125220D01*
Y1010920D02*
X1163320Y1021080D01*
X1173480D01*
X1168400Y1010920D01*
Y998220D02*
X1163320Y1008380D01*
X1173480D01*
X1168400Y998220D01*
X1155700Y1239520D02*
X1150620Y1249680D01*
X1160780D01*
X1155700Y1239520D01*
Y1226820D02*
X1150620Y1236980D01*
X1160780D01*
X1155700Y1226820D01*
Y1176020D02*
X1150620Y1186180D01*
X1160780D01*
X1155700Y1176020D01*
Y1137920D02*
X1150620Y1148080D01*
X1160780D01*
X1155700Y1137920D01*
Y1125220D02*
X1150620Y1135380D01*
X1160780D01*
X1155700Y1125220D01*
Y1099820D02*
X1150620Y1109980D01*
X1160780D01*
X1155700Y1099820D01*
Y1087120D02*
X1150620Y1097280D01*
X1160780D01*
X1155700Y1087120D01*
Y1061720D02*
X1150620Y1071880D01*
X1160780D01*
X1155700Y1061720D01*
Y998220D02*
X1150620Y1008380D01*
X1160780D01*
X1155700Y998220D01*
X1143000Y1239520D02*
X1137920Y1249680D01*
X1148080D01*
X1143000Y1239520D01*
Y1226820D02*
X1137920Y1236980D01*
X1148080D01*
X1143000Y1226820D01*
Y1214120D02*
X1137920Y1224280D01*
X1148080D01*
X1143000Y1214120D01*
Y1188720D02*
X1137920Y1198880D01*
X1148080D01*
X1143000Y1188720D01*
Y1137920D02*
X1137920Y1148080D01*
X1148080D01*
X1143000Y1137920D01*
Y1112520D02*
X1137920Y1122680D01*
X1148080D01*
X1143000Y1112520D01*
Y1099820D02*
X1137920Y1109980D01*
X1148080D01*
X1143000Y1099820D01*
Y1087120D02*
X1137920Y1097280D01*
X1148080D01*
X1143000Y1087120D01*
Y1061720D02*
X1137920Y1071880D01*
X1148080D01*
X1143000Y1061720D01*
Y998220D02*
X1137920Y1008380D01*
X1148080D01*
X1143000Y998220D01*
X1130300Y1239520D02*
X1125220Y1249680D01*
X1135380D01*
X1130300Y1239520D01*
Y1226820D02*
X1125220Y1236980D01*
X1135380D01*
X1130300Y1226820D01*
Y1125220D02*
X1125220Y1135380D01*
X1135380D01*
X1130300Y1125220D01*
Y1112520D02*
X1125220Y1122680D01*
X1135380D01*
X1130300Y1112520D01*
Y1099820D02*
X1125220Y1109980D01*
X1135380D01*
X1130300Y1099820D01*
Y1087120D02*
X1125220Y1097280D01*
X1135380D01*
X1130300Y1087120D01*
Y1061720D02*
X1125220Y1071880D01*
X1135380D01*
X1130300Y1061720D01*
Y998220D02*
X1125220Y1008380D01*
X1135380D01*
X1130300Y998220D01*
X1117600Y1239520D02*
X1112520Y1249680D01*
X1122680D01*
X1117600Y1239520D01*
Y1226820D02*
X1112520Y1236980D01*
X1122680D01*
X1117600Y1226820D01*
Y1137920D02*
X1112520Y1148080D01*
X1122680D01*
X1117600Y1137920D01*
Y1125220D02*
X1112520Y1135380D01*
X1122680D01*
X1117600Y1125220D01*
Y1061720D02*
X1112520Y1071880D01*
X1122680D01*
X1117600Y1061720D01*
Y1010920D02*
X1112520Y1021080D01*
X1122680D01*
X1117600Y1010920D01*
Y998220D02*
X1112520Y1008380D01*
X1122680D01*
X1117600Y998220D01*
X1104900Y1239520D02*
X1099820Y1249680D01*
X1109980D01*
X1104900Y1239520D01*
Y1226820D02*
X1099820Y1236980D01*
X1109980D01*
X1104900Y1226820D01*
Y1214120D02*
X1099820Y1224280D01*
X1109980D01*
X1104900Y1214120D01*
Y1176020D02*
X1099820Y1186180D01*
X1109980D01*
X1104900Y1176020D01*
Y1163320D02*
X1099820Y1173480D01*
X1109980D01*
X1104900Y1163320D01*
Y1150620D02*
X1099820Y1160780D01*
X1109980D01*
X1104900Y1150620D01*
Y1137920D02*
X1099820Y1148080D01*
X1109980D01*
X1104900Y1137920D01*
Y1125220D02*
X1099820Y1135380D01*
X1109980D01*
X1104900Y1125220D01*
Y1061720D02*
X1099820Y1071880D01*
X1109980D01*
X1104900Y1061720D01*
Y1049020D02*
X1099820Y1059180D01*
X1109980D01*
X1104900Y1049020D01*
Y1036320D02*
X1099820Y1046480D01*
X1109980D01*
X1104900Y1036320D01*
Y1023620D02*
X1099820Y1033780D01*
X1109980D01*
X1104900Y1023620D01*
Y1010920D02*
X1099820Y1021080D01*
X1109980D01*
X1104900Y1010920D01*
Y998220D02*
X1099820Y1008380D01*
X1109980D01*
X1104900Y998220D01*
X1092200Y1239520D02*
X1087120Y1249680D01*
X1097280D01*
X1092200Y1239520D01*
Y1226820D02*
X1087120Y1236980D01*
X1097280D01*
X1092200Y1226820D01*
Y1214120D02*
X1087120Y1224280D01*
X1097280D01*
X1092200Y1214120D01*
Y1201420D02*
X1087120Y1211580D01*
X1097280D01*
X1092200Y1201420D01*
Y1188720D02*
X1087120Y1198880D01*
X1097280D01*
X1092200Y1188720D01*
Y1176020D02*
X1087120Y1186180D01*
X1097280D01*
X1092200Y1176020D01*
Y1163320D02*
X1087120Y1173480D01*
X1097280D01*
X1092200Y1163320D01*
Y1150620D02*
X1087120Y1160780D01*
X1097280D01*
X1092200Y1150620D01*
Y1137920D02*
X1087120Y1148080D01*
X1097280D01*
X1092200Y1137920D01*
Y998220D02*
X1087120Y1008380D01*
X1097280D01*
X1092200Y998220D01*
X1360170Y1158240D02*
X1355090Y1168400D01*
X1365250D01*
X1360170Y1158240D01*
X1078243Y1009764D02*
X1073163Y1019924D01*
X1083323D01*
X1078243Y1009764D01*
X1078205Y1129106D02*
X1073125Y1139266D01*
X1083285D01*
X1078205Y1129106D01*
X1085825Y1121486D02*
X1080745Y1131646D01*
X1090905D01*
X1085825Y1121486D01*
X1078205D02*
X1073125Y1131646D01*
X1083285D01*
X1078205Y1121486D01*
X1078243Y1017384D02*
X1073163Y1027544D01*
X1083323D01*
X1078243Y1017384D01*
Y1025004D02*
X1073163Y1035164D01*
X1083323D01*
X1078243Y1025004D01*
Y1032624D02*
X1073163Y1042784D01*
X1083323D01*
X1078243Y1032624D01*
Y1040244D02*
X1073163Y1050404D01*
X1083323D01*
X1078243Y1040244D01*
Y1047864D02*
X1073163Y1058024D01*
X1083323D01*
X1078243Y1047864D01*
Y1055484D02*
X1073163Y1065644D01*
X1083323D01*
X1078243Y1055484D01*
Y1063104D02*
X1073163Y1073264D01*
X1083323D01*
X1078243Y1063104D01*
Y1070724D02*
X1073163Y1080884D01*
X1083323D01*
X1078243Y1070724D01*
Y1078344D02*
X1073163Y1088504D01*
X1083323D01*
X1078243Y1078344D01*
Y1085964D02*
X1073163Y1096124D01*
X1083323D01*
X1078243Y1085964D01*
Y1093584D02*
X1073163Y1103744D01*
X1083323D01*
X1078243Y1093584D01*
X1085863Y1101204D02*
X1080783Y1111364D01*
X1090943D01*
X1085863Y1101204D01*
X1078243D02*
X1073163Y1111364D01*
X1083323D01*
X1078243Y1101204D01*
X1064273Y1042708D02*
X1059193Y1052868D01*
X1069353D01*
X1064273Y1042708D01*
X1078230Y1243330D02*
X1073150Y1253490D01*
X1083310D01*
X1078230Y1243330D01*
Y1235710D02*
X1073150Y1245870D01*
X1083310D01*
X1078230Y1235710D01*
Y1228090D02*
X1073150Y1238250D01*
X1083310D01*
X1078230Y1228090D01*
Y1220470D02*
X1073150Y1230630D01*
X1083310D01*
X1078230Y1220470D01*
Y1212850D02*
X1073150Y1223010D01*
X1083310D01*
X1078230Y1212850D01*
Y1205230D02*
X1073150Y1215390D01*
X1083310D01*
X1078230Y1205230D01*
Y1197610D02*
X1073150Y1207770D01*
X1083310D01*
X1078230Y1197610D01*
Y1189990D02*
X1073150Y1200150D01*
X1083310D01*
X1078230Y1189990D01*
Y1182370D02*
X1073150Y1192530D01*
X1083310D01*
X1078230Y1182370D01*
Y1174750D02*
X1073150Y1184910D01*
X1083310D01*
X1078230Y1174750D01*
Y1167130D02*
X1073150Y1177290D01*
X1083310D01*
X1078230Y1167130D01*
Y1159510D02*
X1073150Y1169670D01*
X1083310D01*
X1078230Y1159510D01*
Y1151890D02*
X1073150Y1162050D01*
X1083310D01*
X1078230Y1151890D01*
Y1144270D02*
X1073150Y1154430D01*
X1083310D01*
X1078230Y1144270D01*
Y1136650D02*
X1073150Y1146810D01*
X1083310D01*
X1078230Y1136650D01*
Y1002030D02*
X1073150Y1012190D01*
X1083310D01*
X1078230Y1002030D01*
X1253480Y1040140D02*
X1248400Y1050300D01*
X1258560D01*
X1253480Y1040140D01*
X1242480D02*
X1237400Y1050300D01*
X1247560D01*
X1242480Y1040140D01*
X1231480D02*
X1226400Y1050300D01*
X1236560D01*
X1231480Y1040140D01*
X1220480D02*
X1215400Y1050300D01*
X1225560D01*
X1220480Y1040140D01*
X1253480Y1051140D02*
X1248400Y1061300D01*
X1258560D01*
X1253480Y1051140D01*
X1242480D02*
X1237400Y1061300D01*
X1247560D01*
X1242480Y1051140D01*
X1231480D02*
X1226400Y1061300D01*
X1236560D01*
X1231480Y1051140D01*
X1220480D02*
X1215400Y1061300D01*
X1225560D01*
X1220480Y1051140D01*
X1253480Y1062140D02*
X1248400Y1072300D01*
X1258560D01*
X1253480Y1062140D01*
X1242480D02*
X1237400Y1072300D01*
X1247560D01*
X1242480Y1062140D01*
X1231480D02*
X1226400Y1072300D01*
X1236560D01*
X1231480Y1062140D01*
X1220480D02*
X1215400Y1072300D01*
X1225560D01*
X1220480Y1062140D01*
X1253480Y1073140D02*
X1248400Y1083300D01*
X1258560D01*
X1253480Y1073140D01*
X1242480D02*
X1237400Y1083300D01*
X1247560D01*
X1242480Y1073140D01*
X1231480D02*
X1226400Y1083300D01*
X1236560D01*
X1231480Y1073140D01*
X1220480D02*
X1215400Y1083300D01*
X1225560D01*
X1220480Y1073140D01*
X1205230Y1230630D02*
X1200150Y1240790D01*
X1210310D01*
X1205230Y1230630D01*
X1178560Y1115060D02*
X1173480Y1125220D01*
X1183640D01*
X1178560Y1115060D01*
X1200150Y1085850D02*
X1195070Y1096010D01*
X1205230D01*
X1200150Y1085850D01*
X1207770Y1090930D02*
X1202690Y1101090D01*
X1212850D01*
X1207770Y1090930D01*
X1188720Y1104900D02*
X1183640Y1115060D01*
X1193800D01*
X1188720Y1104900D01*
X1275000Y1050640D02*
X1269920Y1060800D01*
X1280080D01*
X1275000Y1050640D01*
X1295400Y1239520D02*
X1290320Y1249680D01*
X1300480D01*
X1295400Y1239520D01*
X1299210Y1234440D02*
X1294130Y1244600D01*
X1304290D01*
X1299210Y1234440D01*
X1295400Y1229360D02*
X1290320Y1239520D01*
X1300480D01*
X1295400Y1229360D01*
X1299210Y1224280D02*
X1294130Y1234440D01*
X1304290D01*
X1299210Y1224280D01*
X1277620D02*
X1272540Y1234440D01*
X1282700D01*
X1277620Y1224280D01*
X1273810Y1229360D02*
X1268730Y1239520D01*
X1278890D01*
X1273810Y1229360D01*
X1277620Y1234440D02*
X1272540Y1244600D01*
X1282700D01*
X1277620Y1234440D01*
X1273810Y1239520D02*
X1268730Y1249680D01*
X1278890D01*
X1273810Y1239520D01*
X1338580Y1107440D02*
X1333500Y1117600D01*
X1343660D01*
X1338580Y1107440D01*
X1285240Y1096650D02*
X1280160Y1106810D01*
X1290320D01*
X1285240Y1096650D01*
X1384300Y1207770D02*
X1379220Y1217930D01*
X1389380D01*
X1384300Y1207770D01*
Y1200150D02*
X1379220Y1210310D01*
X1389380D01*
X1384300Y1200150D01*
X1376680D02*
X1371600Y1210310D01*
X1381760D01*
X1376680Y1200150D01*
X1369060Y1192530D02*
X1363980Y1202690D01*
X1374140D01*
X1369060Y1192530D01*
X1376680D02*
X1371600Y1202690D01*
X1381760D01*
X1376680Y1192530D01*
X1384300D02*
X1379220Y1202690D01*
X1389380D01*
X1384300Y1192530D01*
X1281240Y1009650D02*
X1276160Y1019810D01*
X1286320D01*
X1281240Y1009650D01*
X1213485D02*
X1208405Y1019810D01*
X1218565D01*
X1213485Y1009650D01*
X1272540Y1019810D02*
X1267460Y1029970D01*
X1277620D01*
X1272540Y1019810D01*
X1242060Y1096010D02*
X1236980Y1106170D01*
X1247140D01*
X1242060Y1096010D01*
X1258570Y1131570D02*
X1253490Y1141730D01*
X1263650D01*
X1258570Y1131570D01*
X1170940Y1104900D02*
X1165860Y1115060D01*
X1176020D01*
X1170940Y1104900D01*
X1126490Y1021080D02*
X1121410Y1031240D01*
X1131570D01*
X1126490Y1021080D01*
X1162060Y1027430D02*
X1156980Y1037590D01*
X1167140D01*
X1162060Y1027430D01*
X1162050Y1043940D02*
X1156970Y1054100D01*
X1167130D01*
X1162050Y1043940D01*
M02*
