G04*
G04 #@! TF.GenerationSoftware,Altium Limited,Altium Designer,24.7.2 (38)*
G04*
G04 Layer_Color=16711935*
%FSLAX44Y44*%
%MOMM*%
G71*
G04*
G04 #@! TF.SameCoordinates,5F2224E1-EEEE-49E5-A837-5A6DF9339696*
G04*
G04*
G04 #@! TF.FilePolarity,Positive*
G04*
G01*
G75*
%ADD76C,0.1000*%
D76*
X1262980Y1040720D02*
G03*
X1262980Y1040720I-5000J0D01*
G01*
X1424250Y1109090D02*
X1433250D01*
X1424250Y1093090D02*
X1433250D01*
Y1109090D01*
X1424250Y1093090D02*
Y1109090D01*
X1389000Y1076270D02*
Y1085270D01*
X1405000Y1076270D02*
Y1085270D01*
X1389000D02*
X1405000D01*
X1389000Y1076270D02*
X1405000D01*
X1349120Y1157550D02*
Y1166550D01*
X1333120Y1157550D02*
Y1166550D01*
Y1157550D02*
X1349120D01*
X1333120Y1166550D02*
X1349120D01*
X1333120Y1184330D02*
X1349120D01*
X1333120Y1175330D02*
X1349120D01*
X1333120D02*
Y1184330D01*
X1349120Y1175330D02*
Y1184330D01*
X1266980Y1031720D02*
Y1091720D01*
X1206980Y1031720D02*
Y1091720D01*
Y1031720D02*
X1266980D01*
X1206980Y1091720D02*
X1266980D01*
X1102425Y1079635D02*
X1118425D01*
X1102425Y1088635D02*
X1118425D01*
Y1079635D02*
Y1088635D01*
X1102425Y1079635D02*
Y1088635D01*
X1114815Y1100265D02*
X1123815D01*
X1114815Y1116265D02*
X1123815D01*
X1114815Y1100265D02*
Y1116265D01*
X1123815Y1100265D02*
Y1116265D01*
X1106035Y1100265D02*
Y1116265D01*
X1097035Y1100265D02*
Y1116265D01*
X1106035D01*
X1097035Y1100265D02*
X1106035D01*
X1122100Y1033400D02*
Y1049400D01*
X1113100Y1033400D02*
Y1049400D01*
X1122100D01*
X1113100Y1033400D02*
X1122100D01*
X1271850Y1110870D02*
X1280850D01*
X1271850Y1126870D02*
X1280850D01*
X1271850Y1110870D02*
Y1126870D01*
X1280850Y1110870D02*
Y1126870D01*
X1254070Y1110870D02*
Y1126870D01*
X1263070Y1110870D02*
Y1126870D01*
X1254070Y1110870D02*
X1263070D01*
X1254070Y1126870D02*
X1263070D01*
X1219780Y1110870D02*
X1228780D01*
X1219780Y1126870D02*
X1228780D01*
X1219780Y1110870D02*
Y1126870D01*
X1228780Y1110870D02*
Y1126870D01*
X1202000Y1110870D02*
X1211000D01*
X1202000Y1126870D02*
X1211000D01*
X1202000Y1110870D02*
Y1126870D01*
X1211000Y1110870D02*
Y1126870D01*
X1171830Y1028010D02*
X1187830D01*
X1171830Y1037010D02*
X1187830D01*
Y1028010D02*
Y1037010D01*
X1171830Y1028010D02*
Y1037010D01*
X1171830Y1054790D02*
X1187830D01*
X1171830Y1045790D02*
X1187830D01*
X1171830D02*
Y1054790D01*
X1187830Y1045790D02*
Y1054790D01*
Y1063570D02*
Y1072570D01*
X1171830Y1063570D02*
Y1072570D01*
Y1063570D02*
X1187830D01*
X1171830Y1072570D02*
X1187830D01*
X1184220Y1084200D02*
Y1100200D01*
X1193220Y1084200D02*
Y1100200D01*
X1184220Y1084200D02*
X1193220D01*
X1184220Y1100200D02*
X1193220D01*
X1166440Y1084200D02*
Y1100200D01*
X1175440Y1084200D02*
Y1100200D01*
X1166440Y1084200D02*
X1175440D01*
X1166440Y1100200D02*
X1175440D01*
X1188340Y1019230D02*
X1204340D01*
X1188340Y1010230D02*
X1204340D01*
X1188340D02*
Y1019230D01*
X1204340Y1010230D02*
Y1019230D01*
X1222630Y1010230D02*
X1238630D01*
X1222630Y1019230D02*
X1238630D01*
Y1010230D02*
Y1019230D01*
X1222630Y1010230D02*
Y1019230D01*
X1285820Y1013970D02*
Y1029970D01*
X1294820Y1013970D02*
Y1029970D01*
X1285820Y1013970D02*
X1294820D01*
X1285820Y1029970D02*
X1294820D01*
X1256920Y1019230D02*
X1272920D01*
X1256920Y1010230D02*
X1272920D01*
X1256920D02*
Y1019230D01*
X1272920Y1010230D02*
Y1019230D01*
X1642690Y1174370D02*
X1651690D01*
X1642690Y1190370D02*
X1651690D01*
X1642690Y1174370D02*
Y1190370D01*
X1651690Y1174370D02*
Y1190370D01*
X1554480Y1205240D02*
X1567180D01*
X1554480Y1225540D02*
X1567180D01*
X1554480Y1205240D02*
Y1225540D01*
X1567180Y1205240D02*
Y1225540D01*
X1531620Y1205240D02*
X1544320D01*
X1531620Y1225540D02*
X1544320D01*
X1531620Y1205240D02*
Y1225540D01*
X1544320Y1205240D02*
Y1225540D01*
X1553590Y1175330D02*
Y1184330D01*
X1537590Y1175330D02*
Y1184330D01*
Y1175330D02*
X1553590D01*
X1537590Y1184330D02*
X1553590D01*
X1520570Y1175330D02*
Y1184330D01*
X1504570Y1175330D02*
Y1184330D01*
Y1175330D02*
X1520570D01*
X1504570Y1184330D02*
X1520570D01*
X1471550D02*
X1487550D01*
X1471550Y1175330D02*
X1487550D01*
X1471550D02*
Y1184330D01*
X1487550Y1175330D02*
Y1184330D01*
X1395740Y1220470D02*
Y1233170D01*
X1416040Y1220470D02*
Y1233170D01*
X1395740D02*
X1416040D01*
X1395740Y1220470D02*
X1416040D01*
X1395740Y1197610D02*
Y1210310D01*
X1416040Y1197610D02*
Y1210310D01*
X1395740D02*
X1416040D01*
X1395740Y1197610D02*
X1416040D01*
X1309950Y1146430D02*
X1318950D01*
X1309950Y1162430D02*
X1318950D01*
X1309950Y1146430D02*
Y1162430D01*
X1318950Y1146430D02*
Y1162430D01*
X1397890Y1175330D02*
X1413890D01*
X1397890Y1184330D02*
X1413890D01*
Y1175330D02*
Y1184330D01*
X1397890Y1175330D02*
Y1184330D01*
M02*
