G04*
G04 #@! TF.GenerationSoftware,Altium Limited,Altium Designer,24.7.2 (38)*
G04*
G04 Layer_Color=8388736*
%FSLAX44Y44*%
%MOMM*%
G71*
G04*
G04 #@! TF.SameCoordinates,5F2224E1-EEEE-49E5-A837-5A6DF9339696*
G04*
G04*
G04 #@! TF.FilePolarity,Negative*
G04*
G01*
G75*
%ADD16R,0.5000X0.3500*%
%ADD21R,1.0000X0.2540*%
G04:AMPARAMS|DCode=22|XSize=1.1mm|YSize=0.6mm|CornerRadius=0.051mm|HoleSize=0mm|Usage=FLASHONLY|Rotation=90.000|XOffset=0mm|YOffset=0mm|HoleType=Round|Shape=RoundedRectangle|*
%AMROUNDEDRECTD22*
21,1,1.1000,0.4980,0,0,90.0*
21,1,0.9980,0.6000,0,0,90.0*
1,1,0.1020,0.2490,0.4990*
1,1,0.1020,0.2490,-0.4990*
1,1,0.1020,-0.2490,-0.4990*
1,1,0.1020,-0.2490,0.4990*
%
%ADD22ROUNDEDRECTD22*%
%ADD26R,0.8000X0.8000*%
%ADD27R,1.1500X1.4000*%
%ADD29R,1.0000X1.0000*%
%ADD32R,1.5000X2.4000*%
%ADD34C,0.6096*%
%ADD35C,0.1500*%
%ADD36R,0.3500X0.6500*%
%ADD37R,0.3500X0.6500*%
%ADD38R,0.3500X0.6500*%
%ADD39R,1.2032X1.2532*%
%ADD40R,1.2532X1.2032*%
%ADD41O,0.8532X0.5032*%
%ADD42O,0.5032X0.8532*%
%ADD43R,2.0032X2.5032*%
%ADD44R,1.6000X0.7000*%
%ADD45O,1.0532X0.4032*%
%ADD46O,0.4032X1.0532*%
%ADD47R,4.8032X4.8032*%
%ADD48R,1.2032X1.1532*%
%ADD49R,1.1532X1.2032*%
%ADD50R,1.7032X1.3032*%
%ADD51R,1.3032X1.7032*%
%ADD52R,2.1982X2.1982*%
%ADD53C,2.1982*%
%ADD54C,0.2032*%
%ADD55R,1.2000X1.2000*%
%ADD56C,1.2000*%
G36*
X1429841Y1133702D02*
X1429875Y1133702D01*
X1429907Y1133697D01*
X1429941Y1133694D01*
X1430633Y1133590D01*
X1430666Y1133582D01*
X1430699Y1133577D01*
X1430731Y1133568D01*
X1430763Y1133561D01*
X1430795Y1133550D01*
X1430827Y1133541D01*
X1431486Y1133303D01*
X1431516Y1133290D01*
X1431548Y1133279D01*
X1431577Y1133263D01*
X1431608Y1133250D01*
X1431636Y1133233D01*
X1431666Y1133217D01*
X1432265Y1132856D01*
X1432293Y1132837D01*
X1432321Y1132820D01*
X1432348Y1132799D01*
X1432375Y1132780D01*
X1432400Y1132757D01*
X1432426Y1132737D01*
X1432943Y1132265D01*
X1432966Y1132241D01*
X1432991Y1132219D01*
X1433013Y1132193D01*
X1433036Y1132169D01*
X1433055Y1132142D01*
X1433077Y1132117D01*
X1433493Y1131553D01*
X1433511Y1131525D01*
X1433530Y1131498D01*
X1433546Y1131470D01*
X1433565Y1131441D01*
X1433579Y1131411D01*
X1433595Y1131382D01*
X1433893Y1130748D01*
X1433905Y1130717D01*
X1433919Y1130687D01*
X1433929Y1130655D01*
X1433941Y1130624D01*
X1433949Y1130592D01*
X1433959Y1130560D01*
X1434044Y1130220D01*
X1434054Y1130165D01*
X1434065Y1130108D01*
X1434065Y1130105D01*
X1434066Y1130102D01*
X1434066Y1130096D01*
X1434067Y1130089D01*
X1434070Y1130032D01*
X1434073Y1129976D01*
Y1129976D01*
X1434073Y1129972D01*
X1434073Y1129969D01*
X1434073Y1129963D01*
X1434073Y1129956D01*
X1434068Y1129899D01*
X1434065Y1129843D01*
X1434064Y1129839D01*
X1434064Y1129836D01*
X1434063Y1129830D01*
X1434062Y1129824D01*
X1434050Y1129768D01*
X1434039Y1129712D01*
X1434038Y1129709D01*
X1434037Y1129706D01*
X1434035Y1129700D01*
X1434034Y1129693D01*
X1434014Y1129640D01*
X1433996Y1129586D01*
X1433994Y1129583D01*
X1433994Y1129580D01*
X1433991Y1129574D01*
X1433988Y1129568D01*
X1433962Y1129517D01*
X1433937Y1129466D01*
X1433935Y1129464D01*
X1433934Y1129461D01*
X1433930Y1129456D01*
X1433927Y1129450D01*
X1433894Y1129402D01*
X1433863Y1129356D01*
X1433861Y1129353D01*
X1433859Y1129351D01*
X1433855Y1129346D01*
X1433851Y1129341D01*
X1433813Y1129298D01*
X1433775Y1129256D01*
X1433773Y1129253D01*
X1433771Y1129251D01*
X1433766Y1129247D01*
X1433762Y1129242D01*
X1433718Y1129205D01*
X1433675Y1129168D01*
X1433672Y1129166D01*
X1433670Y1129164D01*
X1433429Y1128981D01*
X1433401Y1128963D01*
X1433374Y1128943D01*
X1433345Y1128926D01*
X1433318Y1128908D01*
X1433288Y1128893D01*
X1433259Y1128877D01*
X1432714Y1128612D01*
X1432683Y1128600D01*
X1432653Y1128585D01*
X1432621Y1128575D01*
X1432591Y1128562D01*
X1432559Y1128554D01*
X1432527Y1128543D01*
X1431941Y1128390D01*
X1431908Y1128384D01*
X1431876Y1128375D01*
X1431843Y1128371D01*
X1431810Y1128365D01*
X1431777Y1128363D01*
X1431744Y1128359D01*
X1431140Y1128323D01*
X1431106Y1128323D01*
X1431073Y1128322D01*
X1431040Y1128324D01*
X1431006Y1128324D01*
X1430973Y1128329D01*
X1430940Y1128331D01*
X1430341Y1128414D01*
X1430308Y1128421D01*
X1430275Y1128425D01*
X1430243Y1128434D01*
X1430210Y1128441D01*
X1430178Y1128452D01*
X1430146Y1128460D01*
X1429574Y1128659D01*
X1429544Y1128672D01*
X1429512Y1128682D01*
X1429482Y1128697D01*
X1429452Y1128710D01*
X1429423Y1128727D01*
X1429393Y1128742D01*
X1428871Y1129048D01*
X1428843Y1129067D01*
X1428814Y1129084D01*
X1428788Y1129104D01*
X1428761Y1129123D01*
X1428750Y1129132D01*
X1428740Y1129123D01*
X1428712Y1129104D01*
X1428686Y1129084D01*
X1428657Y1129067D01*
X1428629Y1129048D01*
X1428107Y1128742D01*
X1428077Y1128727D01*
X1428049Y1128710D01*
X1428018Y1128698D01*
X1427988Y1128682D01*
X1427956Y1128671D01*
X1427926Y1128659D01*
X1427354Y1128460D01*
X1427322Y1128452D01*
X1427290Y1128441D01*
X1427257Y1128434D01*
X1427225Y1128425D01*
X1427192Y1128421D01*
X1427160Y1128414D01*
X1426560Y1128331D01*
X1426527Y1128329D01*
X1426494Y1128324D01*
X1426460Y1128324D01*
X1426427Y1128322D01*
X1426394Y1128323D01*
X1426361Y1128323D01*
X1425756Y1128359D01*
X1425723Y1128363D01*
X1425690Y1128365D01*
X1425657Y1128371D01*
X1425624Y1128376D01*
X1425592Y1128384D01*
X1425559Y1128390D01*
X1424973Y1128543D01*
X1424942Y1128554D01*
X1424909Y1128562D01*
X1424879Y1128575D01*
X1424847Y1128585D01*
X1424817Y1128600D01*
X1424786Y1128612D01*
X1424241Y1128877D01*
X1424212Y1128893D01*
X1424182Y1128908D01*
X1424155Y1128926D01*
X1424126Y1128943D01*
X1424099Y1128963D01*
X1424071Y1128981D01*
X1423830Y1129164D01*
X1423828Y1129166D01*
X1423825Y1129168D01*
X1423782Y1129205D01*
X1423738Y1129242D01*
X1423734Y1129247D01*
X1423729Y1129251D01*
X1423728Y1129253D01*
X1423725Y1129256D01*
X1423687Y1129298D01*
X1423649Y1129341D01*
X1423645Y1129346D01*
X1423641Y1129351D01*
X1423639Y1129353D01*
X1423637Y1129356D01*
X1423605Y1129403D01*
X1423573Y1129450D01*
X1423569Y1129456D01*
X1423566Y1129461D01*
X1423565Y1129463D01*
X1423563Y1129466D01*
X1423537Y1129518D01*
X1423512Y1129568D01*
X1423509Y1129575D01*
X1423507Y1129580D01*
X1423506Y1129582D01*
X1423504Y1129586D01*
X1423486Y1129640D01*
X1423466Y1129694D01*
X1423465Y1129700D01*
X1423463Y1129706D01*
X1423462Y1129708D01*
X1423461Y1129712D01*
X1423450Y1129767D01*
X1423438Y1129824D01*
X1423437Y1129831D01*
X1423436Y1129836D01*
X1423436Y1129839D01*
X1423435Y1129843D01*
X1423432Y1129899D01*
X1423427Y1129956D01*
X1423427Y1129963D01*
X1423427Y1129969D01*
X1423427Y1129972D01*
X1423427Y1129976D01*
X1423430Y1130033D01*
X1423433Y1130089D01*
X1423434Y1130096D01*
X1423434Y1130102D01*
X1423435Y1130105D01*
X1423435Y1130108D01*
X1423446Y1130165D01*
X1423456Y1130220D01*
X1423541Y1130560D01*
X1423551Y1130592D01*
X1423559Y1130624D01*
X1423571Y1130655D01*
X1423581Y1130687D01*
X1423595Y1130717D01*
X1423607Y1130748D01*
X1423905Y1131382D01*
X1423921Y1131411D01*
X1423936Y1131441D01*
X1423954Y1131469D01*
X1423970Y1131499D01*
X1423990Y1131525D01*
X1424008Y1131553D01*
X1424423Y1132117D01*
X1424445Y1132142D01*
X1424465Y1132169D01*
X1424488Y1132193D01*
X1424509Y1132219D01*
X1424534Y1132241D01*
X1424557Y1132265D01*
X1425075Y1132737D01*
X1425101Y1132757D01*
X1425125Y1132780D01*
X1425153Y1132799D01*
X1425179Y1132820D01*
X1425207Y1132837D01*
X1425235Y1132856D01*
X1425834Y1133217D01*
X1425864Y1133232D01*
X1425892Y1133250D01*
X1425923Y1133263D01*
X1425953Y1133278D01*
X1425984Y1133290D01*
X1426015Y1133303D01*
X1426673Y1133540D01*
X1426705Y1133549D01*
X1426737Y1133561D01*
X1426769Y1133568D01*
X1426801Y1133577D01*
X1426834Y1133582D01*
X1426867Y1133589D01*
X1427559Y1133694D01*
X1427592Y1133697D01*
X1427625Y1133701D01*
X1427659Y1133702D01*
X1427692Y1133705D01*
X1427725Y1133703D01*
X1427758Y1133704D01*
X1428458Y1133671D01*
X1428491Y1133668D01*
X1428524Y1133666D01*
X1428557Y1133660D01*
X1428590Y1133656D01*
X1428622Y1133648D01*
X1428655Y1133642D01*
X1428750Y1133619D01*
X1428845Y1133643D01*
X1428877Y1133648D01*
X1428910Y1133656D01*
X1428943Y1133660D01*
X1428976Y1133666D01*
X1429009Y1133668D01*
X1429042Y1133671D01*
X1429742Y1133704D01*
X1429775Y1133704D01*
X1429808Y1133705D01*
X1429841Y1133702D01*
D02*
G37*
G36*
X1431106Y1124657D02*
X1431140Y1124657D01*
X1431744Y1124621D01*
X1431777Y1124617D01*
X1431810Y1124615D01*
X1431843Y1124609D01*
X1431876Y1124605D01*
X1431908Y1124596D01*
X1431941Y1124590D01*
X1432527Y1124437D01*
X1432558Y1124426D01*
X1432591Y1124418D01*
X1432621Y1124405D01*
X1432653Y1124395D01*
X1432683Y1124380D01*
X1432714Y1124368D01*
X1433259Y1124103D01*
X1433288Y1124087D01*
X1433318Y1124072D01*
X1433346Y1124054D01*
X1433374Y1124037D01*
X1433401Y1124017D01*
X1433429Y1123999D01*
X1433670Y1123816D01*
X1433672Y1123814D01*
X1433675Y1123812D01*
X1433718Y1123774D01*
X1433762Y1123738D01*
X1433766Y1123733D01*
X1433771Y1123729D01*
X1433773Y1123727D01*
X1433775Y1123725D01*
X1433813Y1123681D01*
X1433851Y1123639D01*
X1433855Y1123634D01*
X1433859Y1123629D01*
X1433861Y1123627D01*
X1433863Y1123624D01*
X1433895Y1123577D01*
X1433927Y1123530D01*
X1433930Y1123524D01*
X1433934Y1123519D01*
X1433936Y1123516D01*
X1433937Y1123514D01*
X1433963Y1123462D01*
X1433988Y1123412D01*
X1433991Y1123406D01*
X1433994Y1123400D01*
X1433995Y1123397D01*
X1433996Y1123394D01*
X1434015Y1123339D01*
X1434034Y1123287D01*
X1434035Y1123280D01*
X1434037Y1123274D01*
X1434038Y1123271D01*
X1434039Y1123268D01*
X1434050Y1123212D01*
X1434062Y1123156D01*
X1434063Y1123150D01*
X1434064Y1123144D01*
X1434064Y1123140D01*
X1434065Y1123137D01*
X1434069Y1123081D01*
X1434073Y1123024D01*
X1434073Y1123017D01*
X1434073Y1123011D01*
X1434073Y1123008D01*
X1434073Y1123005D01*
Y1123005D01*
X1434070Y1122947D01*
X1434067Y1122891D01*
X1434066Y1122884D01*
X1434066Y1122878D01*
X1434065Y1122875D01*
X1434065Y1122872D01*
X1434054Y1122815D01*
X1434044Y1122759D01*
X1433959Y1122420D01*
X1433949Y1122388D01*
X1433941Y1122356D01*
X1433929Y1122325D01*
X1433919Y1122293D01*
X1433905Y1122263D01*
X1433893Y1122232D01*
X1433595Y1121598D01*
X1433578Y1121569D01*
X1433564Y1121539D01*
X1433546Y1121511D01*
X1433530Y1121481D01*
X1433510Y1121455D01*
X1433493Y1121426D01*
X1433077Y1120863D01*
X1433055Y1120838D01*
X1433035Y1120811D01*
X1433012Y1120787D01*
X1432991Y1120761D01*
X1432966Y1120739D01*
X1432943Y1120715D01*
X1432426Y1120244D01*
X1432399Y1120223D01*
X1432375Y1120200D01*
X1432347Y1120181D01*
X1432321Y1120160D01*
X1432293Y1120143D01*
X1432265Y1120124D01*
X1431666Y1119763D01*
X1431636Y1119747D01*
X1431608Y1119730D01*
X1431577Y1119717D01*
X1431548Y1119702D01*
X1431516Y1119690D01*
X1431485Y1119677D01*
X1430827Y1119440D01*
X1430795Y1119430D01*
X1430764Y1119419D01*
X1430731Y1119412D01*
X1430699Y1119403D01*
X1430666Y1119398D01*
X1430633Y1119391D01*
X1429941Y1119286D01*
X1429908Y1119283D01*
X1429875Y1119278D01*
X1429842Y1119278D01*
X1429808Y1119275D01*
X1429775Y1119277D01*
X1429742Y1119276D01*
X1429042Y1119309D01*
X1429009Y1119312D01*
X1428976Y1119314D01*
X1428943Y1119320D01*
X1428910Y1119324D01*
X1428878Y1119332D01*
X1428845Y1119337D01*
X1428750Y1119361D01*
X1428655Y1119337D01*
X1428622Y1119332D01*
X1428590Y1119324D01*
X1428557Y1119320D01*
X1428524Y1119314D01*
X1428491Y1119313D01*
X1428458Y1119309D01*
X1427758Y1119276D01*
X1427725Y1119277D01*
X1427692Y1119275D01*
X1427659Y1119278D01*
X1427625Y1119278D01*
X1427592Y1119284D01*
X1427559Y1119286D01*
X1426867Y1119391D01*
X1426834Y1119398D01*
X1426801Y1119403D01*
X1426769Y1119412D01*
X1426737Y1119419D01*
X1426705Y1119430D01*
X1426673Y1119440D01*
X1426015Y1119677D01*
X1425984Y1119690D01*
X1425953Y1119702D01*
X1425923Y1119717D01*
X1425893Y1119730D01*
X1425864Y1119748D01*
X1425835Y1119763D01*
X1425235Y1120124D01*
X1425208Y1120143D01*
X1425179Y1120160D01*
X1425153Y1120181D01*
X1425125Y1120200D01*
X1425101Y1120223D01*
X1425075Y1120244D01*
X1424557Y1120715D01*
X1424534Y1120739D01*
X1424509Y1120761D01*
X1424488Y1120787D01*
X1424465Y1120811D01*
X1424445Y1120838D01*
X1424423Y1120863D01*
X1424008Y1121426D01*
X1423990Y1121454D01*
X1423970Y1121481D01*
X1423954Y1121510D01*
X1423936Y1121538D01*
X1423922Y1121569D01*
X1423905Y1121598D01*
X1423608Y1122232D01*
X1423595Y1122262D01*
X1423581Y1122293D01*
X1423571Y1122325D01*
X1423559Y1122355D01*
X1423551Y1122388D01*
X1423541Y1122420D01*
X1423460Y1122747D01*
X1423459Y1122747D01*
X1423459Y1122748D01*
X1423457Y1122759D01*
X1423448Y1122807D01*
X1423437Y1122859D01*
X1423436Y1122868D01*
X1423434Y1122878D01*
X1423434Y1122885D01*
X1423433Y1122890D01*
X1423431Y1122938D01*
X1423427Y1122992D01*
X1423427Y1123001D01*
X1423427Y1123011D01*
X1423427Y1123018D01*
X1423427Y1123024D01*
X1423431Y1123071D01*
X1423434Y1123125D01*
X1423435Y1123134D01*
X1423436Y1123144D01*
X1423438Y1123151D01*
X1423438Y1123156D01*
X1423448Y1123202D01*
X1423458Y1123256D01*
X1423461Y1123265D01*
X1423463Y1123274D01*
X1423465Y1123281D01*
X1423466Y1123286D01*
X1423482Y1123330D01*
X1423499Y1123383D01*
X1423503Y1123391D01*
X1423506Y1123400D01*
X1423510Y1123407D01*
X1423512Y1123412D01*
X1423533Y1123453D01*
X1423557Y1123503D01*
X1423562Y1123511D01*
X1423566Y1123519D01*
X1423570Y1123525D01*
X1423573Y1123530D01*
X1423600Y1123569D01*
X1423629Y1123614D01*
X1423635Y1123622D01*
X1423641Y1123629D01*
X1423646Y1123635D01*
X1423649Y1123639D01*
X1423680Y1123674D01*
X1423716Y1123716D01*
X1423723Y1123722D01*
X1423729Y1123729D01*
X1423735Y1123734D01*
X1423739Y1123738D01*
X1423774Y1123768D01*
X1423815Y1123805D01*
X1423823Y1123810D01*
X1423830Y1123816D01*
X1424071Y1123999D01*
X1424099Y1124017D01*
X1424126Y1124037D01*
X1424155Y1124054D01*
X1424182Y1124072D01*
X1424212Y1124087D01*
X1424241Y1124103D01*
X1424786Y1124368D01*
X1424817Y1124380D01*
X1424847Y1124395D01*
X1424878Y1124405D01*
X1424909Y1124418D01*
X1424942Y1124426D01*
X1424973Y1124437D01*
X1425559Y1124590D01*
X1425592Y1124596D01*
X1425624Y1124604D01*
X1425657Y1124609D01*
X1425690Y1124615D01*
X1425723Y1124617D01*
X1425756Y1124621D01*
X1426360Y1124657D01*
X1426394Y1124657D01*
X1426427Y1124659D01*
X1426460Y1124656D01*
X1426494Y1124656D01*
X1426527Y1124651D01*
X1426560Y1124649D01*
X1427160Y1124566D01*
X1427192Y1124559D01*
X1427225Y1124555D01*
X1427258Y1124546D01*
X1427290Y1124539D01*
X1427322Y1124529D01*
X1427354Y1124520D01*
X1427926Y1124321D01*
X1427957Y1124308D01*
X1427988Y1124297D01*
X1428018Y1124283D01*
X1428049Y1124270D01*
X1428077Y1124253D01*
X1428107Y1124238D01*
X1428629Y1123932D01*
X1428657Y1123913D01*
X1428686Y1123896D01*
X1428712Y1123876D01*
X1428740Y1123857D01*
X1428750Y1123848D01*
X1428760Y1123857D01*
X1428788Y1123876D01*
X1428814Y1123896D01*
X1428843Y1123913D01*
X1428871Y1123932D01*
X1429393Y1124238D01*
X1429422Y1124253D01*
X1429451Y1124270D01*
X1429482Y1124283D01*
X1429512Y1124298D01*
X1429543Y1124308D01*
X1429574Y1124322D01*
X1430146Y1124520D01*
X1430179Y1124529D01*
X1430210Y1124539D01*
X1430242Y1124546D01*
X1430275Y1124555D01*
X1430308Y1124560D01*
X1430340Y1124566D01*
X1430940Y1124649D01*
X1430973Y1124651D01*
X1431006Y1124656D01*
X1431040Y1124656D01*
X1431073Y1124659D01*
X1431106Y1124657D01*
D02*
G37*
G36*
X1089793Y1121022D02*
X1089923Y1120996D01*
X1090050Y1120954D01*
X1090169Y1120895D01*
X1090280Y1120821D01*
X1090380Y1120733D01*
X1090468Y1120633D01*
X1090542Y1120522D01*
X1090601Y1120403D01*
X1090643Y1120276D01*
X1090669Y1120146D01*
X1090678Y1120013D01*
Y1112672D01*
X1090669Y1112540D01*
X1090643Y1112409D01*
X1090601Y1112283D01*
X1090542Y1112163D01*
X1090468Y1112053D01*
X1090380Y1111952D01*
X1090280Y1111865D01*
X1090169Y1111791D01*
X1090050Y1111732D01*
X1089923Y1111689D01*
X1089793Y1111663D01*
X1089660Y1111654D01*
X1081046D01*
X1081028Y1111655D01*
X1081009Y1111655D01*
X1080961Y1111660D01*
X1080913Y1111663D01*
X1080895Y1111667D01*
X1080877Y1111668D01*
X1074335Y1112773D01*
X1067937D01*
X1067818Y1044446D01*
X1067814Y1044379D01*
X1067810Y1044315D01*
X1067809Y1044314D01*
X1067809Y1044313D01*
X1067796Y1044248D01*
X1067784Y1044184D01*
X1067783Y1044184D01*
X1067783Y1044183D01*
X1067763Y1044123D01*
X1067741Y1044058D01*
X1067740Y1044057D01*
X1067740Y1044057D01*
X1067713Y1044002D01*
X1067682Y1043939D01*
X1067681Y1043938D01*
X1067681Y1043937D01*
X1067648Y1043888D01*
X1067608Y1043828D01*
X1067607Y1043827D01*
X1067607Y1043827D01*
X1067566Y1043780D01*
X1067520Y1043728D01*
X1067519Y1043727D01*
X1067519Y1043727D01*
X1067469Y1043684D01*
X1067420Y1043640D01*
X1067419Y1043640D01*
X1067418Y1043639D01*
X1067362Y1043602D01*
X1067309Y1043566D01*
X1067308Y1043566D01*
X1067308Y1043565D01*
X1067243Y1043533D01*
X1067190Y1043507D01*
X1067189Y1043507D01*
X1067188Y1043507D01*
X1067122Y1043484D01*
X1067064Y1043465D01*
X1067063Y1043464D01*
X1067062Y1043464D01*
X1066997Y1043451D01*
X1066933Y1043438D01*
X1066932Y1043438D01*
X1066931Y1043438D01*
X1066865Y1043434D01*
X1066800Y1043430D01*
X1061720D01*
X1061587Y1043438D01*
X1061457Y1043465D01*
X1061330Y1043507D01*
X1061211Y1043566D01*
X1061100Y1043640D01*
X1061000Y1043728D01*
X1060912Y1043828D01*
X1060838Y1043939D01*
X1060779Y1044058D01*
X1060736Y1044184D01*
X1060711Y1044315D01*
X1060702Y1044448D01*
Y1112773D01*
X1013208D01*
Y1108458D01*
X1050290D01*
X1050423Y1108449D01*
X1050554Y1108423D01*
X1050680Y1108381D01*
X1050799Y1108322D01*
X1050910Y1108248D01*
X1051010Y1108160D01*
X1051098Y1108060D01*
X1051172Y1107949D01*
X1051231Y1107830D01*
X1051273Y1107703D01*
X1051300Y1107573D01*
X1051308Y1107440D01*
Y1090930D01*
X1051300Y1090797D01*
X1051273Y1090667D01*
X1051231Y1090540D01*
X1051172Y1090421D01*
X1051098Y1090310D01*
X1051010Y1090210D01*
X1050910Y1090122D01*
X1050799Y1090048D01*
X1050680Y1089989D01*
X1050554Y1089947D01*
X1050423Y1089921D01*
X1050290Y1089912D01*
X1013208D01*
Y1085603D01*
X1050290D01*
X1050423Y1085594D01*
X1050554Y1085568D01*
X1050680Y1085525D01*
X1050799Y1085466D01*
X1050910Y1085392D01*
X1051010Y1085304D01*
X1051098Y1085204D01*
X1051172Y1085094D01*
X1051231Y1084974D01*
X1051273Y1084848D01*
X1051300Y1084717D01*
X1051308Y1084585D01*
Y1068070D01*
X1051300Y1067937D01*
X1051273Y1067806D01*
X1051231Y1067680D01*
X1051172Y1067561D01*
X1051098Y1067450D01*
X1051010Y1067350D01*
X1050910Y1067262D01*
X1050799Y1067188D01*
X1050680Y1067129D01*
X1050554Y1067086D01*
X1050423Y1067060D01*
X1050290Y1067052D01*
X1013208D01*
Y1062738D01*
X1050290D01*
X1050423Y1062729D01*
X1050554Y1062703D01*
X1050680Y1062661D01*
X1050799Y1062602D01*
X1050910Y1062528D01*
X1051010Y1062440D01*
X1051098Y1062340D01*
X1051172Y1062229D01*
X1051231Y1062110D01*
X1051273Y1061983D01*
X1051300Y1061853D01*
X1051308Y1061720D01*
Y1045210D01*
X1051300Y1045077D01*
X1051273Y1044947D01*
X1051231Y1044820D01*
X1051172Y1044701D01*
X1051098Y1044590D01*
X1051010Y1044490D01*
X1050910Y1044402D01*
X1050799Y1044328D01*
X1050680Y1044269D01*
X1050554Y1044227D01*
X1050423Y1044201D01*
X1050290Y1044192D01*
X1013208D01*
Y1021080D01*
X1013199Y1020947D01*
X1013174Y1020816D01*
X1013131Y1020690D01*
X1013072Y1020571D01*
X1012998Y1020460D01*
X1012910Y1020360D01*
X1012810Y1020272D01*
X1012699Y1020198D01*
X1012580Y1020139D01*
X1012454Y1020097D01*
X1012323Y1020070D01*
X1012190Y1020062D01*
X1007110D01*
X1006977Y1020070D01*
X1006846Y1020097D01*
X1006720Y1020139D01*
X1006601Y1020198D01*
X1006490Y1020272D01*
X1006390Y1020360D01*
X1006302Y1020460D01*
X1006228Y1020571D01*
X1006169Y1020690D01*
X1006126Y1020816D01*
X1006100Y1020947D01*
X1006092Y1021080D01*
Y1050290D01*
X1006100Y1050423D01*
X1006126Y1050554D01*
X1006169Y1050680D01*
X1006228Y1050799D01*
X1006302Y1050910D01*
X1006390Y1051010D01*
X1006490Y1051098D01*
X1006601Y1051172D01*
X1006720Y1051231D01*
X1006846Y1051273D01*
X1006977Y1051300D01*
X1007110Y1051308D01*
X1044192D01*
Y1055548D01*
X1007108Y1055622D01*
X1007045Y1055626D01*
X1006977Y1055630D01*
X1006976Y1055631D01*
X1006975Y1055631D01*
X1006916Y1055643D01*
X1006846Y1055657D01*
X1006845Y1055657D01*
X1006844Y1055657D01*
X1006786Y1055677D01*
X1006720Y1055699D01*
X1006719Y1055700D01*
X1006719Y1055700D01*
X1006661Y1055729D01*
X1006601Y1055758D01*
X1006600Y1055759D01*
X1006599Y1055759D01*
X1006544Y1055796D01*
X1006490Y1055832D01*
X1006489Y1055833D01*
X1006488Y1055834D01*
X1006438Y1055878D01*
X1006390Y1055920D01*
X1006389Y1055921D01*
X1006389Y1055921D01*
X1006345Y1055971D01*
X1006302Y1056020D01*
X1006302Y1056021D01*
X1006301Y1056022D01*
X1006264Y1056078D01*
X1006228Y1056131D01*
X1006228Y1056132D01*
X1006227Y1056133D01*
X1006197Y1056195D01*
X1006169Y1056250D01*
X1006169Y1056251D01*
X1006169Y1056252D01*
X1006146Y1056320D01*
X1006126Y1056376D01*
X1006126Y1056377D01*
X1006126Y1056378D01*
X1006113Y1056444D01*
X1006100Y1056507D01*
X1006100Y1056508D01*
X1006100Y1056509D01*
X1006096Y1056573D01*
X1006092Y1056640D01*
Y1073150D01*
X1006100Y1073283D01*
X1006126Y1073413D01*
X1006169Y1073540D01*
X1006228Y1073659D01*
X1006302Y1073770D01*
X1006390Y1073870D01*
X1006490Y1073958D01*
X1006601Y1074032D01*
X1006720Y1074091D01*
X1006846Y1074134D01*
X1006977Y1074159D01*
X1007110Y1074168D01*
X1044192D01*
Y1078486D01*
X1007110D01*
X1006977Y1078495D01*
X1006846Y1078521D01*
X1006720Y1078564D01*
X1006601Y1078623D01*
X1006490Y1078697D01*
X1006390Y1078784D01*
X1006302Y1078885D01*
X1006228Y1078995D01*
X1006169Y1079115D01*
X1006126Y1079241D01*
X1006100Y1079372D01*
X1006092Y1079504D01*
Y1096010D01*
X1006100Y1096143D01*
X1006126Y1096273D01*
X1006169Y1096400D01*
X1006228Y1096519D01*
X1006302Y1096630D01*
X1006390Y1096730D01*
X1006490Y1096818D01*
X1006601Y1096892D01*
X1006720Y1096951D01*
X1006846Y1096993D01*
X1006977Y1097020D01*
X1007110Y1097028D01*
X1044192D01*
Y1101342D01*
X1007110D01*
X1006977Y1101350D01*
X1006846Y1101376D01*
X1006720Y1101419D01*
X1006601Y1101478D01*
X1006490Y1101552D01*
X1006390Y1101640D01*
X1006302Y1101740D01*
X1006228Y1101851D01*
X1006169Y1101970D01*
X1006126Y1102096D01*
X1006100Y1102227D01*
X1006092Y1102360D01*
Y1118872D01*
X1006100Y1119005D01*
X1006126Y1119135D01*
X1006169Y1119261D01*
X1006228Y1119381D01*
X1006302Y1119492D01*
X1006390Y1119592D01*
X1006490Y1119679D01*
X1006601Y1119753D01*
X1006720Y1119812D01*
X1006846Y1119855D01*
X1006977Y1119881D01*
X1007110Y1119890D01*
X1074333D01*
X1080906Y1121017D01*
X1080925Y1121019D01*
X1080945Y1121022D01*
X1080991Y1121025D01*
X1081038Y1121030D01*
X1081058Y1121030D01*
X1081078Y1121031D01*
X1089660D01*
X1089793Y1121022D01*
D02*
G37*
G36*
X1286331Y1086712D02*
X1286365Y1086712D01*
X1286397Y1086707D01*
X1286431Y1086704D01*
X1287123Y1086600D01*
X1287156Y1086592D01*
X1287189Y1086587D01*
X1287221Y1086578D01*
X1287253Y1086571D01*
X1287285Y1086560D01*
X1287317Y1086551D01*
X1287976Y1086313D01*
X1288006Y1086300D01*
X1288038Y1086289D01*
X1288067Y1086273D01*
X1288098Y1086260D01*
X1288126Y1086243D01*
X1288156Y1086227D01*
X1288755Y1085866D01*
X1288783Y1085847D01*
X1288811Y1085830D01*
X1288837Y1085809D01*
X1288865Y1085790D01*
X1288890Y1085767D01*
X1288916Y1085747D01*
X1289433Y1085275D01*
X1289456Y1085251D01*
X1289481Y1085229D01*
X1289503Y1085203D01*
X1289526Y1085179D01*
X1289545Y1085153D01*
X1289567Y1085127D01*
X1289983Y1084564D01*
X1290001Y1084535D01*
X1290020Y1084509D01*
X1290036Y1084480D01*
X1290055Y1084451D01*
X1290069Y1084421D01*
X1290085Y1084392D01*
X1290383Y1083758D01*
X1290395Y1083727D01*
X1290409Y1083697D01*
X1290419Y1083665D01*
X1290431Y1083634D01*
X1290439Y1083602D01*
X1290449Y1083570D01*
X1290534Y1083230D01*
X1290544Y1083175D01*
X1290555Y1083118D01*
X1290555Y1083115D01*
X1290556Y1083112D01*
X1290556Y1083106D01*
X1290557Y1083099D01*
X1290560Y1083042D01*
X1290564Y1082986D01*
Y1082986D01*
X1290563Y1082982D01*
X1290564Y1082979D01*
X1290563Y1082973D01*
X1290563Y1082966D01*
X1290558Y1082909D01*
X1290555Y1082853D01*
X1290554Y1082849D01*
X1290554Y1082846D01*
X1290553Y1082840D01*
X1290552Y1082833D01*
X1290540Y1082778D01*
X1290529Y1082722D01*
X1290528Y1082719D01*
X1290527Y1082716D01*
X1290525Y1082710D01*
X1290524Y1082703D01*
X1290504Y1082650D01*
X1290486Y1082596D01*
X1290484Y1082593D01*
X1290484Y1082590D01*
X1290481Y1082584D01*
X1290479Y1082578D01*
X1290452Y1082527D01*
X1290427Y1082476D01*
X1290425Y1082474D01*
X1290424Y1082471D01*
X1290420Y1082466D01*
X1290417Y1082460D01*
X1290384Y1082412D01*
X1290353Y1082366D01*
X1290351Y1082363D01*
X1290349Y1082361D01*
X1290345Y1082356D01*
X1290341Y1082350D01*
X1290303Y1082308D01*
X1290265Y1082265D01*
X1290263Y1082263D01*
X1290261Y1082261D01*
X1290256Y1082257D01*
X1290252Y1082252D01*
X1290208Y1082215D01*
X1290165Y1082178D01*
X1290162Y1082176D01*
X1290160Y1082174D01*
X1289919Y1081991D01*
X1289891Y1081973D01*
X1289864Y1081953D01*
X1289836Y1081936D01*
X1289808Y1081918D01*
X1289778Y1081903D01*
X1289749Y1081887D01*
X1289204Y1081622D01*
X1289173Y1081610D01*
X1289143Y1081595D01*
X1289111Y1081585D01*
X1289081Y1081572D01*
X1289049Y1081564D01*
X1289017Y1081553D01*
X1288431Y1081400D01*
X1288398Y1081394D01*
X1288366Y1081385D01*
X1288333Y1081381D01*
X1288300Y1081375D01*
X1288267Y1081373D01*
X1288234Y1081369D01*
X1287630Y1081333D01*
X1287596Y1081333D01*
X1287563Y1081331D01*
X1287530Y1081334D01*
X1287496Y1081334D01*
X1287463Y1081339D01*
X1287430Y1081341D01*
X1286830Y1081424D01*
X1286798Y1081431D01*
X1286765Y1081435D01*
X1286733Y1081444D01*
X1286700Y1081451D01*
X1286668Y1081462D01*
X1286636Y1081470D01*
X1286064Y1081669D01*
X1286034Y1081682D01*
X1286002Y1081693D01*
X1285972Y1081707D01*
X1285942Y1081720D01*
X1285913Y1081737D01*
X1285883Y1081752D01*
X1285361Y1082058D01*
X1285333Y1082077D01*
X1285304Y1082094D01*
X1285278Y1082114D01*
X1285251Y1082133D01*
X1285240Y1082142D01*
X1285230Y1082133D01*
X1285202Y1082114D01*
X1285176Y1082094D01*
X1285147Y1082077D01*
X1285119Y1082058D01*
X1284597Y1081752D01*
X1284567Y1081737D01*
X1284539Y1081720D01*
X1284508Y1081708D01*
X1284478Y1081693D01*
X1284446Y1081682D01*
X1284416Y1081669D01*
X1283844Y1081470D01*
X1283812Y1081462D01*
X1283780Y1081451D01*
X1283747Y1081444D01*
X1283715Y1081435D01*
X1283682Y1081431D01*
X1283650Y1081424D01*
X1283050Y1081341D01*
X1283017Y1081339D01*
X1282984Y1081334D01*
X1282950Y1081334D01*
X1282917Y1081331D01*
X1282884Y1081333D01*
X1282851Y1081333D01*
X1282246Y1081369D01*
X1282213Y1081373D01*
X1282180Y1081375D01*
X1282147Y1081381D01*
X1282114Y1081386D01*
X1282082Y1081394D01*
X1282049Y1081400D01*
X1281463Y1081553D01*
X1281432Y1081564D01*
X1281399Y1081572D01*
X1281369Y1081585D01*
X1281337Y1081595D01*
X1281307Y1081610D01*
X1281276Y1081622D01*
X1280732Y1081887D01*
X1280703Y1081903D01*
X1280672Y1081918D01*
X1280645Y1081936D01*
X1280616Y1081953D01*
X1280589Y1081973D01*
X1280561Y1081991D01*
X1280320Y1082174D01*
X1280318Y1082176D01*
X1280315Y1082178D01*
X1280272Y1082215D01*
X1280228Y1082252D01*
X1280224Y1082257D01*
X1280219Y1082261D01*
X1280218Y1082263D01*
X1280215Y1082265D01*
X1280177Y1082308D01*
X1280139Y1082351D01*
X1280135Y1082356D01*
X1280131Y1082361D01*
X1280129Y1082363D01*
X1280127Y1082366D01*
X1280095Y1082413D01*
X1280063Y1082460D01*
X1280060Y1082466D01*
X1280056Y1082471D01*
X1280055Y1082473D01*
X1280053Y1082476D01*
X1280027Y1082528D01*
X1280002Y1082578D01*
X1279999Y1082585D01*
X1279997Y1082590D01*
X1279996Y1082592D01*
X1279994Y1082596D01*
X1279976Y1082650D01*
X1279956Y1082703D01*
X1279955Y1082710D01*
X1279953Y1082716D01*
X1279952Y1082718D01*
X1279951Y1082722D01*
X1279940Y1082777D01*
X1279928Y1082834D01*
X1279927Y1082841D01*
X1279926Y1082846D01*
X1279926Y1082849D01*
X1279925Y1082853D01*
X1279921Y1082909D01*
X1279917Y1082966D01*
X1279917Y1082973D01*
X1279917Y1082979D01*
X1279917Y1082982D01*
X1279917Y1082986D01*
X1279920Y1083043D01*
X1279923Y1083099D01*
X1279924Y1083106D01*
X1279924Y1083112D01*
X1279925Y1083114D01*
X1279925Y1083118D01*
X1279936Y1083175D01*
X1279946Y1083230D01*
X1280031Y1083570D01*
X1280041Y1083602D01*
X1280049Y1083634D01*
X1280061Y1083665D01*
X1280071Y1083697D01*
X1280085Y1083727D01*
X1280097Y1083758D01*
X1280395Y1084392D01*
X1280411Y1084421D01*
X1280426Y1084451D01*
X1280444Y1084480D01*
X1280460Y1084509D01*
X1280479Y1084536D01*
X1280497Y1084564D01*
X1280913Y1085127D01*
X1280935Y1085152D01*
X1280954Y1085179D01*
X1280978Y1085203D01*
X1280999Y1085229D01*
X1281024Y1085251D01*
X1281047Y1085275D01*
X1281565Y1085747D01*
X1281591Y1085767D01*
X1281615Y1085790D01*
X1281643Y1085809D01*
X1281669Y1085830D01*
X1281697Y1085847D01*
X1281725Y1085866D01*
X1282324Y1086227D01*
X1282354Y1086242D01*
X1282383Y1086260D01*
X1282413Y1086273D01*
X1282443Y1086288D01*
X1282474Y1086300D01*
X1282504Y1086313D01*
X1283163Y1086550D01*
X1283195Y1086560D01*
X1283227Y1086571D01*
X1283259Y1086578D01*
X1283291Y1086587D01*
X1283324Y1086592D01*
X1283357Y1086599D01*
X1284049Y1086704D01*
X1284082Y1086706D01*
X1284115Y1086712D01*
X1284149Y1086712D01*
X1284182Y1086715D01*
X1284215Y1086713D01*
X1284249Y1086714D01*
X1284948Y1086681D01*
X1284981Y1086677D01*
X1285014Y1086676D01*
X1285047Y1086670D01*
X1285080Y1086666D01*
X1285112Y1086658D01*
X1285145Y1086652D01*
X1285240Y1086629D01*
X1285335Y1086653D01*
X1285367Y1086658D01*
X1285400Y1086666D01*
X1285433Y1086670D01*
X1285466Y1086676D01*
X1285499Y1086678D01*
X1285532Y1086681D01*
X1286232Y1086714D01*
X1286265Y1086713D01*
X1286298Y1086715D01*
X1286331Y1086712D01*
D02*
G37*
G36*
X1287596Y1077667D02*
X1287630Y1077667D01*
X1288234Y1077631D01*
X1288267Y1077627D01*
X1288300Y1077625D01*
X1288333Y1077619D01*
X1288366Y1077615D01*
X1288398Y1077606D01*
X1288431Y1077600D01*
X1289017Y1077447D01*
X1289048Y1077436D01*
X1289081Y1077428D01*
X1289111Y1077415D01*
X1289143Y1077405D01*
X1289173Y1077390D01*
X1289204Y1077378D01*
X1289749Y1077113D01*
X1289778Y1077097D01*
X1289808Y1077082D01*
X1289836Y1077064D01*
X1289865Y1077047D01*
X1289891Y1077027D01*
X1289919Y1077009D01*
X1290160Y1076826D01*
X1290163Y1076824D01*
X1290165Y1076822D01*
X1290208Y1076785D01*
X1290252Y1076748D01*
X1290256Y1076743D01*
X1290261Y1076739D01*
X1290263Y1076737D01*
X1290265Y1076734D01*
X1290303Y1076691D01*
X1290341Y1076649D01*
X1290345Y1076644D01*
X1290349Y1076639D01*
X1290351Y1076637D01*
X1290353Y1076634D01*
X1290385Y1076587D01*
X1290417Y1076540D01*
X1290420Y1076534D01*
X1290424Y1076529D01*
X1290426Y1076526D01*
X1290427Y1076524D01*
X1290453Y1076472D01*
X1290479Y1076422D01*
X1290481Y1076416D01*
X1290484Y1076410D01*
X1290485Y1076407D01*
X1290486Y1076404D01*
X1290505Y1076349D01*
X1290524Y1076296D01*
X1290525Y1076290D01*
X1290527Y1076284D01*
X1290528Y1076281D01*
X1290529Y1076278D01*
X1290540Y1076222D01*
X1290552Y1076166D01*
X1290553Y1076160D01*
X1290554Y1076154D01*
X1290554Y1076150D01*
X1290555Y1076147D01*
X1290559Y1076091D01*
X1290563Y1076034D01*
X1290563Y1076027D01*
X1290564Y1076021D01*
X1290563Y1076018D01*
X1290564Y1076014D01*
Y1076014D01*
X1290560Y1075957D01*
X1290557Y1075901D01*
X1290556Y1075894D01*
X1290556Y1075888D01*
X1290555Y1075885D01*
X1290555Y1075882D01*
X1290544Y1075826D01*
X1290534Y1075770D01*
X1290449Y1075430D01*
X1290439Y1075398D01*
X1290431Y1075366D01*
X1290419Y1075335D01*
X1290409Y1075303D01*
X1290395Y1075273D01*
X1290383Y1075242D01*
X1290085Y1074608D01*
X1290069Y1074579D01*
X1290054Y1074549D01*
X1290036Y1074521D01*
X1290020Y1074491D01*
X1290000Y1074465D01*
X1289983Y1074436D01*
X1289567Y1073873D01*
X1289545Y1073848D01*
X1289525Y1073821D01*
X1289502Y1073797D01*
X1289481Y1073771D01*
X1289456Y1073749D01*
X1289433Y1073725D01*
X1288916Y1073253D01*
X1288889Y1073233D01*
X1288865Y1073210D01*
X1288837Y1073191D01*
X1288811Y1073170D01*
X1288783Y1073153D01*
X1288755Y1073134D01*
X1288156Y1072773D01*
X1288126Y1072757D01*
X1288098Y1072740D01*
X1288067Y1072727D01*
X1288038Y1072712D01*
X1288006Y1072701D01*
X1287975Y1072687D01*
X1287317Y1072450D01*
X1287285Y1072440D01*
X1287254Y1072429D01*
X1287221Y1072422D01*
X1287189Y1072413D01*
X1287156Y1072408D01*
X1287123Y1072401D01*
X1286431Y1072296D01*
X1286398Y1072293D01*
X1286365Y1072289D01*
X1286332Y1072288D01*
X1286298Y1072285D01*
X1286265Y1072287D01*
X1286232Y1072286D01*
X1285532Y1072319D01*
X1285499Y1072322D01*
X1285466Y1072324D01*
X1285433Y1072330D01*
X1285400Y1072334D01*
X1285368Y1072342D01*
X1285335Y1072347D01*
X1285240Y1072371D01*
X1285145Y1072347D01*
X1285112Y1072342D01*
X1285080Y1072334D01*
X1285047Y1072330D01*
X1285014Y1072324D01*
X1284981Y1072322D01*
X1284948Y1072319D01*
X1284249Y1072286D01*
X1284215Y1072287D01*
X1284182Y1072285D01*
X1284149Y1072288D01*
X1284115Y1072289D01*
X1284082Y1072293D01*
X1284049Y1072296D01*
X1283357Y1072401D01*
X1283324Y1072408D01*
X1283291Y1072413D01*
X1283259Y1072422D01*
X1283227Y1072429D01*
X1283195Y1072440D01*
X1283163Y1072450D01*
X1282505Y1072687D01*
X1282474Y1072700D01*
X1282443Y1072712D01*
X1282413Y1072727D01*
X1282383Y1072740D01*
X1282354Y1072758D01*
X1282325Y1072773D01*
X1281725Y1073134D01*
X1281698Y1073153D01*
X1281669Y1073170D01*
X1281643Y1073191D01*
X1281615Y1073210D01*
X1281591Y1073233D01*
X1281565Y1073253D01*
X1281047Y1073725D01*
X1281024Y1073749D01*
X1280999Y1073771D01*
X1280978Y1073797D01*
X1280955Y1073821D01*
X1280935Y1073848D01*
X1280913Y1073873D01*
X1280498Y1074436D01*
X1280480Y1074464D01*
X1280460Y1074491D01*
X1280444Y1074520D01*
X1280426Y1074548D01*
X1280412Y1074579D01*
X1280395Y1074608D01*
X1280098Y1075242D01*
X1280085Y1075272D01*
X1280071Y1075303D01*
X1280061Y1075335D01*
X1280049Y1075366D01*
X1280041Y1075398D01*
X1280031Y1075430D01*
X1279950Y1075757D01*
X1279949Y1075757D01*
X1279949Y1075758D01*
X1279947Y1075769D01*
X1279938Y1075817D01*
X1279927Y1075869D01*
X1279926Y1075879D01*
X1279924Y1075888D01*
X1279924Y1075895D01*
X1279923Y1075900D01*
X1279921Y1075948D01*
X1279917Y1076002D01*
X1279917Y1076012D01*
X1279917Y1076021D01*
X1279917Y1076028D01*
X1279917Y1076033D01*
X1279921Y1076080D01*
X1279924Y1076135D01*
X1279925Y1076144D01*
X1279926Y1076154D01*
X1279928Y1076161D01*
X1279928Y1076166D01*
X1279938Y1076212D01*
X1279948Y1076266D01*
X1279951Y1076275D01*
X1279953Y1076284D01*
X1279955Y1076291D01*
X1279956Y1076296D01*
X1279972Y1076340D01*
X1279989Y1076393D01*
X1279993Y1076401D01*
X1279996Y1076410D01*
X1280000Y1076417D01*
X1280002Y1076422D01*
X1280023Y1076463D01*
X1280047Y1076513D01*
X1280052Y1076520D01*
X1280056Y1076529D01*
X1280060Y1076535D01*
X1280063Y1076540D01*
X1280090Y1076579D01*
X1280119Y1076624D01*
X1280125Y1076631D01*
X1280131Y1076639D01*
X1280136Y1076645D01*
X1280139Y1076649D01*
X1280170Y1076684D01*
X1280206Y1076726D01*
X1280213Y1076732D01*
X1280219Y1076739D01*
X1280225Y1076744D01*
X1280228Y1076748D01*
X1280264Y1076778D01*
X1280305Y1076815D01*
X1280313Y1076820D01*
X1280320Y1076826D01*
X1280561Y1077009D01*
X1280589Y1077027D01*
X1280616Y1077047D01*
X1280645Y1077064D01*
X1280672Y1077082D01*
X1280702Y1077097D01*
X1280731Y1077113D01*
X1281276Y1077378D01*
X1281307Y1077390D01*
X1281337Y1077405D01*
X1281368Y1077415D01*
X1281399Y1077428D01*
X1281432Y1077436D01*
X1281463Y1077447D01*
X1282049Y1077600D01*
X1282082Y1077606D01*
X1282114Y1077615D01*
X1282147Y1077619D01*
X1282180Y1077625D01*
X1282213Y1077627D01*
X1282246Y1077631D01*
X1282850Y1077667D01*
X1282884Y1077667D01*
X1282917Y1077669D01*
X1282950Y1077666D01*
X1282984Y1077666D01*
X1283017Y1077661D01*
X1283050Y1077659D01*
X1283650Y1077576D01*
X1283682Y1077570D01*
X1283715Y1077565D01*
X1283748Y1077556D01*
X1283780Y1077549D01*
X1283812Y1077539D01*
X1283844Y1077530D01*
X1284416Y1077331D01*
X1284447Y1077318D01*
X1284478Y1077308D01*
X1284508Y1077293D01*
X1284539Y1077280D01*
X1284567Y1077263D01*
X1284597Y1077248D01*
X1285119Y1076942D01*
X1285147Y1076923D01*
X1285176Y1076906D01*
X1285202Y1076886D01*
X1285230Y1076867D01*
X1285240Y1076858D01*
X1285250Y1076867D01*
X1285278Y1076886D01*
X1285304Y1076906D01*
X1285333Y1076923D01*
X1285361Y1076942D01*
X1285883Y1077248D01*
X1285912Y1077263D01*
X1285941Y1077280D01*
X1285972Y1077293D01*
X1286002Y1077308D01*
X1286033Y1077318D01*
X1286064Y1077331D01*
X1286636Y1077530D01*
X1286669Y1077539D01*
X1286700Y1077550D01*
X1286732Y1077556D01*
X1286765Y1077565D01*
X1286798Y1077570D01*
X1286830Y1077576D01*
X1287430Y1077659D01*
X1287463Y1077662D01*
X1287496Y1077666D01*
X1287530Y1077666D01*
X1287563Y1077669D01*
X1287596Y1077667D01*
D02*
G37*
G36*
X1284215Y1066733D02*
X1284248Y1066734D01*
X1284948Y1066701D01*
X1284981Y1066698D01*
X1285014Y1066696D01*
X1285047Y1066690D01*
X1285080Y1066686D01*
X1285112Y1066678D01*
X1285145Y1066673D01*
X1285240Y1066649D01*
X1285335Y1066673D01*
X1285368Y1066678D01*
X1285400Y1066686D01*
X1285433Y1066690D01*
X1285466Y1066696D01*
X1285499Y1066697D01*
X1285532Y1066701D01*
X1286232Y1066734D01*
X1286265Y1066733D01*
X1286298Y1066735D01*
X1286331Y1066732D01*
X1286365Y1066731D01*
X1286398Y1066727D01*
X1286431Y1066724D01*
X1287123Y1066619D01*
X1287156Y1066612D01*
X1287189Y1066607D01*
X1287221Y1066598D01*
X1287253Y1066591D01*
X1287285Y1066580D01*
X1287317Y1066570D01*
X1287975Y1066333D01*
X1288006Y1066320D01*
X1288037Y1066308D01*
X1288067Y1066293D01*
X1288097Y1066280D01*
X1288126Y1066262D01*
X1288156Y1066247D01*
X1288755Y1065886D01*
X1288783Y1065867D01*
X1288811Y1065850D01*
X1288837Y1065829D01*
X1288865Y1065810D01*
X1288889Y1065787D01*
X1288915Y1065767D01*
X1289433Y1065295D01*
X1289456Y1065271D01*
X1289481Y1065249D01*
X1289502Y1065223D01*
X1289525Y1065199D01*
X1289545Y1065172D01*
X1289567Y1065147D01*
X1289982Y1064584D01*
X1290000Y1064556D01*
X1290020Y1064529D01*
X1290036Y1064500D01*
X1290054Y1064472D01*
X1290069Y1064441D01*
X1290085Y1064412D01*
X1290382Y1063778D01*
X1290394Y1063748D01*
X1290409Y1063717D01*
X1290419Y1063685D01*
X1290431Y1063654D01*
X1290439Y1063622D01*
X1290449Y1063590D01*
X1290530Y1063263D01*
X1290531Y1063263D01*
X1290531Y1063262D01*
X1290533Y1063251D01*
X1290542Y1063203D01*
X1290553Y1063151D01*
X1290554Y1063141D01*
X1290556Y1063132D01*
X1290556Y1063125D01*
X1290557Y1063120D01*
X1290559Y1063072D01*
X1290563Y1063018D01*
X1290563Y1063008D01*
X1290564Y1062999D01*
X1290563Y1062992D01*
X1290563Y1062987D01*
X1290559Y1062940D01*
X1290556Y1062885D01*
X1290555Y1062876D01*
X1290554Y1062866D01*
X1290552Y1062859D01*
X1290552Y1062854D01*
X1290542Y1062808D01*
X1290532Y1062754D01*
X1290529Y1062745D01*
X1290527Y1062736D01*
X1290525Y1062729D01*
X1290524Y1062724D01*
X1290508Y1062680D01*
X1290491Y1062627D01*
X1290487Y1062619D01*
X1290484Y1062610D01*
X1290480Y1062603D01*
X1290478Y1062598D01*
X1290457Y1062557D01*
X1290433Y1062507D01*
X1290428Y1062499D01*
X1290424Y1062491D01*
X1290420Y1062485D01*
X1290417Y1062480D01*
X1290390Y1062441D01*
X1290361Y1062396D01*
X1290355Y1062389D01*
X1290349Y1062381D01*
X1290344Y1062375D01*
X1290341Y1062371D01*
X1290310Y1062336D01*
X1290274Y1062294D01*
X1290267Y1062288D01*
X1290261Y1062281D01*
X1290255Y1062276D01*
X1290251Y1062272D01*
X1290216Y1062242D01*
X1290175Y1062205D01*
X1290167Y1062200D01*
X1290160Y1062194D01*
X1289919Y1062011D01*
X1289891Y1061993D01*
X1289864Y1061973D01*
X1289835Y1061956D01*
X1289808Y1061938D01*
X1289778Y1061923D01*
X1289749Y1061907D01*
X1289204Y1061642D01*
X1289173Y1061630D01*
X1289143Y1061615D01*
X1289112Y1061605D01*
X1289081Y1061592D01*
X1289048Y1061584D01*
X1289017Y1061573D01*
X1288431Y1061420D01*
X1288398Y1061414D01*
X1288366Y1061405D01*
X1288333Y1061401D01*
X1288300Y1061395D01*
X1288267Y1061393D01*
X1288234Y1061389D01*
X1287630Y1061353D01*
X1287596Y1061353D01*
X1287563Y1061351D01*
X1287530Y1061354D01*
X1287496Y1061354D01*
X1287463Y1061359D01*
X1287430Y1061361D01*
X1286830Y1061444D01*
X1286798Y1061451D01*
X1286765Y1061455D01*
X1286732Y1061464D01*
X1286700Y1061471D01*
X1286668Y1061481D01*
X1286636Y1061490D01*
X1286064Y1061689D01*
X1286033Y1061702D01*
X1286002Y1061712D01*
X1285972Y1061727D01*
X1285941Y1061740D01*
X1285913Y1061757D01*
X1285883Y1061772D01*
X1285361Y1062078D01*
X1285333Y1062097D01*
X1285304Y1062114D01*
X1285278Y1062134D01*
X1285250Y1062153D01*
X1285240Y1062162D01*
X1285230Y1062153D01*
X1285202Y1062134D01*
X1285176Y1062114D01*
X1285147Y1062097D01*
X1285119Y1062078D01*
X1284597Y1061772D01*
X1284568Y1061757D01*
X1284539Y1061740D01*
X1284508Y1061727D01*
X1284478Y1061712D01*
X1284447Y1061702D01*
X1284416Y1061689D01*
X1283844Y1061490D01*
X1283811Y1061481D01*
X1283780Y1061470D01*
X1283748Y1061464D01*
X1283715Y1061455D01*
X1283682Y1061450D01*
X1283650Y1061444D01*
X1283050Y1061361D01*
X1283017Y1061358D01*
X1282984Y1061354D01*
X1282950Y1061354D01*
X1282917Y1061351D01*
X1282884Y1061353D01*
X1282850Y1061353D01*
X1282246Y1061389D01*
X1282213Y1061393D01*
X1282180Y1061395D01*
X1282147Y1061401D01*
X1282114Y1061405D01*
X1282082Y1061414D01*
X1282049Y1061420D01*
X1281463Y1061573D01*
X1281431Y1061584D01*
X1281399Y1061592D01*
X1281369Y1061605D01*
X1281337Y1061615D01*
X1281307Y1061630D01*
X1281276Y1061642D01*
X1280731Y1061907D01*
X1280702Y1061923D01*
X1280672Y1061938D01*
X1280644Y1061956D01*
X1280616Y1061973D01*
X1280589Y1061993D01*
X1280561Y1062011D01*
X1280320Y1062194D01*
X1280318Y1062196D01*
X1280315Y1062198D01*
X1280272Y1062235D01*
X1280228Y1062272D01*
X1280224Y1062277D01*
X1280219Y1062281D01*
X1280217Y1062283D01*
X1280215Y1062286D01*
X1280177Y1062329D01*
X1280139Y1062371D01*
X1280135Y1062376D01*
X1280131Y1062381D01*
X1280129Y1062383D01*
X1280127Y1062386D01*
X1280095Y1062433D01*
X1280063Y1062480D01*
X1280060Y1062486D01*
X1280056Y1062491D01*
X1280054Y1062494D01*
X1280053Y1062496D01*
X1280027Y1062548D01*
X1280002Y1062598D01*
X1279999Y1062604D01*
X1279996Y1062610D01*
X1279995Y1062613D01*
X1279994Y1062616D01*
X1279975Y1062671D01*
X1279956Y1062724D01*
X1279955Y1062730D01*
X1279953Y1062736D01*
X1279952Y1062739D01*
X1279951Y1062742D01*
X1279940Y1062798D01*
X1279928Y1062854D01*
X1279927Y1062860D01*
X1279926Y1062867D01*
X1279926Y1062870D01*
X1279925Y1062873D01*
X1279921Y1062929D01*
X1279917Y1062986D01*
X1279917Y1062993D01*
X1279917Y1062999D01*
X1279917Y1063002D01*
X1279917Y1063006D01*
Y1063006D01*
X1279920Y1063063D01*
X1279923Y1063119D01*
X1279924Y1063126D01*
X1279924Y1063132D01*
X1279925Y1063135D01*
X1279925Y1063138D01*
X1279936Y1063195D01*
X1279946Y1063251D01*
X1280031Y1063590D01*
X1280041Y1063622D01*
X1280049Y1063654D01*
X1280061Y1063685D01*
X1280071Y1063717D01*
X1280085Y1063747D01*
X1280097Y1063778D01*
X1280395Y1064412D01*
X1280412Y1064441D01*
X1280426Y1064471D01*
X1280444Y1064499D01*
X1280460Y1064529D01*
X1280479Y1064556D01*
X1280497Y1064584D01*
X1280913Y1065147D01*
X1280935Y1065172D01*
X1280954Y1065199D01*
X1280978Y1065223D01*
X1280999Y1065249D01*
X1281024Y1065271D01*
X1281047Y1065295D01*
X1281564Y1065767D01*
X1281591Y1065787D01*
X1281615Y1065810D01*
X1281643Y1065829D01*
X1281669Y1065850D01*
X1281697Y1065867D01*
X1281725Y1065886D01*
X1282324Y1066247D01*
X1282354Y1066263D01*
X1282382Y1066280D01*
X1282413Y1066293D01*
X1282442Y1066308D01*
X1282474Y1066320D01*
X1282504Y1066333D01*
X1283163Y1066570D01*
X1283195Y1066580D01*
X1283226Y1066591D01*
X1283259Y1066598D01*
X1283291Y1066607D01*
X1283324Y1066612D01*
X1283357Y1066619D01*
X1284049Y1066724D01*
X1284082Y1066727D01*
X1284115Y1066731D01*
X1284148Y1066732D01*
X1284182Y1066735D01*
X1284215Y1066733D01*
D02*
G37*
G36*
X1287596Y1057687D02*
X1287629Y1057687D01*
X1288234Y1057651D01*
X1288267Y1057647D01*
X1288300Y1057645D01*
X1288333Y1057639D01*
X1288366Y1057634D01*
X1288398Y1057626D01*
X1288431Y1057620D01*
X1289017Y1057467D01*
X1289048Y1057456D01*
X1289081Y1057448D01*
X1289111Y1057435D01*
X1289143Y1057425D01*
X1289173Y1057410D01*
X1289204Y1057398D01*
X1289749Y1057133D01*
X1289778Y1057117D01*
X1289807Y1057102D01*
X1289835Y1057084D01*
X1289864Y1057067D01*
X1289891Y1057047D01*
X1289919Y1057029D01*
X1290160Y1056846D01*
X1290162Y1056844D01*
X1290165Y1056842D01*
X1290208Y1056805D01*
X1290252Y1056768D01*
X1290256Y1056763D01*
X1290261Y1056759D01*
X1290262Y1056757D01*
X1290265Y1056755D01*
X1290303Y1056712D01*
X1290341Y1056669D01*
X1290345Y1056664D01*
X1290349Y1056659D01*
X1290351Y1056657D01*
X1290353Y1056654D01*
X1290385Y1056607D01*
X1290417Y1056560D01*
X1290421Y1056554D01*
X1290424Y1056549D01*
X1290425Y1056547D01*
X1290427Y1056544D01*
X1290453Y1056492D01*
X1290479Y1056442D01*
X1290481Y1056435D01*
X1290483Y1056430D01*
X1290484Y1056428D01*
X1290486Y1056424D01*
X1290504Y1056370D01*
X1290524Y1056317D01*
X1290525Y1056310D01*
X1290527Y1056304D01*
X1290528Y1056302D01*
X1290529Y1056298D01*
X1290540Y1056243D01*
X1290552Y1056186D01*
X1290553Y1056179D01*
X1290554Y1056174D01*
X1290554Y1056171D01*
X1290555Y1056167D01*
X1290558Y1056111D01*
X1290563Y1056054D01*
X1290563Y1056047D01*
X1290563Y1056041D01*
X1290563Y1056038D01*
X1290564Y1056034D01*
X1290560Y1055977D01*
X1290557Y1055921D01*
X1290556Y1055914D01*
X1290556Y1055908D01*
X1290555Y1055906D01*
X1290555Y1055902D01*
X1290544Y1055845D01*
X1290534Y1055790D01*
X1290449Y1055450D01*
X1290439Y1055418D01*
X1290431Y1055386D01*
X1290419Y1055355D01*
X1290409Y1055323D01*
X1290395Y1055293D01*
X1290383Y1055262D01*
X1290085Y1054628D01*
X1290069Y1054599D01*
X1290054Y1054569D01*
X1290036Y1054540D01*
X1290020Y1054511D01*
X1290000Y1054484D01*
X1289982Y1054456D01*
X1289567Y1053893D01*
X1289545Y1053868D01*
X1289525Y1053841D01*
X1289502Y1053817D01*
X1289481Y1053791D01*
X1289456Y1053769D01*
X1289433Y1053745D01*
X1288915Y1053273D01*
X1288889Y1053253D01*
X1288865Y1053230D01*
X1288837Y1053211D01*
X1288811Y1053191D01*
X1288783Y1053173D01*
X1288755Y1053154D01*
X1288156Y1052793D01*
X1288126Y1052778D01*
X1288098Y1052760D01*
X1288067Y1052747D01*
X1288037Y1052732D01*
X1288006Y1052720D01*
X1287975Y1052707D01*
X1287317Y1052470D01*
X1287285Y1052460D01*
X1287253Y1052449D01*
X1287221Y1052442D01*
X1287189Y1052433D01*
X1287156Y1052428D01*
X1287123Y1052421D01*
X1286431Y1052316D01*
X1286398Y1052314D01*
X1286365Y1052309D01*
X1286331Y1052308D01*
X1286298Y1052305D01*
X1286265Y1052307D01*
X1286232Y1052306D01*
X1285532Y1052339D01*
X1285499Y1052343D01*
X1285466Y1052344D01*
X1285433Y1052350D01*
X1285400Y1052354D01*
X1285368Y1052362D01*
X1285335Y1052368D01*
X1285240Y1052391D01*
X1285145Y1052367D01*
X1285113Y1052362D01*
X1285080Y1052354D01*
X1285047Y1052350D01*
X1285014Y1052344D01*
X1284981Y1052342D01*
X1284948Y1052339D01*
X1284248Y1052306D01*
X1284215Y1052307D01*
X1284182Y1052305D01*
X1284149Y1052308D01*
X1284115Y1052308D01*
X1284083Y1052313D01*
X1284049Y1052316D01*
X1283357Y1052421D01*
X1283324Y1052428D01*
X1283291Y1052433D01*
X1283259Y1052442D01*
X1283227Y1052449D01*
X1283195Y1052460D01*
X1283163Y1052469D01*
X1282504Y1052707D01*
X1282474Y1052720D01*
X1282442Y1052731D01*
X1282413Y1052747D01*
X1282382Y1052760D01*
X1282354Y1052777D01*
X1282324Y1052793D01*
X1281725Y1053154D01*
X1281697Y1053173D01*
X1281669Y1053190D01*
X1281642Y1053211D01*
X1281615Y1053230D01*
X1281590Y1053253D01*
X1281564Y1053273D01*
X1281047Y1053745D01*
X1281024Y1053769D01*
X1280999Y1053791D01*
X1280977Y1053817D01*
X1280954Y1053841D01*
X1280935Y1053867D01*
X1280913Y1053893D01*
X1280497Y1054456D01*
X1280479Y1054485D01*
X1280459Y1054511D01*
X1280444Y1054540D01*
X1280425Y1054569D01*
X1280411Y1054599D01*
X1280395Y1054628D01*
X1280097Y1055262D01*
X1280085Y1055293D01*
X1280071Y1055323D01*
X1280061Y1055355D01*
X1280049Y1055386D01*
X1280041Y1055418D01*
X1280031Y1055450D01*
X1279946Y1055790D01*
X1279936Y1055845D01*
X1279925Y1055902D01*
X1279925Y1055905D01*
X1279924Y1055908D01*
X1279924Y1055914D01*
X1279923Y1055921D01*
X1279920Y1055978D01*
X1279917Y1056034D01*
Y1056034D01*
X1279917Y1056038D01*
X1279917Y1056041D01*
X1279917Y1056047D01*
X1279917Y1056054D01*
X1279921Y1056111D01*
X1279925Y1056167D01*
X1279926Y1056171D01*
X1279926Y1056174D01*
X1279927Y1056180D01*
X1279928Y1056187D01*
X1279940Y1056242D01*
X1279951Y1056298D01*
X1279952Y1056301D01*
X1279953Y1056304D01*
X1279955Y1056310D01*
X1279956Y1056317D01*
X1279976Y1056370D01*
X1279994Y1056424D01*
X1279995Y1056427D01*
X1279996Y1056430D01*
X1279999Y1056436D01*
X1280002Y1056442D01*
X1280028Y1056493D01*
X1280053Y1056544D01*
X1280055Y1056546D01*
X1280056Y1056549D01*
X1280060Y1056554D01*
X1280063Y1056560D01*
X1280096Y1056608D01*
X1280127Y1056654D01*
X1280129Y1056657D01*
X1280131Y1056659D01*
X1280135Y1056664D01*
X1280139Y1056669D01*
X1280177Y1056712D01*
X1280215Y1056755D01*
X1280217Y1056757D01*
X1280219Y1056759D01*
X1280224Y1056763D01*
X1280228Y1056768D01*
X1280272Y1056805D01*
X1280315Y1056842D01*
X1280318Y1056844D01*
X1280320Y1056846D01*
X1280561Y1057029D01*
X1280589Y1057047D01*
X1280616Y1057067D01*
X1280645Y1057084D01*
X1280672Y1057102D01*
X1280703Y1057117D01*
X1280731Y1057133D01*
X1281276Y1057398D01*
X1281307Y1057410D01*
X1281337Y1057425D01*
X1281369Y1057435D01*
X1281399Y1057448D01*
X1281431Y1057456D01*
X1281463Y1057467D01*
X1282049Y1057620D01*
X1282082Y1057626D01*
X1282114Y1057635D01*
X1282147Y1057639D01*
X1282180Y1057645D01*
X1282213Y1057647D01*
X1282246Y1057651D01*
X1282850Y1057687D01*
X1282884Y1057687D01*
X1282917Y1057689D01*
X1282950Y1057686D01*
X1282984Y1057686D01*
X1283017Y1057681D01*
X1283050Y1057679D01*
X1283649Y1057596D01*
X1283682Y1057589D01*
X1283715Y1057585D01*
X1283747Y1057576D01*
X1283780Y1057569D01*
X1283812Y1057558D01*
X1283844Y1057550D01*
X1284416Y1057351D01*
X1284446Y1057338D01*
X1284478Y1057327D01*
X1284508Y1057313D01*
X1284538Y1057300D01*
X1284567Y1057283D01*
X1284597Y1057268D01*
X1285119Y1056962D01*
X1285147Y1056943D01*
X1285176Y1056926D01*
X1285202Y1056906D01*
X1285229Y1056887D01*
X1285240Y1056878D01*
X1285250Y1056887D01*
X1285278Y1056906D01*
X1285304Y1056926D01*
X1285333Y1056943D01*
X1285361Y1056962D01*
X1285883Y1057268D01*
X1285913Y1057283D01*
X1285941Y1057300D01*
X1285972Y1057312D01*
X1286002Y1057327D01*
X1286034Y1057338D01*
X1286064Y1057351D01*
X1286636Y1057550D01*
X1286668Y1057558D01*
X1286700Y1057569D01*
X1286733Y1057576D01*
X1286765Y1057585D01*
X1286798Y1057589D01*
X1286830Y1057596D01*
X1287430Y1057679D01*
X1287463Y1057681D01*
X1287496Y1057686D01*
X1287530Y1057686D01*
X1287563Y1057689D01*
X1287596Y1057687D01*
D02*
G37*
D16*
X1405000Y1106580D02*
D03*
Y1113080D02*
D03*
Y1119580D02*
D03*
Y1126080D02*
D03*
X1389000D02*
D03*
Y1119580D02*
D03*
Y1113080D02*
D03*
Y1106580D02*
D03*
D21*
X1428750Y1126490D02*
D03*
X1285240Y1059520D02*
D03*
Y1079500D02*
D03*
D22*
X1496110Y1201420D02*
D03*
X1505610D02*
D03*
X1515110D02*
D03*
Y1227420D02*
D03*
X1505610D02*
D03*
X1496110D02*
D03*
D26*
X1286380Y1217920D02*
D03*
Y1236920D02*
D03*
X1262380Y1227420D02*
D03*
X1743580Y1184000D02*
D03*
Y1203000D02*
D03*
X1719580Y1193500D02*
D03*
D27*
X1136270Y1048590D02*
D03*
Y1026590D02*
D03*
X1152270D02*
D03*
Y1048590D02*
D03*
D29*
X1242060Y1127370D02*
D03*
Y1110370D02*
D03*
D32*
X1473920Y1215390D02*
D03*
X1436920D02*
D03*
D34*
X1431544Y1124509D02*
G03*
X1431544Y1124509I-2794J0D01*
G01*
Y1128410D02*
G03*
X1431544Y1128410I-2794J0D01*
G01*
X1288034Y1057600D02*
G03*
X1288034Y1057600I-2794J0D01*
G01*
Y1061501D02*
G03*
X1288034Y1061501I-2794J0D01*
G01*
Y1081420D02*
G03*
X1288034Y1081420I-2794J0D01*
G01*
Y1077519D02*
G03*
X1288034Y1077519I-2794J0D01*
G01*
D35*
X1423670Y1123950D02*
Y1129030D01*
X1433830Y1123950D02*
Y1129030D01*
X1280160Y1056980D02*
Y1062060D01*
X1290320Y1056980D02*
Y1062060D01*
Y1076960D02*
Y1082040D01*
X1280160Y1076960D02*
Y1082040D01*
D36*
X1402000Y1157830D02*
D03*
D37*
X1392000D02*
D03*
X1402000Y1138330D02*
D03*
D38*
X1392000Y1138330D02*
D03*
D39*
X1428750Y1109090D02*
D03*
Y1093090D02*
D03*
X1101535Y1116265D02*
D03*
Y1100265D02*
D03*
X1117600Y1049400D02*
D03*
Y1033400D02*
D03*
X1276350Y1110870D02*
D03*
Y1126870D02*
D03*
X1258570Y1110870D02*
D03*
Y1126870D02*
D03*
X1224280Y1110870D02*
D03*
Y1126870D02*
D03*
X1206500Y1110870D02*
D03*
Y1126870D02*
D03*
X1188720Y1084200D02*
D03*
Y1100200D02*
D03*
X1170940Y1084200D02*
D03*
Y1100200D02*
D03*
X1290320Y1013970D02*
D03*
Y1029970D02*
D03*
X1647190Y1174370D02*
D03*
Y1190370D02*
D03*
X1314450Y1146430D02*
D03*
Y1162430D02*
D03*
D40*
X1389000Y1080770D02*
D03*
X1405000D02*
D03*
X1349120Y1162050D02*
D03*
X1333120D02*
D03*
Y1179830D02*
D03*
X1349120D02*
D03*
X1118425Y1084135D02*
D03*
X1102425D02*
D03*
X1187830Y1032510D02*
D03*
X1171830D02*
D03*
X1171830Y1050290D02*
D03*
X1187830D02*
D03*
X1188340Y1014730D02*
D03*
X1204340D02*
D03*
X1238630D02*
D03*
X1222630D02*
D03*
X1256920D02*
D03*
X1272920D02*
D03*
X1553590Y1179830D02*
D03*
X1537590D02*
D03*
X1520570D02*
D03*
X1504570D02*
D03*
X1471550D02*
D03*
X1487550D02*
D03*
X1413890D02*
D03*
X1397890D02*
D03*
D41*
X1376940Y1138080D02*
D03*
Y1122080D02*
D03*
Y1130080D02*
D03*
X1345940Y1138080D02*
D03*
Y1130080D02*
D03*
Y1122080D02*
D03*
D42*
X1369440Y1148080D02*
D03*
X1361440D02*
D03*
X1353440D02*
D03*
Y1112080D02*
D03*
X1361440D02*
D03*
X1369440D02*
D03*
D43*
X1361440Y1130080D02*
D03*
D44*
X1397000Y1148080D02*
D03*
D45*
X1265980Y1039720D02*
D03*
Y1043720D02*
D03*
Y1047720D02*
D03*
Y1051720D02*
D03*
Y1055720D02*
D03*
Y1059720D02*
D03*
Y1063720D02*
D03*
Y1067720D02*
D03*
Y1071720D02*
D03*
Y1075720D02*
D03*
Y1079720D02*
D03*
Y1083720D02*
D03*
X1207980D02*
D03*
Y1079720D02*
D03*
Y1075720D02*
D03*
Y1071720D02*
D03*
Y1067720D02*
D03*
Y1063720D02*
D03*
Y1059720D02*
D03*
Y1055720D02*
D03*
Y1051720D02*
D03*
Y1047720D02*
D03*
Y1043720D02*
D03*
Y1039720D02*
D03*
D46*
X1258980Y1090720D02*
D03*
X1254980D02*
D03*
X1250980D02*
D03*
X1246980D02*
D03*
X1242980D02*
D03*
X1238980D02*
D03*
X1234980D02*
D03*
X1230980D02*
D03*
X1226980D02*
D03*
X1222980D02*
D03*
X1218980D02*
D03*
X1214980D02*
D03*
Y1032720D02*
D03*
X1218980D02*
D03*
X1222980D02*
D03*
X1226980D02*
D03*
X1230980D02*
D03*
X1234980D02*
D03*
X1238980D02*
D03*
X1242980D02*
D03*
X1246980D02*
D03*
X1250980D02*
D03*
X1254980D02*
D03*
X1258980D02*
D03*
D47*
X1236980Y1061720D02*
D03*
D48*
X1119315Y1100265D02*
D03*
Y1116265D02*
D03*
D49*
X1187830Y1068070D02*
D03*
X1171830D02*
D03*
D50*
X1560830Y1205890D02*
D03*
Y1224890D02*
D03*
X1537970Y1205890D02*
D03*
Y1224890D02*
D03*
D51*
X1396390Y1226820D02*
D03*
X1415390D02*
D03*
X1396390Y1203960D02*
D03*
X1415390D02*
D03*
D52*
X1521700Y1081400D02*
D03*
X1236300Y1176600D02*
D03*
D53*
X1521700Y1030600D02*
D03*
X1236300Y1227400D02*
D03*
D54*
X1724200Y1056000D02*
D03*
X1033800Y1202000D02*
D03*
D55*
X1600800Y1213500D02*
D03*
X1689100Y1153500D02*
D03*
D56*
X1600800Y1193500D02*
D03*
Y1173500D02*
D03*
Y1153500D02*
D03*
X1689100Y1173500D02*
D03*
Y1193500D02*
D03*
Y1213500D02*
D03*
M02*
