G04*
G04 #@! TF.GenerationSoftware,Altium Limited,Altium Designer,24.7.2 (38)*
G04*
G04 Layer_Physical_Order=2*
G04 Layer_Color=16711680*
%FSLAX44Y44*%
%MOMM*%
G71*
G04*
G04 #@! TF.SameCoordinates,5F2224E1-EEEE-49E5-A837-5A6DF9339696*
G04*
G04*
G04 #@! TF.FilePolarity,Positive*
G04*
G01*
G75*
%ADD12C,0.2000*%
%ADD55R,1.2000X1.2000*%
%ADD56C,1.2000*%
%ADD67R,1.9950X1.9950*%
%ADD68C,1.9950*%
%ADD69C,0.5000*%
%AMCUSTOMSHAPE70*
4,1,6,2.0320,-2.6111,2.0320,10.6324,0.5080,10.6324,0.5080,7.7686,-1.0160,7.7686,-1.0160,-2.6111,2.0320,-2.6111,0.0*%
%ADD70CUSTOMSHAPE70*%

%ADD71C,3.0000*%
%ADD72C,1.6000*%
%ADD73C,0.3500*%
%ADD74C,2.0000*%
G36*
X1757680Y999490D02*
X1059068D01*
Y1111104D01*
X1074420D01*
Y1139190D01*
Y1258570D01*
X1757680D01*
Y999490D01*
D02*
G37*
%LPC*%
G36*
X1206034Y1239750D02*
X1204426D01*
X1202942Y1239135D01*
X1202596Y1238789D01*
X1193650D01*
X1192472Y1238555D01*
X1191473Y1237887D01*
X1169900Y1216314D01*
X1168487Y1217258D01*
X1165526Y1218485D01*
X1162383Y1219110D01*
X1159177D01*
X1156034Y1218485D01*
X1153073Y1217258D01*
X1150408Y1215478D01*
X1148142Y1213212D01*
X1146362Y1210547D01*
X1145135Y1207586D01*
X1144510Y1204443D01*
Y1201238D01*
X1145135Y1198094D01*
X1146362Y1195133D01*
X1148142Y1192468D01*
X1150408Y1190202D01*
X1153073Y1188422D01*
X1156034Y1187195D01*
X1159177Y1186570D01*
X1162383D01*
X1165526Y1187195D01*
X1168487Y1188422D01*
X1171152Y1190202D01*
X1173418Y1192468D01*
X1175198Y1195133D01*
X1176425Y1198094D01*
X1177050Y1201238D01*
Y1204443D01*
X1176425Y1207586D01*
X1175198Y1210547D01*
X1174254Y1211960D01*
X1194925Y1232631D01*
X1202596D01*
X1202942Y1232285D01*
X1204426Y1231670D01*
X1206034D01*
X1207518Y1232285D01*
X1208655Y1233421D01*
X1209270Y1234906D01*
Y1236514D01*
X1208655Y1237999D01*
X1207518Y1239135D01*
X1206034Y1239750D01*
D02*
G37*
G36*
X1237781Y1238645D02*
X1234820D01*
X1231960Y1237879D01*
X1229395Y1236398D01*
X1227302Y1234305D01*
X1225821Y1231740D01*
X1225055Y1228880D01*
Y1225920D01*
X1225821Y1223060D01*
X1227302Y1220495D01*
X1229395Y1218402D01*
X1231960Y1216921D01*
X1234820Y1216155D01*
X1237781D01*
X1240640Y1216921D01*
X1243205Y1218402D01*
X1245298Y1220495D01*
X1246779Y1223060D01*
X1247545Y1225920D01*
Y1228880D01*
X1246779Y1231740D01*
X1245298Y1234305D01*
X1243205Y1236398D01*
X1240640Y1237879D01*
X1237781Y1238645D01*
D02*
G37*
G36*
X1690057Y1200770D02*
X1688143D01*
X1686294Y1200275D01*
X1684636Y1199317D01*
X1683283Y1197964D01*
X1682325Y1196306D01*
X1681830Y1194457D01*
Y1192543D01*
X1682325Y1190694D01*
X1683283Y1189036D01*
X1684636Y1187683D01*
X1686294Y1186725D01*
X1688143Y1186230D01*
X1690057D01*
X1691906Y1186725D01*
X1693564Y1187683D01*
X1694917Y1189036D01*
X1695875Y1190694D01*
X1696370Y1192543D01*
Y1194457D01*
X1695875Y1196306D01*
X1694917Y1197964D01*
X1693564Y1199317D01*
X1691906Y1200275D01*
X1690057Y1200770D01*
D02*
G37*
G36*
X1601757Y1200770D02*
X1599843D01*
X1597994Y1200275D01*
X1596336Y1199317D01*
X1594983Y1197964D01*
X1594025Y1196306D01*
X1593530Y1194457D01*
Y1192543D01*
X1594025Y1190694D01*
X1594983Y1189036D01*
X1596336Y1187683D01*
X1597994Y1186725D01*
X1599843Y1186230D01*
X1601757D01*
X1603606Y1186725D01*
X1605264Y1187683D01*
X1606617Y1189036D01*
X1607575Y1190694D01*
X1608070Y1192543D01*
Y1194457D01*
X1607575Y1196306D01*
X1606617Y1197964D01*
X1605264Y1199317D01*
X1603606Y1200275D01*
X1601757Y1200770D01*
D02*
G37*
G36*
X1690057Y1180770D02*
X1688143D01*
X1686294Y1180275D01*
X1684636Y1179317D01*
X1683283Y1177964D01*
X1682325Y1176306D01*
X1681830Y1174457D01*
Y1172543D01*
X1682325Y1170694D01*
X1683283Y1169036D01*
X1684636Y1167683D01*
X1686294Y1166725D01*
X1688143Y1166230D01*
X1690057D01*
X1691906Y1166725D01*
X1693564Y1167683D01*
X1694917Y1169036D01*
X1695875Y1170694D01*
X1696370Y1172543D01*
Y1174457D01*
X1695875Y1176306D01*
X1694917Y1177964D01*
X1693564Y1179317D01*
X1691906Y1180275D01*
X1690057Y1180770D01*
D02*
G37*
G36*
X1601757Y1180770D02*
X1599843D01*
X1597994Y1180275D01*
X1596336Y1179317D01*
X1594983Y1177964D01*
X1594025Y1176306D01*
X1593530Y1174457D01*
Y1172543D01*
X1594025Y1170694D01*
X1594983Y1169036D01*
X1596336Y1167683D01*
X1597994Y1166725D01*
X1599843Y1166230D01*
X1601757D01*
X1603606Y1166725D01*
X1605264Y1167683D01*
X1606617Y1169036D01*
X1607575Y1170694D01*
X1608070Y1172543D01*
Y1174457D01*
X1607575Y1176306D01*
X1606617Y1177964D01*
X1605264Y1179317D01*
X1603606Y1180275D01*
X1601757Y1180770D01*
D02*
G37*
G36*
X1369864Y1161010D02*
X1368256D01*
X1366772Y1160395D01*
X1365661Y1159285D01*
X1344930D01*
X1344044Y1159108D01*
X1343293Y1158607D01*
X1330593Y1145907D01*
X1330092Y1145156D01*
X1329915Y1144270D01*
Y1123539D01*
X1328805Y1122429D01*
X1328190Y1120944D01*
Y1119373D01*
X1321111Y1112294D01*
X1282700D01*
X1281814Y1112118D01*
X1281063Y1111617D01*
X1273363Y1103917D01*
X1272862Y1103166D01*
X1272685Y1102280D01*
Y1059119D01*
X1271575Y1058008D01*
X1270960Y1056524D01*
Y1054916D01*
X1271575Y1053431D01*
X1272711Y1052295D01*
X1274196Y1051680D01*
X1275804D01*
X1277289Y1052295D01*
X1278425Y1053431D01*
X1279040Y1054916D01*
Y1056524D01*
X1278425Y1058008D01*
X1277315Y1059119D01*
Y1101321D01*
X1283659Y1107665D01*
X1322070D01*
X1322956Y1107842D01*
X1323707Y1108343D01*
X1331463Y1116100D01*
X1333034D01*
X1334518Y1116715D01*
X1335629Y1117825D01*
X1337766D01*
X1337776Y1116560D01*
X1336292Y1115945D01*
X1335155Y1114809D01*
X1334540Y1113324D01*
Y1111753D01*
X1326831Y1104044D01*
X1288639D01*
X1287529Y1105155D01*
X1286044Y1105770D01*
X1284436D01*
X1282952Y1105155D01*
X1281815Y1104018D01*
X1281200Y1102534D01*
Y1100926D01*
X1281815Y1099442D01*
X1282952Y1098305D01*
X1284436Y1097690D01*
X1286044D01*
X1287529Y1098305D01*
X1288639Y1099416D01*
X1327790D01*
X1328676Y1099592D01*
X1329427Y1100093D01*
X1337813Y1108480D01*
X1339384D01*
X1340869Y1109095D01*
X1341979Y1110206D01*
X1375821D01*
X1376931Y1109095D01*
X1378416Y1108480D01*
X1380024D01*
X1381508Y1109095D01*
X1382645Y1110231D01*
X1383260Y1111716D01*
Y1113324D01*
X1382645Y1114809D01*
X1381508Y1115945D01*
X1380024Y1116560D01*
X1380034Y1117825D01*
X1388110D01*
X1388996Y1118002D01*
X1389747Y1118503D01*
X1393693Y1122450D01*
X1395264D01*
X1396749Y1123065D01*
X1397885Y1124202D01*
X1398500Y1125686D01*
Y1127294D01*
X1397885Y1128779D01*
X1396749Y1129915D01*
X1395264Y1130530D01*
X1393656D01*
X1392171Y1129915D01*
X1391035Y1128779D01*
X1390420Y1127294D01*
Y1125723D01*
X1387151Y1122455D01*
X1335629D01*
X1334545Y1123539D01*
Y1143311D01*
X1345889Y1154656D01*
X1365661D01*
X1366772Y1153545D01*
X1368256Y1152930D01*
X1369864D01*
X1371349Y1153545D01*
X1372485Y1154681D01*
X1373100Y1156166D01*
Y1157774D01*
X1372485Y1159258D01*
X1371349Y1160395D01*
X1369864Y1161010D01*
D02*
G37*
G36*
X1122383Y1219110D02*
X1119177D01*
X1116034Y1218485D01*
X1113073Y1217258D01*
X1110408Y1215478D01*
X1108142Y1213212D01*
X1106362Y1210547D01*
X1105135Y1207586D01*
X1104510Y1204443D01*
Y1201238D01*
X1105135Y1198094D01*
X1106362Y1195133D01*
X1108142Y1192468D01*
X1110408Y1190202D01*
X1113073Y1188422D01*
X1116034Y1187195D01*
X1117701Y1186864D01*
Y1152520D01*
X1117935Y1151342D01*
X1118603Y1150343D01*
X1150983Y1117963D01*
X1151982Y1117295D01*
X1153160Y1117061D01*
X1153160Y1117061D01*
X1175926D01*
X1176272Y1116715D01*
X1177756Y1116100D01*
X1179364D01*
X1180848Y1116715D01*
X1181985Y1117851D01*
X1182600Y1119336D01*
Y1120909D01*
X1182699Y1121003D01*
X1183701Y1121605D01*
X1197071Y1108235D01*
Y1093564D01*
X1196725Y1093219D01*
X1196110Y1091734D01*
Y1090126D01*
X1196725Y1088642D01*
X1197861Y1087505D01*
X1199346Y1086890D01*
X1200954D01*
X1202439Y1087505D01*
X1203575Y1088642D01*
X1204190Y1090126D01*
Y1091734D01*
X1203945Y1092326D01*
X1205021Y1093045D01*
X1205481Y1092585D01*
X1206966Y1091970D01*
X1208574D01*
X1210059Y1092585D01*
X1211195Y1093721D01*
X1211810Y1095206D01*
Y1096814D01*
X1211195Y1098298D01*
X1210849Y1098644D01*
Y1141890D01*
X1210615Y1143068D01*
X1209947Y1144067D01*
X1209947Y1144067D01*
X1195854Y1158160D01*
X1196798Y1159573D01*
X1198025Y1162534D01*
X1198650Y1165678D01*
Y1168883D01*
X1198025Y1172026D01*
X1196798Y1174987D01*
X1195018Y1177652D01*
X1192751Y1179918D01*
X1190087Y1181698D01*
X1187126Y1182925D01*
X1183982Y1183550D01*
X1180778D01*
X1177634Y1182925D01*
X1174673Y1181698D01*
X1172009Y1179918D01*
X1169742Y1177652D01*
X1167962Y1174987D01*
X1166735Y1172026D01*
X1166110Y1168883D01*
Y1165678D01*
X1166735Y1162534D01*
X1167962Y1159573D01*
X1169742Y1156908D01*
X1172009Y1154642D01*
X1174673Y1152862D01*
X1177634Y1151635D01*
X1180778Y1151010D01*
X1183982D01*
X1187126Y1151635D01*
X1190087Y1152862D01*
X1191500Y1153806D01*
X1204691Y1140615D01*
Y1099708D01*
X1204499Y1099472D01*
X1203428Y1099852D01*
X1203229Y1100052D01*
Y1109510D01*
X1202995Y1110688D01*
X1202327Y1111687D01*
X1155854Y1158160D01*
X1156798Y1159573D01*
X1158025Y1162534D01*
X1158650Y1165678D01*
Y1168883D01*
X1158025Y1172026D01*
X1156798Y1174987D01*
X1155018Y1177652D01*
X1152751Y1179918D01*
X1150087Y1181698D01*
X1147126Y1182925D01*
X1143982Y1183550D01*
X1140778D01*
X1137634Y1182925D01*
X1134673Y1181698D01*
X1132009Y1179918D01*
X1129742Y1177652D01*
X1127962Y1174987D01*
X1126735Y1172026D01*
X1126110Y1168883D01*
Y1165678D01*
X1126735Y1162534D01*
X1127962Y1159573D01*
X1129742Y1156908D01*
X1132009Y1154642D01*
X1134673Y1152862D01*
X1137634Y1151635D01*
X1140778Y1151010D01*
X1143982D01*
X1147126Y1151635D01*
X1150087Y1152862D01*
X1151500Y1153806D01*
X1180025Y1125281D01*
X1179423Y1124278D01*
X1179329Y1124180D01*
X1177756D01*
X1176272Y1123565D01*
X1175926Y1123219D01*
X1154435D01*
X1123859Y1153795D01*
Y1186864D01*
X1125526Y1187195D01*
X1128487Y1188422D01*
X1131152Y1190202D01*
X1133418Y1192468D01*
X1135198Y1195133D01*
X1136425Y1198094D01*
X1137050Y1201238D01*
Y1204443D01*
X1136425Y1207586D01*
X1135198Y1210547D01*
X1133418Y1213212D01*
X1131152Y1215478D01*
X1128487Y1217258D01*
X1125526Y1218485D01*
X1122383Y1219110D01*
D02*
G37*
G36*
X1247545Y1187845D02*
X1225055D01*
Y1165355D01*
X1247545D01*
Y1167250D01*
X1378577D01*
X1471039Y1074789D01*
X1472975Y1073303D01*
X1475230Y1072369D01*
X1477650Y1072050D01*
X1510455D01*
Y1070155D01*
X1532945D01*
Y1092645D01*
X1510455D01*
Y1090750D01*
X1481523D01*
X1389061Y1183211D01*
X1387125Y1184697D01*
X1384870Y1185631D01*
X1382450Y1185950D01*
X1247545D01*
Y1187845D01*
D02*
G37*
G36*
X1725927Y1073540D02*
X1722473D01*
X1719084Y1072866D01*
X1715892Y1071544D01*
X1713019Y1069624D01*
X1710576Y1067181D01*
X1708656Y1064308D01*
X1707334Y1061116D01*
X1706660Y1057728D01*
Y1054273D01*
X1707334Y1050884D01*
X1708656Y1047692D01*
X1710576Y1044819D01*
X1713019Y1042376D01*
X1715892Y1040456D01*
X1719084Y1039134D01*
X1722473Y1038460D01*
X1725927D01*
X1729316Y1039134D01*
X1732508Y1040456D01*
X1735381Y1042376D01*
X1737824Y1044819D01*
X1739744Y1047692D01*
X1741066Y1050884D01*
X1741740Y1054273D01*
Y1057728D01*
X1741066Y1061116D01*
X1739744Y1064308D01*
X1737824Y1067181D01*
X1735381Y1069624D01*
X1732508Y1071544D01*
X1729316Y1072866D01*
X1725927Y1073540D01*
D02*
G37*
G36*
X1356360Y1080875D02*
X1333500D01*
X1332528Y1080472D01*
X1332125Y1079500D01*
Y1031240D01*
X1332528Y1030268D01*
X1333500Y1029865D01*
X1356360D01*
X1357332Y1030268D01*
X1357735Y1031240D01*
Y1079500D01*
X1357332Y1080472D01*
X1356360Y1080875D01*
D02*
G37*
G36*
X1628760Y1224867D02*
X1600800D01*
X1597858Y1224480D01*
X1595116Y1223344D01*
X1592762Y1221538D01*
X1590956Y1219184D01*
X1589820Y1216442D01*
X1589433Y1213500D01*
X1589820Y1210558D01*
X1590956Y1207816D01*
X1592762Y1205462D01*
X1595116Y1203656D01*
X1597858Y1202520D01*
X1600800Y1202133D01*
X1624052D01*
X1633283Y1192902D01*
Y1167130D01*
X1633670Y1164188D01*
X1634806Y1161446D01*
X1636612Y1159092D01*
X1650242Y1145462D01*
X1652596Y1143656D01*
X1655338Y1142520D01*
X1658280Y1142133D01*
X1677733D01*
Y1086749D01*
X1632952Y1041967D01*
X1521700D01*
X1520771Y1041845D01*
X1520220D01*
X1519687Y1041702D01*
X1518758Y1041580D01*
X1517892Y1041221D01*
X1517360Y1041079D01*
X1516882Y1040803D01*
X1516016Y1040444D01*
X1515273Y1039874D01*
X1514795Y1039598D01*
X1514405Y1039208D01*
X1513662Y1038638D01*
X1513092Y1037895D01*
X1512702Y1037505D01*
X1512426Y1037027D01*
X1511856Y1036284D01*
X1511497Y1035418D01*
X1511221Y1034940D01*
X1511079Y1034408D01*
X1510720Y1033542D01*
X1510598Y1032613D01*
X1510455Y1032080D01*
Y1031529D01*
X1510333Y1030600D01*
X1510455Y1029671D01*
Y1029120D01*
X1510598Y1028587D01*
X1510720Y1027658D01*
X1511079Y1026792D01*
X1511221Y1026260D01*
X1511497Y1025782D01*
X1511856Y1024916D01*
X1512426Y1024173D01*
X1512702Y1023695D01*
X1513092Y1023305D01*
X1513662Y1022562D01*
X1514405Y1021992D01*
X1514795Y1021602D01*
X1515273Y1021326D01*
X1516016Y1020756D01*
X1516882Y1020397D01*
X1517360Y1020121D01*
X1517892Y1019979D01*
X1518758Y1019620D01*
X1519687Y1019498D01*
X1520220Y1019355D01*
X1520771D01*
X1521700Y1019233D01*
X1637660D01*
X1640602Y1019620D01*
X1643344Y1020756D01*
X1645698Y1022562D01*
X1697138Y1074002D01*
X1698944Y1076356D01*
X1700080Y1079098D01*
X1700467Y1082040D01*
Y1153500D01*
X1700080Y1156442D01*
X1698944Y1159184D01*
X1697138Y1161538D01*
X1694784Y1163344D01*
X1692042Y1164480D01*
X1689100Y1164867D01*
X1662988D01*
X1656017Y1171838D01*
Y1197610D01*
X1655630Y1200552D01*
X1654494Y1203294D01*
X1652688Y1205648D01*
X1636798Y1221538D01*
X1634444Y1223344D01*
X1631702Y1224480D01*
X1628760Y1224867D01*
D02*
G37*
%LPD*%
G36*
X1356360Y1031240D02*
X1333500D01*
Y1079500D01*
X1356360D01*
Y1031240D01*
D02*
G37*
D12*
X1344930Y1156970D02*
X1369060D01*
X1332230Y1144270D02*
X1344930Y1156970D01*
X1332230Y1120140D02*
X1388110D01*
X1394460Y1126490D01*
X1338580Y1112520D02*
X1379220D01*
X1332230Y1120140D02*
Y1144270D01*
X1282700Y1109980D02*
X1322070D01*
X1332230Y1120140D01*
X1275000Y1055720D02*
Y1102280D01*
X1282700Y1109980D01*
X1285240Y1101730D02*
X1327790D01*
X1338580Y1112520D01*
D55*
X1600800Y1213500D02*
D03*
X1689100Y1153500D02*
D03*
D56*
X1600800Y1193500D02*
D03*
Y1173500D02*
D03*
Y1153500D02*
D03*
X1689100Y1173500D02*
D03*
Y1193500D02*
D03*
Y1213500D02*
D03*
D67*
X1521700Y1081400D02*
D03*
X1236300Y1176600D02*
D03*
D68*
X1521700Y1030600D02*
D03*
X1236300Y1227400D02*
D03*
D69*
X1384300Y1189990D02*
D03*
X1376680D02*
D03*
X1369060D02*
D03*
X1407160Y1132840D02*
D03*
X1413505Y1113080D02*
D03*
X1389380Y1098550D02*
D03*
X1332230Y1120140D02*
D03*
X1369060Y1156970D02*
D03*
X1394460Y1126490D02*
D03*
X1379220Y1112520D02*
D03*
X1366520Y1137920D02*
D03*
X1356360D02*
D03*
X1337310Y1036320D02*
D03*
X1344930D02*
D03*
X1352550D02*
D03*
Y1074420D02*
D03*
X1344930D02*
D03*
X1337310D02*
D03*
X1587500Y1155700D02*
D03*
X1574800Y1206500D02*
D03*
Y1193800D02*
D03*
Y1181100D02*
D03*
Y1168400D02*
D03*
Y1155700D02*
D03*
X1562100Y1193800D02*
D03*
Y1168400D02*
D03*
X1549400Y1206500D02*
D03*
Y1193800D02*
D03*
X1536700D02*
D03*
X1193800Y1244600D02*
D03*
Y1143000D02*
D03*
Y1130300D02*
D03*
X1181100Y1244600D02*
D03*
Y1231900D02*
D03*
Y1206500D02*
D03*
Y1193800D02*
D03*
Y1143000D02*
D03*
X1168400Y1244600D02*
D03*
Y1231900D02*
D03*
Y1181100D02*
D03*
Y1130300D02*
D03*
Y1016000D02*
D03*
Y1003300D02*
D03*
X1155700Y1244600D02*
D03*
Y1231900D02*
D03*
Y1181100D02*
D03*
Y1143000D02*
D03*
Y1130300D02*
D03*
Y1104900D02*
D03*
Y1092200D02*
D03*
Y1066800D02*
D03*
Y1003300D02*
D03*
X1143000Y1244600D02*
D03*
Y1231900D02*
D03*
Y1219200D02*
D03*
Y1193800D02*
D03*
Y1143000D02*
D03*
Y1117600D02*
D03*
Y1104900D02*
D03*
Y1092200D02*
D03*
Y1066800D02*
D03*
Y1003300D02*
D03*
X1130300Y1244600D02*
D03*
Y1231900D02*
D03*
Y1130300D02*
D03*
Y1117600D02*
D03*
Y1104900D02*
D03*
Y1092200D02*
D03*
Y1066800D02*
D03*
Y1003300D02*
D03*
X1117600Y1244600D02*
D03*
Y1231900D02*
D03*
Y1143000D02*
D03*
Y1130300D02*
D03*
Y1066800D02*
D03*
Y1016000D02*
D03*
Y1003300D02*
D03*
X1104900Y1244600D02*
D03*
Y1231900D02*
D03*
Y1219200D02*
D03*
Y1181100D02*
D03*
Y1168400D02*
D03*
Y1155700D02*
D03*
Y1143000D02*
D03*
Y1130300D02*
D03*
Y1066800D02*
D03*
Y1054100D02*
D03*
Y1041400D02*
D03*
Y1028700D02*
D03*
Y1016000D02*
D03*
Y1003300D02*
D03*
X1092200Y1244600D02*
D03*
Y1231900D02*
D03*
Y1219200D02*
D03*
Y1206500D02*
D03*
Y1193800D02*
D03*
Y1181100D02*
D03*
Y1168400D02*
D03*
Y1155700D02*
D03*
Y1143000D02*
D03*
Y1003300D02*
D03*
X1360170Y1163320D02*
D03*
X1078243Y1014844D02*
D03*
X1078205Y1134186D02*
D03*
X1085825Y1126566D02*
D03*
X1078205D02*
D03*
X1078243Y1022464D02*
D03*
Y1030084D02*
D03*
Y1037704D02*
D03*
Y1045324D02*
D03*
Y1052944D02*
D03*
Y1060564D02*
D03*
Y1068184D02*
D03*
Y1075804D02*
D03*
Y1083424D02*
D03*
Y1091044D02*
D03*
Y1098664D02*
D03*
X1085863Y1106284D02*
D03*
X1078243D02*
D03*
X1064273Y1047788D02*
D03*
X1078230Y1248410D02*
D03*
Y1240790D02*
D03*
Y1233170D02*
D03*
Y1225550D02*
D03*
Y1217930D02*
D03*
Y1210310D02*
D03*
Y1202690D02*
D03*
Y1195070D02*
D03*
Y1187450D02*
D03*
Y1179830D02*
D03*
Y1172210D02*
D03*
Y1164590D02*
D03*
Y1156970D02*
D03*
Y1149350D02*
D03*
Y1141730D02*
D03*
Y1007110D02*
D03*
X1253480Y1045220D02*
D03*
X1242480D02*
D03*
X1231480D02*
D03*
X1220480D02*
D03*
X1253480Y1056220D02*
D03*
X1242480D02*
D03*
X1231480D02*
D03*
X1220480D02*
D03*
X1253480Y1067220D02*
D03*
X1242480D02*
D03*
X1231480D02*
D03*
X1220480D02*
D03*
X1253480Y1078220D02*
D03*
X1242480D02*
D03*
X1231480D02*
D03*
X1220480D02*
D03*
X1205230Y1235710D02*
D03*
X1178560Y1120140D02*
D03*
X1200150Y1090930D02*
D03*
X1207770Y1096010D02*
D03*
X1188720Y1109980D02*
D03*
X1275000Y1055720D02*
D03*
X1295400Y1244600D02*
D03*
X1299210Y1239520D02*
D03*
X1295400Y1234440D02*
D03*
X1299210Y1229360D02*
D03*
X1277620D02*
D03*
X1273810Y1234440D02*
D03*
X1277620Y1239520D02*
D03*
X1273810Y1244600D02*
D03*
X1338580Y1112520D02*
D03*
X1285240Y1101730D02*
D03*
X1384300Y1212850D02*
D03*
Y1205230D02*
D03*
X1376680D02*
D03*
X1369060Y1197610D02*
D03*
X1376680D02*
D03*
X1384300D02*
D03*
X1281240Y1014730D02*
D03*
X1213485D02*
D03*
X1272540Y1024890D02*
D03*
X1242060Y1101090D02*
D03*
X1258570Y1136650D02*
D03*
X1170940Y1109980D02*
D03*
X1126490Y1026160D02*
D03*
X1162060Y1032510D02*
D03*
X1162050Y1049020D02*
D03*
D70*
X1069353Y1033818D02*
D03*
D71*
X1120780Y1202840D02*
D03*
X1160780D02*
D03*
X1200780D02*
D03*
X1142380Y1167280D02*
D03*
X1182380D02*
D03*
D72*
X1382450Y1176600D02*
X1477650Y1081400D01*
X1236300Y1176600D02*
X1382450D01*
X1477650Y1081400D02*
X1521700D01*
D73*
X1193650Y1235710D02*
X1205230D01*
X1160780Y1202840D02*
X1193650Y1235710D01*
X1153160Y1120140D02*
X1178560D01*
X1120780Y1152520D02*
X1153160Y1120140D01*
X1120780Y1152520D02*
Y1202840D01*
X1200150Y1090930D02*
Y1109510D01*
X1142380Y1167280D02*
X1200150Y1109510D01*
X1207770Y1096010D02*
Y1141890D01*
X1182380Y1167280D02*
X1207770Y1141890D01*
D74*
X1521700Y1030600D02*
X1637660D01*
X1689100Y1082040D01*
Y1153500D01*
X1658280D02*
X1689100D01*
X1644650Y1167130D02*
Y1197610D01*
Y1167130D02*
X1658280Y1153500D01*
X1628760Y1213500D02*
X1644650Y1197610D01*
X1600800Y1213500D02*
X1628760D01*
M02*
